abhaya_extra_bold.sfdir
StartChar: percentage
Encoding: 37 37 230
Width: 574
GlyphClass: 2
Flags: W
LayerCount: 2
Back
Fore
SplineSet
105.618164062 -1 m 1,0,-1
 41 -1 l 1,1,-1
 456.899414062 677 l 1,2,-1
 519.48828125 677 l 1,3,-1
 105.618164062 -1 l 1,0,-1
139.075195312 616.302734375 m 128,-1,5
 144.232421875 626.2734375 144.232421875 626.2734375 151.930664062 635.15234375 c 0,6,7
 168.414407527 653.9921875 168.414407527 653.9921875 190.670881041 663.49609375 c 128,-1,8
 212.926335253 673 212.926335253 673 240.070365007 673 c 0,9,10
 279.436852921 673 279.436852921 673 309.047595105 651.465820312 c 0,11,12
 349.665786681 621.697265625 349.665786681 621.697265625 349.665786681 571.5 c 0,13,14
 349.665786681 534.62890625 349.665786681 534.62890625 325.512390922 506.911132812 c 0,15,16
 292.615416972 470 292.615416972 470 239.026599086 470 c 0,17,18
 229.240274277 470 229.240274277 470 219.956465678 471.345703125 c 128,-1,19
 210.671637775 472.690429688 210.671637775 472.690429688 201.917866558 475.375976562 c 128,-1,20
 193.16409534 478.060546875 193.16409534 478.060546875 184.943419412 482.090820312 c 128,-1,21
 176.721724181 486.122070312 176.721724181 486.122070312 169.076954254 491.483398438 c 0,22,23
 148.8359375 506.306640625 148.8359375 506.306640625 138.795898438 526.677734375 c 128,-1,24
 128.754882812 547.047851562 128.754882812 547.047851562 128.754882812 572.475585938 c 0,25,26
 128.754882812 584.390625 128.754882812 584.390625 131.336914062 595.361328125 c 128,-1,4
 133.91796875 606.33203125 133.91796875 606.33203125 139.075195312 616.302734375 c 128,-1,5
211.679728103 136.327148438 m 128,-1,28
 217.73234728 152.278320312 217.73234728 152.278320312 229.752983513 166.068359375 c 0,29,30
 245.599062618 184.456054688 245.599062618 184.456054688 267.096155653 193.728515625 c 128,-1,31
 288.593248688 203 288.593248688 203 315.221511298 203 c 0,32,33
 355.64603537 203 355.64603537 203 386.261809974 180.5078125 c 0,34,35
 426.754882812 150.760742188 426.754882812 150.760742188 426.754882812 100.524414062 c 0,36,37
 426.754882812 64.62890625 426.754882812 64.62890625 403.649414062 36.953125 c 0,38,39
 371.994630684 0 371.994630684 0 316.265277219 0 c 0,40,41
 303.211068091 0 303.211068091 0 291.174123015 2.4501953125 c 128,-1,42
 279.138197242 4.8408203125 279.138197242 4.8408203125 268.140940876 9.630859375 c 128,-1,43
 257.144703813 14.421875 257.144703813 14.421875 247.289066423 21.5869140625 c 0,44,45
 226.564604802 36.880859375 226.564604802 36.880859375 216.095347213 57.2255859375 c 128,-1,46
 205.626089624 77.5693359375 205.626089624 77.5693359375 205.626089624 102.505859375 c 0,47,27
 205.626089624 120.375976562 205.626089624 120.375976562 211.679728103 136.327148438 c 128,-1,28
194.451474596 589.256835938 m 128,-1,49
 191.013366734 582.432617188 191.013366734 582.432617188 191.013366734 574.44140625 c 0,50,51
 191.013366734 568.750976562 191.013366734 568.750976562 192.498490705 563.671875 c 128,-1,52
 193.983614676 558.592773438 193.983614676 558.592773438 197.000750541 554.01171875 c 128,-1,53
 200.016867102 549.430664062 200.016867102 549.430664062 204.620037901 545.27734375 c 0,54,55
 211.511543165 539.05859375 211.511543165 539.05859375 219.498798785 536.029296875 c 128,-1,56
 227.487073707 533 227.487073707 533 236.939067245 533 c 128,-1,57
 246.422659165 533 246.422659165 533 254.430300838 535.931640625 c 128,-1,58
 262.436923208 538.864257812 262.436923208 538.864257812 269.324351261 544.864257812 c 128,-1,59
 276.182219537 550.83984375 276.182219537 550.83984375 279.523493647 557.909179688 c 128,-1,60
 282.864767756 564.979492188 282.864767756 564.979492188 282.864767756 573.5 c 0,61,62
 282.864767756 590.38671875 282.864767756 590.38671875 269.780998851 602.193359375 c 128,-1,63
 256.697229947 614 256.697229947 614 237.982833166 614 c 0,64,65
 228.490067521 614 228.490067521 614 220.330549753 611.0546875 c 128,-1,66
 212.171031984 608.109375 212.171031984 608.109375 205.012469424 602.080078125 c 128,-1,48
 197.889582457 596.081054688 197.889582457 596.081054688 194.451474596 589.256835938 c 128,-1,49
284.924778426 130.135742188 m 128,-1,68
 271.383342628 118.337890625 271.383342628 118.337890625 271.383342628 102.44140625 c 0,69,70
 271.383342628 85.5556640625 271.383342628 85.5556640625 284.990013796 73.27734375 c 128,-1,71
 298.595665661 61 298.595665661 61 317.309043139 61 c 128,-1,72
 336.076443659 61 336.076443659 61 349.694327156 72.8642578125 c 128,-1,73
 363.234743651 84.662109375 363.234743651 84.662109375 363.234743651 100.55859375 c 0,74,75
 363.234743651 117.444335938 363.234743651 117.444335938 349.629091786 129.72265625 c 128,-1,76
 336.023439921 142 336.023439921 142 317.309043139 142 c 128,-1,67
 298.542661922 142 298.542661922 142 284.924778426 130.135742188 c 128,-1,68
EndSplineSet
EndChar
StartChar: apostrophe
Encoding: 39 39 235
Width: 60
GlyphClass: 2
Flags: W
LayerCount: 2
Back
Fore
SplineSet
13 527 m 1
 164 527 l 1
 164 344 l 1
 13 344 l 1
 13 527 l 1
EndSplineSet
EndChar
StartChar: bracket1
Encoding: 41 41 212
Width: 261
GlyphClass: 2
Flags: W
LayerCount: 2
Back
Fore
SplineSet
240.998887638 247.894536359 m 0
 235.944737385 9.33864442952 235.944737385 9.33864442952 39.8416373561 -126.114012292 c 2
 32 -131.530400981 l 1
 32 -99.1652452761 l 1
 33.1867328282 -97.7659632846 l 2
 99.3998995443 -19.6937219328 99.3998995443 -19.6937219328 122.128044022 79.1242975335 c 0
 129.540594136 111.24534803 129.540594136 111.24534803 133.521548104 155.776238326 c 0
 137.502502072 200.307128622 137.502502072 200.307128622 138.00020849 257.045660196 c 0
 139.983747626 474.243195607 139.983747626 474.243195607 32.1212014414 606.844857889 c 2
 31 608.223215624 l 1
 31 636.507540581 l 1
 38.8334969226 631.119623185 l 2
 246.055542119 488.59128966 246.055542119 488.59128966 240.998887638 247.894536359 c 0
EndSplineSet
EndChar
StartChar: dot
Encoding: 46 46 213
Width: 208
GlyphClass: 2
Flags: W
LayerCount: 2
Back
Fore
SplineSet
44.8789883275 86.83236068 m 0
 63.4143995126 113 63.4143995126 113 98 113 c 0
 105.125661824 113 105.125661824 113 111.676802619 111.810946107 c 0
 118.227943415 110.621892213 118.227943415 110.621892213 124.28974443 108.198390354 c 0
 130.351545445 105.774888496 130.351545445 105.774888496 135.83236068 102.121011672 c 0
 148.848250129 92.9014233128 148.848250129 92.9014233128 155.424125064 79.7539560907 c 0
 162 66.6064888686 162 66.6064888686 162 50 c 0
 162 39.777201424 162 39.777201424 159.289552279 30.5659900362 c 0
 156.579104558 21.3547786484 156.579104558 21.3547786484 151.121011672 13.16763932 c 0
 132.585600487 -13 132.585600487 -13 98 -13 c 0
 76.4861218113 -13 76.4861218113 -13 60.16763932 -2.12101167246 c 0
 47.1517498711 7.09857668721 47.1517498711 7.09857668721 40.5758749355 20.2460439093 c 0
 34 33.3935111314 34 33.3935111314 34 50 c 0
 34 70.5138781887 34 70.5138781887 44.8789883275 86.83236068 c 0
EndSplineSet
EndChar
StartChar: 0
Encoding: 48 48 218
Width: 474
GlyphClass: 2
Flags: W
LayerCount: 2
Back
Fore
SplineSet
270.896578881 47.2119140625 m 0,0,1
 281.824502268 58.189453125 281.824502268 58.189453125 295.287928427 91.56640625 c 0,2,3
 306.206495716 119.810546875 306.206495716 119.810546875 312.030273438 166.12109375 c 0,4,5
 317.50390625 212.431640625 317.50390625 212.431640625 318 276.177734375 c 0,6,7
 318.497070312 324.42578125 318.497070312 324.42578125 315.391601562 362.90234375 c 128,-1,8
 312.28515625 401.37890625 312.28515625 401.37890625 305.214749244 429.907226562 c 0,9,10
 291.067288306 486.837890625 291.067288306 486.837890625 274.600554435 509.108398438 c 0,11,12
 259.152595766 530 259.152595766 530 230.032258065 530 c 0,13,14
 223.949754284 530 223.949754284 530 218.460842994 529.026367188 c 128,-1,15
 212.971931704 528.051757812 212.971931704 528.051757812 207.970577117 526.072265625 c 128,-1,16
 202.970262097 524.091796875 202.970262097 524.091796875 198.480374244 521.079101562 c 128,-1,17
 193.991525958 518.065429688 193.991525958 518.065429688 189.959047379 513.998046875 c 128,-1,18
 185.9265688 509.930664062 185.9265688 509.930664062 182.324470766 504.770507812 c 0,19,20
 165.807837702 481.958984375 165.807837702 481.958984375 151.117723034 423.020507812 c 0,21,22
 136 360.838867188 136 360.838867188 136 268.287109375 c 0,23,24
 136 181.663085938 136 181.663085938 151.087575605 124.447265625 c 0,25,26
 158.387411794 99.00390625 158.387411794 99.00390625 166.367124496 81.1865234375 c 128,-1,27
 174.347876764 63.369140625 174.347876764 63.369140625 182.588520665 53.7109375 c 0,28,29
 198.555223034 35 198.555223034 35 231.096774194 35 c 0,30,31
 257.633789062 35 257.633789062 35 270.896578881 47.2119140625 c 0,0,1
232.106193296 565 m 0,32,33
 335.9921875 566.013671875 335.9921875 566.013671875 390.416015625 465.1015625 c 0,34,35
 432 388.352539062 432 388.352539062 432 282.95703125 c 0,36,37
 432 198.55078125 432 198.55078125 406.684570312 130.881835938 c 0,38,39
 355.470703125 -4 355.470703125 -4 226.838709677 -4 c 0,40,41
 136.435546875 -4 136.435546875 -4 83.9560546875 67.796875 c 0,42,43
 27 144.759765625 27 144.759765625 27 280.991210938 c 0,44,45
 27 386.306640625 27 386.306640625 64.5283203125 461.0625 c 0,46,47
 81.8759765625 495.16015625 81.8759765625 495.16015625 105.784179688 518.162109375 c 128,-1,48
 129.69140625 541.163085938 129.69140625 541.163085938 160.890688004 552.9140625 c 0,49,50
 193.206653226 564.6640625 193.206653226 564.6640625 232.106193296 565 c 0,32,33
EndSplineSet
EndChar
StartChar: 2
Encoding: 50 50 220
Width: 467
GlyphClass: 2
Flags: W
LayerCount: 2
Back
Fore
SplineSet
28 15.689453125 m 1,0,-1
 29.4306640625 17.1181640625 l 2,1,2
 187.467089469 172.40234375 187.467089469 172.40234375 233.001953675 242.420898438 c 0,3,4
 271.692218027 301 271.692218027 301 271.692218027 354.46875 c 0,5,6
 271.692218027 405.362304688 271.692218027 405.362304688 236.945434528 438.2109375 c 128,-1,7
 202.261130261 471 202.261130261 471 156.530497795 471 c 0,8,9
 151.277035713 471 151.277035713 471 146.358398438 470.592773438 c 0,10,11
 141.643554688 470.186523438 141.643554688 470.186523438 137.142578125 469.375 c 128,-1,12
 132.641601562 468.5625 132.641601562 468.5625 128.34375 467.34375 c 128,-1,13
 124.045898438 466.124023438 124.045898438 466.124023438 119.955078125 464.502929688 c 128,-1,14
 115.865234375 462.881835938 115.865234375 462.881835938 111.966796875 460.852539062 c 128,-1,15
 108.069335938 458.823242188 108.069335938 458.823242188 104.374023438 456.39453125 c 128,-1,16
 100.677734375 453.965820312 100.677734375 453.965820312 97.1650390625 451.12890625 c 0,17,18
 91.6689453125 446.581054688 91.6689453125 446.581054688 86.9296875 441.278320312 c 128,-1,19
 82.19140625 435.974609375 82.19140625 435.974609375 78.177734375 429.864257812 c 128,-1,20
 74.1650390625 423.75390625 74.1650390625 423.75390625 70.9130859375 416.864257812 c 128,-1,21
 67.6611328125 409.975585938 67.6611328125 409.975585938 65.15234375 402.25 c 128,-1,22
 62.642578125 394.525390625 62.642578125 394.525390625 60.8984375 385.998046875 c 2,23,-1
 59.91796875 381.206054688 l 1,24,-1
 28.08203125 386.994140625 l 1,25,-1
 29.1005859375 391.997070312 l 2,26,27
 63.9150390625 563 63.9150390625 563 215.177670136 563 c 0,28,29
 229.804058323 563 229.804058323 563 243.497423313 561.309570312 c 128,-1,30
 257.191829625 559.653320312 257.191829625 559.653320312 269.949047457 556.3359375 c 128,-1,31
 282.70626529 553.018554688 282.70626529 553.018554688 294.485683144 548.049804688 c 128,-1,32
 306.265100997 543.081054688 306.265100997 543.081054688 316.564453125 536.44140625 c 128,-1,33
 326.705078125 529.801757812 326.705078125 529.801757812 335.887695312 521.516601562 c 0,34,35
 382 479.908203125 382 479.908203125 382 412.14453125 c 0,36,37
 382 344.923828125 382 344.923828125 334.030273438 280.951171875 c 0,38,39
 286.954853059 219.984375 286.954853059 219.984375 142.115234375 87 c 1,40,-1
 315 87 l 2,41,42
 333.881835938 87 333.881835938 87 347.982421875 90.1083984375 c 128,-1,43
 362.083007812 93.216796875 362.083007812 93.216796875 371.275390625 99.1923828125 c 0,44,-1
 371.51953125 99.3408203125 l 2,45,46
 378.249023438 103.186523438 378.249023438 103.186523438 384 107.5 c 0,47,48
 389.314453125 111.486328125 389.314453125 111.486328125 398.83984375 125.7734375 c 2,49,-1
 400.8203125 128.744140625 l 1,50,-1
 428.801757812 121.379882812 l 1,51,-1
 378.346679688 -1 l 1,52,-1
 28 -1 l 1,53,-1
 28 15.689453125 l 1,0,-1
EndSplineSet
EndChar
StartChar: 3
Encoding: 51 51 221
Width: 421
GlyphClass: 2
Flags: W
LayerCount: 2
Back
Fore
SplineSet
156.737031482 44.927734375 m 0,0,1
 172.577994428 40 172.577994428 40 185.332902316 40 c 0,2,3
 254.97716566 40 254.97716566 40 276.431640625 68.7626953125 c 0,4,5
 297.965820312 98.2509765625 297.965820312 98.2509765625 297.001953125 142.564453125 c 0,6,7
 295.0703125 196.400390625 295.0703125 196.400390625 263.418945312 228.297851562 c 0,8,9
 223.771337213 264.850585938 223.771337213 264.850585938 170.740086725 270.8359375 c 1,10,-1
 138.271484375 270.8359375 l 2,11,12
 136.18359375 270.486328125 136.18359375 270.486328125 126.212890625 268.047851562 c 2,13,-1
 120.282226562 266.59765625 l 1,14,-1
 118.8359375 297.728515625 l 1,15,-1
 122.353515625 298.928710938 l 2,16,17
 136.596679688 303.788085938 136.596679688 303.788085938 147.860351562 307.715820312 c 0,18,19
 160.215545243 311.64453125 160.215545243 311.64453125 169.055516713 314.556640625 c 128,-1,20
 177.895488183 317.46875 177.895488183 317.46875 183.244078393 319.374023438 c 0,21,22
 197.076639281 324.586914062 197.076639281 324.586914062 208.526568364 330.755859375 c 128,-1,23
 219.977569738 336.923828125 219.977569738 336.923828125 228.921553487 343.954101562 c 0,24,25
 254.750912144 364.201171875 254.750912144 364.201171875 258.924270825 401.377929688 c 0,26,27
 261.836914062 433.504882812 261.836914062 433.504882812 232.827911574 463.21875 c 0,28,29
 221.050933571 475.078125 221.050933571 475.078125 203.807413289 481.0390625 c 128,-1,30
 186.563893006 487 186.563893006 487 163.372371542 487 c 0,31,32
 121.708984375 487 121.708984375 487 92.0302734375 464.0234375 c 0,33,34
 73.0556640625 449.791992188 73.0556640625 449.791992188 56.5830078125 412.001953125 c 2,35,-1
 54.5712890625 407.385742188 l 1,36,-1
 28.0849609375 419.157226562 l 1,37,-1
 29.1640625 423.268554688 l 2,38,39
 45.5703125 485.819335938 45.5703125 485.819335938 91.3037109375 523.844726562 c 128,-1,40
 137.158203125 561.971679688 137.158203125 561.971679688 207.193709978 562.999023438 c 0,41,42
 268.700195312 564.013671875 268.700195312 564.013671875 308.604492188 532.944335938 c 0,43,44
 349 501.493164062 349 501.493164062 349 446.044921875 c 0,45,46
 349 405.903320312 349 405.903320312 318.795898438 371.100585938 c 0,47,48
 310.677734375 361.791992188 310.677734375 361.791992188 298.409179688 350.99609375 c 128,-1,49
 286.141601562 340.19921875 286.141601562 340.19921875 270.303710938 328.318359375 c 1,50,51
 312.973632812 316.477539062 312.973632812 316.477539062 332.454101562 298.243164062 c 0,52,53
 355.6640625 276.446289062 355.6640625 276.446289062 367.575195312 248.70703125 c 128,-1,54
 379.485351562 220.967773438 379.485351562 220.967773438 380 187.616210938 c 0,55,56
 381.028320312 93.625 381.028320312 93.625 301.891601562 39.080078125 c 0,57,58
 231.017883451 -9 231.017883451 -9 125 -9 c 0,59,60
 74.515625 -9 74.515625 -9 51.771484375 5.8095703125 c 0,61,62
 28 21.2890625 28 21.2890625 28 43 c 0,63,64
 28 48.26953125 28 48.26953125 29.705078125 53.669921875 c 128,-1,65
 31.41015625 59.0693359375 31.41015625 59.0693359375 34.712890625 64.572265625 c 0,66,-1
 35.46484375 65.53515625 l 2,67,68
 50.9287109375 81 50.9287109375 81 68 81 c 0,69,70
 88.3564453125 81 88.3564453125 81 124.52734375 59.814453125 c 0,71,72
 141.530273438 49.85546875 141.530273438 49.85546875 156.737031482 44.927734375 c 0,0,1
EndSplineSet
EndChar
StartChar: 4
Encoding: 52 52 222
Width: 481
GlyphClass: 2
Flags: W
LayerCount: 2
Back
Fore
SplineSet
245.792682927 195 m 1,0,-1
 245.792682927 412.8984375 l 1,1,-1
 77.94921875 195 l 1,2,-1
 245.792682927 195 l 1,0,-1
25 192.93359375 m 1,3,-1
 304.626059928 561 l 1,4,-1
 353 561 l 1,5,-1
 353 195 l 1,6,-1
 439 195 l 1,7,-1
 439 134 l 1,8,-1
 353 134 l 1,9,-1
 353 -1 l 1,10,-1
 245.792682927 -1 l 1,11,-1
 245.792682927 134 l 1,12,-1
 25 134 l 1,13,-1
 25 192.93359375 l 1,3,-1
EndSplineSet
EndChar
StartChar: 6
Encoding: 54 54 224
Width: 451
GlyphClass: 2
Flags: W
LayerCount: 2
Back
Fore
SplineSet
362.7890625 51.916015625 m 0,0,1
 311.31640625 -8 311.31640625 -8 230.606060606 -8 c 0,2,3
 151.845688329 -8 151.845688329 -8 91.2978515625 57.48828125 c 0,4,5
 31 122.770507812 31 122.770507812 31 234.734375 c 0,6,7
 31 258.82421875 31 258.82421875 34.2275390625 281.623046875 c 128,-1,8
 37.455078125 304.421875 37.455078125 304.421875 43.900390625 325.891601562 c 128,-1,9
 50.3447265625 347.361328125 50.3447265625 347.361328125 60.0048828125 367.514648438 c 128,-1,10
 69.6650390625 387.66796875 69.6650390625 387.66796875 82.5263671875 406.473632812 c 128,-1,11
 95.388671875 425.279296875 95.388671875 425.279296875 111.453125 442.743164062 c 128,-1,12
 127.517578125 460.20703125 127.517578125 460.20703125 146.768554688 476.303710938 c 0,13,14
 253.340894295 559.006835938 253.340894295 559.006835938 387.922851562 560.999023438 c 2,15,-1
 391.934570312 561.061523438 l 1,16,-1
 399.1171875 531.616210938 l 1,17,-1
 393.771484375 530.801757812 l 2,18,19
 362.360351562 526.010742188 362.360351562 526.010742188 304.5625 511.455078125 c 0,20,21
 293.521484375 507.14453125 293.521484375 507.14453125 281.676180753 501.208984375 c 128,-1,22
 269.791370739 495.272460938 269.791370739 495.272460938 258.072546757 487.770507812 c 128,-1,23
 246.35267223 480.268554688 246.35267223 480.268554688 235.241062973 471.446289062 c 0,24,25
 226.685428504 464.59765625 226.685428504 464.59765625 213.007339015 447.81640625 c 128,-1,26
 199.329249527 431.036132812 199.329249527 431.036132812 181.389100971 405.18359375 c 0,27,28
 175.752929688 396.814453125 175.752929688 396.814453125 171.607481061 387.060546875 c 128,-1,29
 167.463082978 377.305664062 167.463082978 377.305664062 164.8671875 366.233398438 c 0,30,31
 161.050559304 349.672851562 161.050559304 349.672851562 157.592166785 333.50390625 c 1,32,33
 200.337772254 357 200.337772254 357 253.196969697 357 c 0,34,35
 292.953776042 357 292.953776042 357 322.311523438 344.1875 c 128,-1,36
 351.666015625 331.375 351.666015625 331.375 372.83984375 305.90234375 c 0,37,38
 392.922851562 282.53515625 392.922851562 282.53515625 402.961914062 252.0625 c 128,-1,39
 413 221.590820312 413 221.590820312 413 184.365234375 c 0,40,41
 413 108.525390625 413 108.525390625 362.7890625 51.916015625 c 0,0,1
305.545898438 208.091796875 m 128,-1,43
 302.611328125 230.186523438 302.611328125 230.186523438 295.310546875 249.3125 c 0,44,45
 272.025878906 308 272.025878906 308 214.46969697 308 c 0,46,47
 185.761467211 308 185.761467211 308 163.474165483 259.889648438 c 0,48,49
 158.953672467 250.2578125 158.953672467 250.2578125 156.039462003 233.344726562 c 128,-1,50
 153.125251539 216.431640625 153.125251539 216.431640625 152.071555398 192.8671875 c 0,51,52
 150.032226562 141.721679688 150.032226562 141.721679688 166.824351918 97.4384765625 c 0,53,54
 176.30131392 73.7177734375 176.30131392 73.7177734375 187.350941051 58.103515625 c 128,-1,55
 198.401618726 42.4892578125 198.401618726 42.4892578125 210.167717211 35.2451171875 c 128,-1,56
 221.934866241 28 221.934866241 28 234.909090909 28 c 0,57,58
 256.22989169 28 256.22989169 28 268.579042377 40.1455078125 c 0,59,60
 270.42800071 42.044921875 270.42800071 42.044921875 272.681418679 45.1025390625 c 128,-1,61
 274.933786103 48.16015625 274.933786103 48.16015625 277.527580492 52.287109375 c 128,-1,62
 280.121374882 56.4140625 280.121374882 56.4140625 283.087062027 61.7451171875 c 128,-1,63
 286.053799716 67.0751953125 286.053799716 67.0751953125 289.179169626 73.2607421875 c 0,64,65
 296.693359375 88.9208984375 296.693359375 88.9208984375 301.110351562 110.858398438 c 128,-1,66
 305.528320312 132.795898438 305.528320312 132.795898438 307.0078125 160.9140625 c 0,67,42
 308.481445312 185.997070312 308.481445312 185.997070312 305.545898438 208.091796875 c 128,-1,43
EndSplineSet
EndChar
StartChar: 8
Encoding: 56 56 226
Width: 419
GlyphClass: 2
Flags: W
LayerCount: 2
Back
Fore
SplineSet
207.347819308 23 m 0,0,1
 257.946092889 23 257.946092889 23 283.600585938 46.666015625 c 0,2,3
 296.661132812 58.7939453125 296.661132812 58.7939453125 300.22265625 69.478515625 c 0,4,5
 301 72.2001953125 301 72.2001953125 301.767578125 79.8095703125 c 128,-1,6
 302.53515625 87.41796875 302.53515625 87.41796875 303.002929688 98.181640625 c 0,7,8
 303.942382812 130.111328125 303.942382812 130.111328125 270.314453125 166.62109375 c 0,9,10
 248.320336393 189.565429688 248.320336393 189.565429688 220.203983547 211.353515625 c 128,-1,11
 192.087630701 233.140625 192.087630701 233.140625 160.407097086 252.770507812 c 1,12,13
 154.496846108 248.349609375 154.496846108 248.349609375 150.22219028 245.110351562 c 128,-1,14
 146.129882812 241.870117188 146.129882812 241.870117188 143.270507812 239.424804688 c 128,-1,15
 140.412109375 236.978515625 140.412109375 236.978515625 138.576171875 235.323242188 c 128,-1,16
 136.739257812 233.66796875 136.739257812 233.66796875 135.536132812 232.46484375 c 0,17,18
 121.970703125 218.899414062 121.970703125 218.899414062 113.305664062 204.458007812 c 0,19,20
 104.66796875 189.581054688 104.66796875 189.581054688 100.333984375 172.724609375 c 128,-1,21
 96 155.868164062 96 155.868164062 96 137 c 0,22,23
 96 114.401367188 96 114.401367188 103.883789062 94.572265625 c 128,-1,24
 111.767578125 74.744140625 111.767578125 74.744140625 127.685546875 57.37890625 c 0,25,26
 160.310506821 23 160.310506821 23 207.347819308 23 c 0,0,1
219.469897535 332.95703125 m 1,27,28
 239.476961042 344.83984375 239.476961042 344.83984375 268.42578125 366.543945312 c 1,29,30
 280.9921875 382.735351562 280.9921875 382.735351562 287.255859375 400.575195312 c 128,-1,31
 293.520507812 418.415039062 293.520507812 418.415039062 294.002929688 439.173828125 c 0,32,33
 294.963867188 459.83984375 294.963867188 459.83984375 289.091796875 476.274414062 c 128,-1,34
 283.219726562 492.708984375 283.219726562 492.708984375 270.421875 505.5078125 c 0,35,36
 261.381835938 514.999023438 261.381835938 514.999023438 242.015138555 519.999023438 c 0,37,38
 222.412680935 525 222.412680935 525 193.061045925 525 c 0,39,40
 155.464895206 525 155.464895206 525 128.1875 503.147460938 c 0,41,42
 106 484.658203125 106 484.658203125 106 465 c 0,43,44
 106 434.950195312 106 434.950195312 150.961642418 386.37109375 c 0,45,46
 180.921796095 356.290039062 180.921796095 356.290039062 219.469897535 332.95703125 c 1,27,28
129.46484375 276.327148438 m 1,47,48
 96.6376953125 302.138671875 96.6376953125 302.138671875 64.2900390625 337.565429688 c 0,49,50
 48.6123046875 354.514648438 48.6123046875 354.514648438 40.8056640625 377.532226562 c 128,-1,51
 33 400.548828125 33 400.548828125 33 429.315429688 c 0,52,53
 33 492.854492188 33 492.854492188 88.16796875 529.684570312 c 0,54,55
 135.431640625 562 135.431640625 562 207.347819308 562 c 0,56,57
 239.970644617 562 239.970644617 562 267.243164062 554.388671875 c 0,58,59
 292.80078125 546.778320312 292.80078125 546.778320312 313.913085938 531.594726562 c 0,60,61
 338.266601562 514.7890625 338.266601562 514.7890625 350.633789062 491.770507812 c 128,-1,62
 363 468.751953125 363 468.751953125 363 440.126953125 c 0,63,64
 363 390.801757812 363 390.801757812 321.391601562 352.973632812 c 0,65,66
 297.051757812 330.891601562 297.051757812 330.891601562 254.87452247 307.826171875 c 1,67,68
 310.787109375 266.896484375 310.787109375 266.896484375 346.9140625 222.043945312 c 0,69,70
 379 182.370117188 379 182.370117188 379 130.530273438 c 0,71,72
 378.02734375 63.111328125 378.02734375 63.111328125 326.0078125 24.3876953125 c 0,73,74
 278.686523438 -11 278.686523438 -11 204.050871604 -11 c 0,75,76
 127.319335938 -11 127.319335938 -11 78.48046875 25.3798828125 c 0,77,78
 29.0400390625 62.2080078125 29.0400390625 62.2080078125 28.0009765625 125.51953125 c 0,79,80
 26.9638671875 177.51171875 26.9638671875 177.51171875 63.1875 219.216796875 c 0,81,82
 89.544921875 249.748046875 89.544921875 249.748046875 129.46484375 276.327148438 c 1,47,48
EndSplineSet
EndChar
StartChar: semicolon
Encoding: 59 59 238
Width: 202
GlyphClass: 2
Flags: W
LayerCount: 2
Back
Fore
SplineSet
37.4109373775 39.0143186483 m 0
 33 48.9389277478 33 48.9389277478 33 60 c 0
 33 86.6082449902 33 86.6082449902 56.6390920199 103.100634772 c 0
 79.7680096883 119.237088959 79.7680096883 119.237088959 108.770137091 114.940477492 c 0
 168 105.248318107 168 105.248318107 168 20 c 0
 168 18.0705889489 168 18.0705889489 167.950886061 16.1468880157 c 0
 167.901772122 14.2231870825 167.901772122 14.2231870825 167.80399436 12.3141001891 c 0
 167.706216597 10.4050132958 167.706216597 10.4050132958 167.55982094 8.50663752307 c 0
 167.413425283 6.60826175033 167.413425283 6.60826175033 167.219047151 4.72874297999 c 0
 167.024669019 2.84922420964 167.024669019 2.84922420964 166.782156684 0.98546809867 c 0
 166.539644349 -0.878288012304 166.539644349 -0.878288012304 166.249830888 -2.71894415838 c 0
 165.960017427 -4.55960030446 165.960017427 -4.55960030446 165.622553453 -6.37944225238 c 0
 165.28508948 -8.19928420031 165.28508948 -8.19928420031 164.900993376 -9.99173268483 c 0
 160.702200991 -32.0353927054 160.702200991 -32.0353927054 136.03081039 -65.9585547815 c 0
 115.703734497 -93.4001072371 115.703734497 -93.4001072371 98.3081081854 -108.749189277 c 2
 96.5440217977 -110.30573609 l 1
 46.5214905121 -102.407441676 l 1
 53.4644660941 -95.4644660941 l 2
 96 -52.9289321881 96 -52.9289321881 96 -21 c 0
 96 -10.4068286862 96 -10.4068286862 91.2335908317 -2.60725004727 c 0
 86.6971696204 4.81598466216 86.6971696204 4.81598466216 68.4545696383 10.7448296563 c 0
 46.2793805518 17.9517661095 46.2793805518 17.9517661095 37.4109373775 39.0143186483 c 0
103 295 m 0
 108.363154372 295 108.363154372 295 113.451405987 294.233440991 c 0
 118.539657601 293.466881982 118.539657601 293.466881982 123.319610577 291.939157069 c 0
 128.099563553 290.411432157 128.099563553 290.411432157 132.55933731 288.13461671 c 0
 137.019111067 285.857801263 137.019111067 285.857801263 141.146403907 282.827586164 c 0
 145.273696747 279.797371065 145.273696747 279.797371065 149.035533906 276.035533906 c 0
 158.430690951 266.640376861 158.430690951 266.640376861 163.215345475 255.293814311 c 0
 168 243.947251761 168 243.947251761 168 231 c 0
 168 218.028003509 168 218.028003509 163.072462045 206.667120351 c 0
 158.14492409 195.306237193 158.14492409 195.306237193 148.485391966 185.915025406 c 0
 129.029937263 167 129.029937263 167 103 167 c 0
 76.9700627368 167 76.9700627368 167 57.5146080335 185.915025406 c 0
 47.8388350656 195.322026903 47.8388350656 195.322026903 42.9194175328 206.937337913 c 0
 38 218.552648924 38 218.552648924 38 232 c 0
 38 258.155232446 38 258.155232446 57.5668823352 276.635065763 c 0
 77.0121068217 295 77.0121068217 295 103 295 c 0
EndSplineSet
EndChar
StartChar: roman_I
Encoding: 73 73 246
Width: 311
GlyphClass: 2
Flags: W
LayerCount: 2
Back
Fore
SplineSet
266.442382812 34.36328125 m 2,0,-1
 271 33.96484375 l 1,1,-1
 271 -1 l 1,2,-1
 37 -1 l 1,3,-1
 37 35 l 1,4,-1
 42 35 l 2,5,6
 72.6572265625 35 72.6572265625 35 90.51953125 45.15234375 c 0,7,8
 93.2431640625 46.6806640625 93.2431640625 46.6806640625 95.3203125 49.0546875 c 128,-1,9
 97.3974609375 51.4296875 97.3974609375 51.4296875 98.9140625 54.8359375 c 128,-1,10
 100.430664062 58.2431640625 100.430664062 58.2431640625 101.21484375 62.884765625 c 128,-1,11
 102 67.5263671875 102 67.5263671875 102 73.287109375 c 2,12,-1
 102 535.676757812 l 2,13,14
 102 541.158203125 102 541.158203125 101.494140625 545.766601562 c 128,-1,15
 100.98828125 550.374023438 100.98828125 550.374023438 100.108398438 553.724609375 c 128,-1,16
 99.2275390625 557.075195312 99.2275390625 557.075195312 97.974609375 559.630859375 c 128,-1,17
 96.720703125 562.186523438 96.720703125 562.186523438 95.2919921875 563.75390625 c 128,-1,18
 93.8623046875 565.3203125 93.8623046875 565.3203125 92.193359375 566.172851562 c 0,19,20
 86.681640625 568.986328125 86.681640625 568.986328125 78.072265625 570.493164062 c 128,-1,21
 69.462890625 572 69.462890625 572 58 572 c 2,22,-1
 37 572 l 1,23,-1
 37 612 l 1,24,-1
 271 612 l 1,25,-1
 271 572 l 1,26,-1
 238 572 l 2,27,28
 221.576171875 572 221.576171875 572 212.8671875 566.008789062 c 0,29,30
 205 560.595703125 205 560.595703125 205 535.634765625 c 2,31,-1
 205 70.748046875 l 2,32,33
 205 43.892578125 205 43.892578125 217.491210938 40.0556640625 c 2,34,-1
 217.676757812 39.9990234375 l 2,35,36
 222.174804688 38.23046875 222.174804688 38.23046875 266.442382812 34.36328125 c 2,0,-1
EndSplineSet
EndChar
StartChar: roman_v
Encoding: 118 118 244
Width: 490
GlyphClass: 2
Flags: W
LayerCount: 2
Back
Fore
SplineSet
450 378 m 2,0,1
 407.501953125 378 407.501953125 378 384.696289062 316.879882812 c 2,2,-1
 258.490006956 -5 l 1,3,-1
 222.195272367 -5 l 1,4,-1
 85.326171875 339.930664062 l 2,5,6
 76.8017578125 362.129882812 76.8017578125 362.129882812 67.876953125 369.102539062 c 0,7,-1
 67.46484375 369.462890625 l 2,8,9
 62.494140625 374.31640625 62.494140625 374.31640625 36.9150390625 379.8671875 c 2,10,-1
 33 380.716796875 l 1,11,-1
 33 411 l 1,12,-1
 217 411 l 1,13,-1
 217 379 l 1,14,-1
 212 379 l 2,15,16
 191.78515625 379 191.78515625 379 187.666015625 375.629882812 c 0,17,18
 183.334960938 372.0859375 183.334960938 372.0859375 179.802734375 360.606445312 c 0,19,20
 178.694335938 356.54296875 178.694335938 356.54296875 180.364257812 347.157226562 c 128,-1,21
 182.034179688 337.770507812 182.034179688 337.770507812 186.696289062 324.716796875 c 2,22,-1
 268.211017765 123.168945312 l 1,23,-1
 345.318359375 315.755859375 l 2,24,25
 351 330.90625 351 330.90625 351 343 c 0,26,27
 351 366.168945312 351 366.168945312 343.427734375 370.712890625 c 0,28,29
 329.526367188 379.052734375 329.526367188 379.052734375 304.807617188 380.00390625 c 2,30,-1
 300 380.188476562 l 1,31,-1
 300 411 l 1,32,-1
 455 411 l 1,33,-1
 455 378 l 1,34,-1
 450 378 l 2,0,1
EndSplineSet
EndChar
StartChar: unknown_al
Encoding: 182 182 250
Width: 249
GlyphClass: 2
Flags: W
LayerCount: 2
Back
Fore
SplineSet
65 -5 m 1
 28 -5 l 1
 28 269 l 2
 28 278.953735385 28 278.953735385 28.5319642379 288.216441286 c 0
 32.2552039255 353.046502722 32.2552039255 353.046502722 62.7049108011 384.712773989 c 0
 93.1546176767 416.379045256 93.1546176767 416.379045256 149.318500771 412.989845414 c 0
 199.445245996 409.790265932 199.445245996 409.790265932 220.622372448 357.906306125 c 0
 226 345 226 345 226 325 c 0
 226 290.423888846 226 290.423888846 211.096159603 269.132688278 c 0
 188.603277808 237 188.603277808 237 131 237 c 0
 111.318458308 237 111.318458308 237 92.6617806811 242.182410452 c 2
 89 243.199571752 l 1
 89 274.399386466 l 1
 94.3834824944 273.985272428 l 2
 142.173399215 270.309124987 142.173399215 270.309124987 150.138264064 302.168584383 c 0
 152.700906458 313.273368089 152.700906458 313.273368089 144.610522135 328.105739347 c 0
 137.031834506 342 137.031834506 342 119 342 c 0
 65 342 65 342 65 268 c 2
 65 -5 l 1
EndSplineSet
EndChar
StartChar: multiply
Encoding: 215 215 239
Width: 508
GlyphClass: 2
Flags: W
LayerCount: 2
Back
Fore
SplineSet
55.9755859375 326.287109375 m 1,0,-1
 98.162109375 368.561523438 l 1,1,-1
 241.188754029 232.033203125 l 1,2,-1
 388.048828125 365.177734375 l 1,3,-1
 431.405273438 325.43359375 l 1,4,-1
 285.245064173 188.048828125 l 1,5,-1
 436.44921875 49.615234375 l 1,6,-1
 391.018554688 7.771484375 l 1,7,-1
 240.022850014 147.9765625 l 1,8,-1
 88.1640625 6.5927734375 l 1,9,-1
 47 46.546875 l 1,10,-1
 201.254971636 193.921875 l 1,11,-1
 55.9755859375 326.287109375 l 1,0,-1
EndSplineSet
EndChar
StartChar: divide
Encoding: 247 247 241
Width: 468
GlyphClass: 2
Flags: W
LayerCount: 2
Back
Fore
SplineSet
395 177 m 1,0,-1
 50 177 l 1,1,-1
 50 239 l 1,2,-1
 395 239 l 1,3,-1
 395 177 l 1,0,-1
206.303145559 357.725585938 m 128,-1,5
 214.799856086 361 214.799856086 361 224.157894737 361 c 0,6,7
 244.05910773 361 244.05910773 361 258.372481497 348.61328125 c 128,-1,8
 272.789473684 336.13671875 272.789473684 336.13671875 272.789473684 318 c 0,9,10
 272.789473684 300.994140625 272.789473684 300.994140625 259.098889803 288.043945312 c 128,-1,11
 245.309004934 275 245.309004934 275 225.263157895 275 c 0,12,13
 205.428865132 275 205.428865132 275 190.581208882 287.314453125 c 0,14,15
 175.526315789 299.80078125 175.526315789 299.80078125 175.526315789 317 c 0,16,17
 175.526315789 325.975585938 175.526315789 325.975585938 179.321340461 333.845703125 c 128,-1,18
 183.11744449 341.715820312 183.11744449 341.715820312 190.491622122 348.110351562 c 128,-1,4
 197.805355674 354.451171875 197.805355674 354.451171875 206.303145559 357.725585938 c 128,-1,5
190.491622122 130.110351562 m 128,-1,20
 205.358706826 143 205.358706826 143 224.157894737 143 c 0,21,22
 244.05910773 143 244.05910773 143 258.372481497 130.61328125 c 128,-1,23
 272.789473684 118.13671875 272.789473684 118.13671875 272.789473684 100 c 0,24,25
 272.789473684 91.5615234375 272.789473684 91.5615234375 269.31717722 83.9931640625 c 128,-1,26
 265.844880757 76.42578125 265.844880757 76.42578125 259.098889803 70.0439453125 c 0,27,28
 245.309004934 57 245.309004934 57 225.263157895 57 c 0,29,30
 205.428865132 57 205.428865132 57 190.581208882 69.314453125 c 0,31,32
 175.526315789 81.80078125 175.526315789 81.80078125 175.526315789 99 c 0,33,19
 175.526315789 117.133789062 175.526315789 117.133789062 190.491622122 130.110351562 c 128,-1,20
EndSplineSet
EndChar
StartChar: anusa
Encoding: 3458 3458 99
Width: 364
GlyphClass: 2
Flags: W
LayerCount: 2
Back
Fore
SplineSet
61.2553402654 259.31335017 m 0
 104.731158867 309 104.731158867 309 174 309 c 0
 228.831539257 309 228.831539257 309 269.241866917 274.806645827 c 0
 320 231.299674612 320 231.299674612 320 164 c 0
 320 110.168544469 320 110.168544469 285.801868391 69.7525707494 c 0
 243.304880876 20 243.304880876 20 175 20 c 0
 120.19666391 20 120.19666391 20 77.829602059 55.1336610475 c 0
 26 97.6339347359 26 97.6339347359 26 166 c 0
 26 219.910322814 26 219.910322814 61.2553402654 259.31335017 c 0
113.75151918 236.69437173 m 0
 95 215.130124673 95 215.130124673 95 186 c 0
 95 174.334746168 95 174.334746168 97.9010790096 164.032081531 c 0
 100.802158019 153.729416894 100.802158019 153.729416894 106.639042606 144.682298875 c 0
 112.475927194 135.635180855 112.475927194 135.635180855 121.30562827 127.75151918 c 0
 142.869875327 109 142.869875327 109 173 109 c 0
 209.761312722 109 209.761312722 109 233.2852311 135.346788584 c 0
 252 155.933034374 252 155.933034374 252 185 c 0
 252 202.983272951 252 202.983272951 245.23342548 217.679370715 c 0
 238.466850961 232.375468479 238.466850961 232.375468479 224.719106425 244.226972389 c 0
 213.881060074 253.651360521 213.881060074 253.651360521 201.02650381 258.32568026 c 0
 188.171947546 263 188.171947546 263 173 263 c 0
 137.238687278 263 137.238687278 263 113.75151918 236.69437173 c 0
EndSplineSet
EndChar
StartChar: v_aa
Encoding: 3462 3462 102
Width: 839
GlyphClass: 2
Flags: W
LayerCount: 2
Back
Fore
SplineSet
310.73464907 314 m 1
 307.048347164 365.351042834 307.048347164 365.351042834 266.145669998 381.356438247 c 0
 241.6526943 391.335057975 241.6526943 391.335057975 219.76903154 375.834130187 c 0
 218.816498907 375.076988863 218.816498907 375.076988863 215.599528067 371.823950704 c 0
 212.382557227 368.570912545 212.382557227 368.570912545 206.630276232 362.491910774 c 0
 200.877995238 356.412909002 200.877995238 356.412909002 193.719107662 348.657447462 c 0
 178.585553313 331.361956777 178.585553313 331.361956777 152.781900273 327.061347937 c 0
 130.247712428 323.68121976 130.247712428 323.68121976 116.464466094 337.464466094 c 0
 103 350.928932188 103 350.928932188 103 371 c 0
 103 385.456003436 103 385.456003436 110.835734294 397.769300183 c 0
 137.336101217 435.929828553 137.336101217 435.929828553 213.890087512 437.998855209 c 0
 275.07527882 439.03589235 275.07527882 439.03589235 313.625303223 399.443975396 c 0
 353.028916374 356.929550681 353.028916374 356.929550681 351.99945943 286.926478538 c 2
 351.927011216 282 l 1
 268 282 l 2
 255.475613499 282 255.475613499 282 244.250004261 279.77794365 c 0
 233.024395024 277.555887301 233.024395024 277.555887301 223.025096559 273.088389725 c 0
 213.025798095 268.620892149 213.025798095 268.620892149 204.24402399 261.925235784 c 0
 195.462249886 255.229579419 195.462249886 255.229579419 187.803433227 246.254403647 c 0
 157 210.156630334 157 210.156630334 157 160 c 0
 157 57.105405485 157 57.105405485 278.990692153 32.9009030736 c 0
 294.619153913 29.6832785937 294.619153913 29.6832785937 313.851225184 29.5636226606 c 0
 333.083296456 29.4439667275 333.083296456 29.4439667275 354 32.3358734036 c 1
 354 313 l 2
 354 370.827563487 354 370.827563487 382.216262148 404.269059366 c 0
 394.211170402 417.828520871 394.211170402 417.828520871 408.083730819 426.729128383 c 0
 421.956291236 435.629735895 421.956291236 435.629735895 437.711686747 439.831174698 c 2
 439.493588434 440.306348481 l 1
 475.047000851 423.302542542 l 1
 463.664100589 419.285048332 l 2
 456.331694617 416.697140342 456.331694617 416.697140342 453.165847308 412.785252993 c 0
 450 408.873365643 450 408.873365643 450 403 c 0
 450 399.351745707 450 399.351745707 452.818894504 394.519355128 c 0
 455.904972344 389.228935973 455.904972344 389.228935973 494.274652692 355.778445414 c 0
 525.705731556 328.538177065 525.705731556 328.538177065 529.952024477 296.69098016 c 0
 536.319502165 251.057390061 536.319502165 251.057390061 504.841339088 222.78039611 c 0
 489.401296623 208.910527455 489.401296623 208.910527455 470.110686383 201.955263727 c 0
 450.820076144 195 450.820076144 195 428 195 c 0
 423.683244024 195 423.683244024 195 419.211698066 195.299717189 c 0
 414.740152107 195.599434378 414.740152107 195.599434378 410.32954079 196.173390618 c 0
 405.918929473 196.747346858 405.918929473 196.747346858 401.58146911 197.562420041 c 0
 397.244008747 198.377493223 397.244008747 198.377493223 393 199.427885388 c 1
 393 34.9302511511 l 1
 410.810733309 38.1993487616 410.810733309 38.1993487616 427.1849672 42.9503944867 c 0
 443.559201091 47.7014402119 443.559201091 47.7014402119 461.171738138 54.6537574672 c 0
 488.639008603 65.4444708642 488.639008603 65.4444708642 520.167355886 87.120209621 c 2
 528 92.5051524497 l 1
 528 48.1690481052 l 1
 525.572478777 46.7125353714 l 2
 515.377994637 40.5958448873 515.377994637 40.5958448873 502.482213943 34.2744751711 c 0
 489.586433249 27.9531054548 489.586433249 27.9531054548 473.933633381 21.3890280909 c 0
 443.926819902 8.80552566421 443.926819902 8.80552566421 393 -2.05991347038 c 1
 393 -220 l 1
 354 -220 l 1
 354 -5.55817478125 l 1
 301.44213029 -10.8912527371 301.44213029 -10.8912527371 258.752830959 -8.99395054466 c 0
 34.1947853587 3.25467012446 34.1947853587 3.25467012446 28.0056593114 150.762174253 c 0
 23.8755523391 237.494420671 23.8755523391 237.494420671 88.0938090314 283.068667356 c 0
 109.853544744 298.611335722 109.853544744 298.611335722 139.350299706 306.305667861 c 0
 168.847054668 314 168.847054668 314 206 314 c 2
 310.73464907 314 l 1
417.125319348 389.090860547 m 1
 393 370.163540922 393 370.163540922 393 317 c 2
 393 236.681918945 l 1
 402.59844675 234 402.59844675 234 411 234 c 0
 431.032736016 234 431.032736016 234 444.09290736 246.159469872 c 0
 457.102518388 258.271866346 457.102518388 258.271866346 458.005659311 277.237825747 c 0
 459.92860337 317.619650983 459.92860337 317.619650983 443.871492668 342.177584998 c 0
 433.949495628 356.068380854 433.949495628 356.068380854 422.967975021 371.043181682 c 0
 422.610522135 371.605739347 l 2
 420.45115531 375.564578526 420.45115531 375.564578526 419.0626575 380.110693421 c 0
 417.674159689 384.656808316 417.674159689 384.656808316 417.125319348 389.090860547 c 1
583.486702996 251 m 1
 545.317130585 251 l 1
 545.010715255 255.672833787 l 2
 540.881581405 318.642124997 540.881581405 318.642124997 576.132290525 361.668725835 c 0
 611.598114943 404.957893875 611.598114943 404.957893875 669.921884535 405.99938976 c 0
 736.786884005 407.044155377 736.786884005 407.044155377 772.295226892 348.559825916 c 0
 804.028874121 294.305525815 804.028874121 294.305525815 801.998438232 198.875039044 c 0
 796.876562256 -6 796.876562256 -6 661 -6 c 0
 609.025867146 -6 609.025867146 -6 576.584214356 24.3486429324 c 0
 544 54.8306499107 544 54.8306499107 544 109 c 0
 544 120.226805086 544 120.226805086 545.020533968 131.45267873 c 2
 545.43392681 136 l 1
 581.721122893 136 l 1
 580.954962152 130.33041052 l 2
 580.356322841 125.900479616 580.356322841 125.900479616 580.128602457 121.716321207 c 0
 579.900882073 117.532162798 579.900882073 117.532162798 580.04483368 113.604767241 c 0
 580.188785287 109.677371685 580.188785287 109.677371685 580.694403631 105.989052139 c 0
 581.200021976 102.300732593 581.200021976 102.300732593 582.073686969 98.8486251393 c 0
 582.947351963 95.3965176855 582.947351963 95.3965176855 584.17305638 92.1777133754 c 0
 585.398760797 88.9589090654 585.398760797 88.9589090654 586.988886522 85.955766087 c 0
 588.579012246 82.9526231087 588.579012246 82.9526231087 590.511550081 80.1770104073 c 0
 592.444087916 77.4013977059 592.444087916 77.4013977059 594.737046593 74.8218191941 c 0
 604.045880394 64.3493811683 604.045880394 64.3493811683 617.080694908 58.6475592637 c 0
 630.115509421 52.9457373592 630.115509421 52.9457373592 647.304981918 51.9907666649 c 0
 702.069828254 48.3397769092 702.069828254 48.3397769092 704.000395507 195.062888107 c 0
 705.93671138 349 705.93671138 349 658 349 c 0
 638.982100835 349 638.982100835 349 624.582006842 342.611742883 c 0
 610.18191285 336.223485766 610.18191285 336.223485766 599.904344047 323.376524762 c 0
 579.165496875 297.452965797 579.165496875 297.452965797 582.97850608 256.463116845 c 2
 583.486702996 251 l 1
EndSplineSet
EndChar
StartChar: v_ae
Encoding: 3463 3463 103
Width: 875
GlyphClass: 2
Flags: W
LayerCount: 2
Back
Fore
SplineSet
310.73464907 314 m 1
 307.048347164 365.351042834 307.048347164 365.351042834 266.145669998 381.356438247 c 0
 241.6526943 391.335057975 241.6526943 391.335057975 219.76903154 375.834130187 c 0
 218.816498907 375.076988863 218.816498907 375.076988863 215.599528067 371.823950704 c 0
 212.382557227 368.570912545 212.382557227 368.570912545 206.630276232 362.491910774 c 0
 200.877995238 356.412909002 200.877995238 356.412909002 193.719107662 348.657447462 c 0
 178.585553313 331.361956777 178.585553313 331.361956777 152.781900273 327.061347937 c 0
 130.247712428 323.68121976 130.247712428 323.68121976 116.464466094 337.464466094 c 0
 103 350.928932188 103 350.928932188 103 371 c 0
 103 385.456003436 103 385.456003436 110.835734294 397.769300183 c 0
 137.336101217 435.929828553 137.336101217 435.929828553 213.890087512 437.998855209 c 0
 275.07527882 439.03589235 275.07527882 439.03589235 313.625303223 399.443975396 c 0
 353.028916374 356.929550681 353.028916374 356.929550681 351.99945943 286.926478538 c 2
 351.927011216 282 l 1
 268 282 l 2
 255.475613499 282 255.475613499 282 244.250004261 279.77794365 c 0
 233.024395024 277.555887301 233.024395024 277.555887301 223.025096559 273.088389725 c 0
 213.025798095 268.620892149 213.025798095 268.620892149 204.24402399 261.925235784 c 0
 195.462249886 255.229579419 195.462249886 255.229579419 187.803433227 246.254403647 c 0
 157 210.156630334 157 210.156630334 157 160 c 0
 157 57.105405485 157 57.105405485 278.990692153 32.9009030736 c 0
 294.619153913 29.6832785937 294.619153913 29.6832785937 313.851225184 29.5636226606 c 0
 333.083296456 29.4439667275 333.083296456 29.4439667275 354 32.3358734036 c 1
 354 313 l 2
 354 370.827563487 354 370.827563487 382.216262148 404.269059366 c 0
 394.211170402 417.828520871 394.211170402 417.828520871 408.083730819 426.729128383 c 0
 421.956291236 435.629735895 421.956291236 435.629735895 437.711686747 439.831174698 c 2
 439.493588434 440.306348481 l 1
 475.047000851 423.302542542 l 1
 463.664100589 419.285048332 l 2
 456.331694617 416.697140342 456.331694617 416.697140342 453.165847308 412.785252993 c 0
 450 408.873365643 450 408.873365643 450 403 c 0
 450 399.351745707 450 399.351745707 452.818894504 394.519355128 c 0
 455.904972344 389.228935973 455.904972344 389.228935973 494.274652692 355.778445414 c 0
 525.705731556 328.538177065 525.705731556 328.538177065 529.952024477 296.69098016 c 0
 536.319502165 251.057390061 536.319502165 251.057390061 504.841339088 222.78039611 c 0
 489.401296623 208.910527455 489.401296623 208.910527455 470.110686383 201.955263727 c 0
 450.820076144 195 450.820076144 195 428 195 c 0
 423.683244024 195 423.683244024 195 419.211698066 195.299717189 c 0
 414.740152107 195.599434378 414.740152107 195.599434378 410.32954079 196.173390618 c 0
 405.918929473 196.747346858 405.918929473 196.747346858 401.58146911 197.562420041 c 0
 397.244008747 198.377493223 397.244008747 198.377493223 393 199.427885388 c 1
 393 34.9302511511 l 1
 410.810733309 38.1993487616 410.810733309 38.1993487616 427.1849672 42.9503944867 c 0
 443.559201091 47.7014402119 443.559201091 47.7014402119 461.171738138 54.6537574672 c 0
 488.639008603 65.4444708642 488.639008603 65.4444708642 520.167355886 87.120209621 c 2
 528 92.5051524497 l 1
 528 48.1690481052 l 1
 525.572478777 46.7125353714 l 2
 515.377994637 40.5958448873 515.377994637 40.5958448873 502.482213943 34.2744751711 c 0
 489.586433249 27.9531054548 489.586433249 27.9531054548 473.933633381 21.3890280909 c 0
 443.926819902 8.80552566421 443.926819902 8.80552566421 393 -2.05991347038 c 1
 393 -220 l 1
 354 -220 l 1
 354 -5.55817478125 l 1
 301.44213029 -10.8912527371 301.44213029 -10.8912527371 258.752830959 -8.99395054466 c 0
 34.1947853587 3.25467012446 34.1947853587 3.25467012446 28.0056593114 150.762174253 c 0
 23.8755523391 237.494420671 23.8755523391 237.494420671 88.0938090314 283.068667356 c 0
 109.853544744 298.611335722 109.853544744 298.611335722 139.350299706 306.305667861 c 0
 168.847054668 314 168.847054668 314 206 314 c 2
 310.73464907 314 l 1
417.125319348 389.090860547 m 1
 393 370.163540922 393 370.163540922 393 317 c 2
 393 236.681918945 l 1
 402.59844675 234 402.59844675 234 411 234 c 0
 431.032736016 234 431.032736016 234 444.09290736 246.159469872 c 0
 457.102518388 258.271866346 457.102518388 258.271866346 458.005659311 277.237825747 c 0
 459.92860337 317.619650983 459.92860337 317.619650983 443.871492668 342.177584998 c 0
 433.949495628 356.068380854 433.949495628 356.068380854 422.967975021 371.043181682 c 0
 422.610522135 371.605739347 l 2
 420.45115531 375.564578526 420.45115531 375.564578526 419.0626575 380.110693421 c 0
 417.674159689 384.656808316 417.674159689 384.656808316 417.125319348 389.090860547 c 1
845.645911655 -93.4251561571 m 0
 799.087571544 -146.191274949 799.087571544 -146.191274949 736.570558289 -140.981523845 c 0
 676.189863907 -135.776291571 676.189863907 -135.776291571 644.85413723 -89.2949636653 c 0
 613.955522687 -43.4620187596 613.955522687 -43.4620187596 616.002585955 27.1616639991 c 0
 619.040605913 112.226222818 619.040605913 112.226222818 659.497924964 196.175159849 c 0
 698.395558073 276.684214423 698.395558073 276.684214423 736.363993261 319 c 1
 535 319 l 1
 535 355 l 1
 792.937129434 355 l 1
 790.74341649 348.41886117 l 2
 789.877422227 345.82087838 789.877422227 345.82087838 787.941858488 333.239714079 c 2
 787.768540652 332.113148146 l 1
 787.124087413 331.173004596 l 2
 703 208.450806488 703 208.450806488 703 84 c 0
 703 55.4429253066 703 55.4429253066 707.925793772 27.8584801828 c 0
 724.221735403 -68 724.221735403 -68 837 -68 c 2
 846.342585459 -68 l 1
 841.430474486 -75.368166459 l 2
 841.815386041 -76.7538480543 841.815386041 -76.7538480543 843.5 -79 c 0
 850.601886205 -88.4691816068 850.601886205 -88.4691816068 845.645911655 -93.4251561571 c 0
EndSplineSet
EndChar
StartChar: v_aee
Encoding: 3464 3464 104
Width: 879
GlyphClass: 2
Flags: W
LayerCount: 2
Back
Fore
SplineSet
310.73464907 314 m 1
 307.048347164 365.351042834 307.048347164 365.351042834 266.145669998 381.356438247 c 0
 241.6526943 391.335057975 241.6526943 391.335057975 219.76903154 375.834130187 c 0
 218.816498907 375.076988863 218.816498907 375.076988863 215.599528067 371.823950704 c 0
 212.382557227 368.570912545 212.382557227 368.570912545 206.630276232 362.491910774 c 0
 200.877995238 356.412909002 200.877995238 356.412909002 193.719107662 348.657447462 c 0
 178.585553313 331.361956777 178.585553313 331.361956777 152.781900273 327.061347937 c 0
 130.247712428 323.68121976 130.247712428 323.68121976 116.464466094 337.464466094 c 0
 103 350.928932188 103 350.928932188 103 371 c 0
 103 385.456003436 103 385.456003436 110.835734294 397.769300183 c 0
 137.336101217 435.929828553 137.336101217 435.929828553 213.890087512 437.998855209 c 0
 275.07527882 439.03589235 275.07527882 439.03589235 313.625303223 399.443975396 c 0
 353.028916374 356.929550681 353.028916374 356.929550681 351.99945943 286.926478538 c 2
 351.927011216 282 l 1
 268 282 l 2
 255.475613499 282 255.475613499 282 244.250004261 279.77794365 c 0
 233.024395024 277.555887301 233.024395024 277.555887301 223.025096559 273.088389725 c 0
 213.025798095 268.620892149 213.025798095 268.620892149 204.24402399 261.925235784 c 0
 195.462249886 255.229579419 195.462249886 255.229579419 187.803433227 246.254403647 c 0
 157 210.156630334 157 210.156630334 157 160 c 0
 157 57.105405485 157 57.105405485 278.990692153 32.9009030736 c 0
 294.619153913 29.6832785937 294.619153913 29.6832785937 313.851225184 29.5636226606 c 0
 333.083296456 29.4439667275 333.083296456 29.4439667275 354 32.3358734036 c 1
 354 313 l 2
 354 370.827563487 354 370.827563487 382.216262148 404.269059366 c 0
 394.211170402 417.828520871 394.211170402 417.828520871 408.083730819 426.729128383 c 0
 421.956291236 435.629735895 421.956291236 435.629735895 437.711686747 439.831174698 c 2
 439.493588434 440.306348481 l 1
 475.047000851 423.302542542 l 1
 463.664100589 419.285048332 l 2
 456.331694617 416.697140342 456.331694617 416.697140342 453.165847308 412.785252993 c 0
 450 408.873365643 450 408.873365643 450 403 c 0
 450 399.351745707 450 399.351745707 452.818894504 394.519355128 c 0
 455.904972344 389.228935973 455.904972344 389.228935973 494.274652692 355.778445414 c 0
 525.705731556 328.538177065 525.705731556 328.538177065 529.952024477 296.69098016 c 0
 536.319502165 251.057390061 536.319502165 251.057390061 504.841339088 222.78039611 c 0
 489.401296623 208.910527455 489.401296623 208.910527455 470.110686383 201.955263727 c 0
 450.820076144 195 450.820076144 195 428 195 c 0
 423.683244024 195 423.683244024 195 419.211698066 195.299717189 c 0
 414.740152107 195.599434378 414.740152107 195.599434378 410.32954079 196.173390618 c 0
 405.918929473 196.747346858 405.918929473 196.747346858 401.58146911 197.562420041 c 0
 397.244008747 198.377493223 397.244008747 198.377493223 393 199.427885388 c 1
 393 34.9302511511 l 1
 410.810733309 38.1993487616 410.810733309 38.1993487616 427.1849672 42.9503944867 c 0
 443.559201091 47.7014402119 443.559201091 47.7014402119 461.171738138 54.6537574672 c 0
 488.639008603 65.4444708642 488.639008603 65.4444708642 520.167355886 87.120209621 c 2
 528 92.5051524497 l 1
 528 48.1690481052 l 1
 525.572478777 46.7125353714 l 2
 515.377994637 40.5958448873 515.377994637 40.5958448873 502.482213943 34.2744751711 c 0
 489.586433249 27.9531054548 489.586433249 27.9531054548 473.933633381 21.3890280909 c 0
 443.926819902 8.80552566421 443.926819902 8.80552566421 393 -2.05991347038 c 1
 393 -220 l 1
 354 -220 l 1
 354 -5.55817478125 l 1
 301.44213029 -10.8912527371 301.44213029 -10.8912527371 258.752830959 -8.99395054466 c 0
 34.1947853587 3.25467012446 34.1947853587 3.25467012446 28.0056593114 150.762174253 c 0
 23.8755523391 237.494420671 23.8755523391 237.494420671 88.0938090314 283.068667356 c 0
 109.853544744 298.611335722 109.853544744 298.611335722 139.350299706 306.305667861 c 0
 168.847054668 314 168.847054668 314 206 314 c 2
 310.73464907 314 l 1
417.125319348 389.090860547 m 1
 393 370.163540922 393 370.163540922 393 317 c 2
 393 236.681918945 l 1
 402.59844675 234 402.59844675 234 411 234 c 0
 431.032736016 234 431.032736016 234 444.09290736 246.159469872 c 0
 457.102518388 258.271866346 457.102518388 258.271866346 458.005659311 277.237825747 c 0
 459.92860337 317.619650983 459.92860337 317.619650983 443.871492668 342.177584998 c 0
 433.949495628 356.068380854 433.949495628 356.068380854 422.967975021 371.043181682 c 0
 422.610522135 371.605739347 l 2
 420.45115531 375.564578526 420.45115531 375.564578526 419.0626575 380.110693421 c 0
 417.674159689 384.656808316 417.674159689 384.656808316 417.125319348 389.090860547 c 1
539 354 m 1
 794 354 l 1
 794 324.387423597 l 1
 666.943078579 236 l 1
 814 236 l 1
 814 208.043643895 l 1
 811.409593749 206.618920457 l 2
 792.450354817 196.191339044 792.450354817 196.191339044 758.132996238 146.186045115 c 0
 727.085030226 100.584345035 727.085030226 100.584345035 730.991371866 29.2936101098 c 0
 733.871045727 -19.6608455233 733.871045727 -19.6608455233 773.364273863 -55.3010757931 c 0
 796.208172994 -76.2413166629 796.208172994 -76.2413166629 841.633159434 -82.040251102 c 2
 845.39086192 -82.5199578024 l 1
 850.421464441 -116.476524815 l 1
 847.684377461 -118.218307439 l 2
 813.456003436 -140 813.456003436 -140 767 -140 c 0
 753.617704186 -140 753.617704186 -140 740.229498237 -137.940276008 c 0
 627 -120.280629494 627 -120.280629494 627 2 c 0
 627 14.207972894 627 14.207972894 628.021411241 26.4649077898 c 0
 634.194860487 86.1415838323 634.194860487 86.1415838323 692.279825757 150.340755973 c 0
 723.787752985 185.691113351 723.787752985 185.691113351 752.466907463 204 c 1
 599 204 l 1
 599 230.629192017 l 1
 728.910143563 320 l 1
 539 320 l 1
 539 354 l 1
EndSplineSet
EndChar
StartChar: v_u
Encoding: 3467 3467 107
Width: 651
GlyphClass: 2
Flags: W
LayerCount: 2
Back
Fore
SplineSet
347 266 m 2
 263.014428455 266 263.014428455 266 211.966229373 216.896494216 c 0
 161.060279311 167.929818443 161.060279311 167.929818443 162.997610387 99.1545652697 c 0
 164.468135971 51.6075713807 164.468135971 51.6075713807 181.746174766 14.1292319748 c 0
 199.024213561 -23.3491074311 199.024213561 -23.3491074311 232.18783857 -51.1480283944 c 0
 288.855482559 -98.045388937 288.855482559 -98.045388937 366.113607027 -100.001290822 c 0
 452.270163483 -101.959394378 452.270163483 -101.959394378 510.340910374 -54.62441582 c 0
 568.029972113 -7.60055877244 568.029972113 -7.60055877244 569.000400529 69.0632860693 c 2
 569.062890578 74 l 1
 607.947645422 74 l 1
 607.999723015 69.0526286633 l 2
 608.510843034 20.4962268243 608.510843034 20.4962268243 589.257223778 -20.5794383642 c 0
 570.003604521 -61.6551035526 570.003604521 -61.6551035526 531.262615677 -94.7888440118 c 0
 457.996583643 -157.879038263 457.996583643 -157.879038263 350.324517575 -164.98945772 c 0
 225.474430945 -173.109788558 225.474430945 -173.109788558 130.986986668 -101.990206845 c 0
 31.0843941779 -26.5535553723 31.0843941779 -26.5535553723 27.0033428671 92.8171954707 c 0
 23.927825345 176.881341073 23.927825345 176.881341073 75.3447236588 232.411591252 c 0
 104.089407503 263.209466799 104.089407503 263.209466799 150.098835614 282.124453911 c 0
 196.0123261 301 196.0123261 301 241 301 c 2
 501.609930742 301 l 1
 500.471375045 311.119551007 500.471375045 311.119551007 496.833792351 320.655679167 c 0
 493.196209657 330.191807326 493.196209657 330.191807326 486.839748528 339.726499019 c 0
 472.652807011 361.006911295 472.652807011 361.006911295 457.96930767 367.430942257 c 0
 449.228060456 371.315941018 449.228060456 371.315941018 441.23745135 373.901255319 c 0
 433.246842244 376.48656962 433.246842244 376.48656962 426.225481723 377.74328481 c 0
 419.204121201 379 419.204121201 379 413 379 c 0
 407.228068637 379 407.228068637 379 401.224923459 377.728421491 c 0
 395.221778281 376.456842982 395.221778281 376.456842982 389.12150872 373.978594451 c 0
 383.021239159 371.50034592 383.021239159 371.50034592 376.73420437 367.813550787 c 0
 374.285209001 366.180887208 374.285209001 366.180887208 368.776111863 360.928352199 c 0
 363.267014726 355.67581719 363.267014726 355.67581719 355.589090309 347.518022498 c 0
 342.644163653 334.573095842 342.644163653 334.573095842 321.509285375 328.232632358 c 0
 314.811388301 326 314.811388301 326 308 326 c 0
 305.067282654 326 305.067282654 326 302.217646808 326.312528596 c 0
 299.368010962 326.625057191 299.368010962 326.625057191 296.621022033 327.245987545 c 0
 293.874033105 327.866917899 293.874033105 327.866917899 291.224668742 328.796513819 c 0
 288.575304379 329.726109739 288.575304379 329.726109739 286.042217575 330.957836912 c 0
 283.509130771 332.189564085 283.509130771 332.189564085 281.088272425 333.726254292 c 0
 278.667414079 335.262944499 278.667414079 335.262944499 276.376524762 337.095655953 c 0
 269.337902435 342.726553815 269.337902435 342.726553815 265.668951217 350.064635515 c 0
 262 357.402717215 262 357.402717215 262 366 c 0
 262 372.811124159 262 372.811124159 264.247523374 379.553694282 c 0
 270.343400588 398.199906935 270.343400588 398.199906935 284.733599987 410.825374544 c 0
 299.123799385 423.450842154 299.123799385 423.450842154 320.875954025 429.884541989 c 0
 342.628108666 436.318241824 342.628108666 436.318241824 371.863065081 436.998124531 c 0
 409.265552355 438.02285021 409.265552355 438.02285021 440.524625361 426.397472036 c 0
 471.783698366 414.772093863 471.783698366 414.772093863 496.498123963 390.572552132 c 0
 546.061287058 342.041954936 546.061287058 342.041954936 543.997900924 270.855133307 c 2
 543.857172422 266 l 1
 347 266 l 2
EndSplineSet
EndChar
StartChar: v_iru
Encoding: 3469 3469 109
Width: 891
GlyphClass: 2
Flags: W
LayerCount: 2
Back
Fore
SplineSet
290.74392624 274.006561683 m 2
 213.183460468 277.984021466 213.183460468 277.984021466 189.574600451 275.032913964 c 0
 174.245926548 273.402203974 174.245926548 273.402203974 160.924856692 269.932958553 c 0
 147.603786836 266.463713131 147.603786836 266.463713131 136.439014957 261.249625539 c 0
 125.274243078 256.035537947 125.274243078 256.035537947 116.058403116 249.04421108 c 0
 85.2480027889 224.769350216 85.2480027889 224.769350216 88.9790074466 187.459303639 c 0
 90.8413822226 165.421202124 90.8413822226 165.421202124 103.244791984 150.779109325 c 0
 115.648201746 136.137016527 115.648201746 136.137016527 139.794275666 128.568508263 c 0
 163.940349585 121 163.940349585 121 200 121 c 0
 233.85625558 121 233.85625558 121 261.878336164 134.527900972 c 0
 277.460322311 141.610621948 277.460322311 141.610621948 284.730161155 150.644452294 c 0
 292 159.678282641 292 159.678282641 292 171 c 2
 292 203 l 1
 334 203 l 1
 334 171 l 2
 334 151.339595371 334 151.339595371 371.896829928 135.626275645 c 0
 407.974976518 121 407.974976518 121 450 121 c 0
 486.85625558 121 486.85625558 121 514.742629697 134.462387505 c 0
 530.813697944 142.970600106 530.813697944 142.970600106 540.060689508 154.53813341 c 0
 549.307681072 166.105666713 549.307681072 166.105666713 552.10099218 181.003325952 c 0
 554 189.548861143 554 189.548861143 554 198 c 0
 554 233.609985938 554 233.609985938 527.359903659 255.109011055 c 0
 518.257967904 262.454432892 518.257967904 262.454432892 507.842025918 267.773682403 c 0
 497.426083932 273.092931913 497.426083932 273.092931913 485.593142058 276.412147664 c 0
 473.760200183 279.731363415 473.760200183 279.731363415 460.534254506 281.021699579 c 0
 438.452356216 282.999667868 438.452356216 282.999667868 417.028436652 282.888458459 c 0
 395.604517089 282.77724905 395.604517089 282.77724905 374.859106973 280.582302694 c 0
 354.113696857 278.387356337 354.113696857 278.387356337 334.042169973 274.109817821 c 2
 328.388931937 272.905029387 l 1
 328.010715255 278.672833787 l 2
 325.964843549 309.872377295 325.964843549 309.872377295 331.89885644 336.188157767 c 0
 337.832869331 362.50393824 337.832869331 362.50393824 351.826136604 383.752973729 c 0
 362.594138752 400.078654405 362.594138752 400.078654405 377.166903543 411.476223688 c 0
 391.739668333 422.873792971 391.739668333 422.873792971 409.891091262 429.244831809 c 0
 428.042514191 435.615870646 428.042514191 435.615870646 449.709792392 436.991570849 c 0
 539.685048634 442.222690398 539.685048634 442.222690398 561.827174224 366.306831231 c 0
 564 357.615528128 564 357.615528128 564 349 c 0
 564 329.589653178 564 329.589653178 553.763006262 312.88718971 c 0
 547.360590913 302.441143615 547.360590913 302.441143615 539.928846333 296.925683588 c 1
 604.232645379 260.762393954 604.232645379 260.762393954 611.975875001 178.490579225 c 0
 615.571459478 142.021079525 615.571459478 142.021079525 605.102498507 109.83870601 c 0
 594.633537537 77.6563324944 594.633537537 77.6563324944 570.238973891 50.1803502835 c 0
 521.247074107 -5 521.247074107 -5 444 -5 c 0
 351.334830936 -5 351.334830936 -5 312.321126505 69.7169590951 c 1
 277.561159824 -6 277.561159824 -6 178 -6 c 0
 111.776781339 -6 111.776781339 -6 68.7875449265 41.6507198793 c 0
 26 89.077878111 26 89.077878111 26 153 c 0
 26 157.477368172 26 157.477368172 26.2275770328 161.926053452 c 0
 26.4551540655 166.374738732 26.4551540655 166.374738732 26.9134093028 170.836462169 c 0
 27.3716645402 175.298185606 27.3716645402 175.298185606 28.0635418496 179.795388117 c 0
 44.5885164033 277.91242453 44.5885164033 277.91242453 142.583269295 306.79508854 c 0
 185.60985742 319.507489577 185.60985742 319.507489577 254.47222423 313.530661748 c 1
 251.359569227 343.625489054 251.359569227 343.625489054 244.692956925 354.458734046 c 0
 233.127587543 374.920541414 233.127587543 374.920541414 199.067555233 374 c 0
 172.342191319 374 172.342191319 374 161.620084162 348.088241036 c 0
 148.275308778 315.838367191 148.275308778 315.838367191 102.729838151 318.007199126 c 0
 90.6474914485 318.739462562 90.6474914485 318.739462562 82.0032689951 323.552801349 c 0
 73.3590465416 328.366140136 73.3590465416 328.366140136 68.5494897 337.003001039 c 0
 63.7399328583 345.639861941 63.7399328583 345.639861941 63.0086281341 357.70638989 c 0
 60.8450240627 394.487659105 60.8450240627 394.487659105 95.12411624 418.590145792 c 0
 128.641626724 442.157145351 128.641626724 442.157145351 181.48944135 436.975987054 c 0
 244.973290609 430.731674012 244.973290609 430.731674012 274.240767391 382.649390728 c 0
 300.095317157 342.316293093 300.095317157 342.316293093 295.989626545 278.67808861 c 2
 295.671933304 273.753843372 l 1
 290.74392624 274.006561683 l 2
370.526313622 316.221488718 m 1
 397.082302553 321 397.082302553 321 435.054341407 321 c 0
 478.637044292 320.052549937 478.637044292 320.052549937 504.493392916 311.800234996 c 1
 516 325.651998191 516 325.651998191 516 340 c 0
 516 351.202087687 516 351.202087687 510.709387796 360.022057367 c 0
 505.418775592 368.842027047 505.418775592 368.842027047 494.388547492 375.73591961 c 0
 485.040000856 381.345047592 485.040000856 381.345047592 474.198555721 384.172523796 c 0
 463.357110586 387 463.357110586 387 451 387 c 0
 378.083185849 387 378.083185849 387 370.526313622 316.221488718 c 1
644.369881731 237 m 1
 609.15147985 237 l 1
 609.002365185 241.846226621 l 2
 606.95275871 308.458437039 606.95275871 308.458437039 636.854639356 352.795708341 c 0
 652.010039772 375.267508959 652.010039772 375.267508959 673.94942853 386.633754479 c 0
 695.888817287 398 695.888817287 398 724 398 c 0
 755.957829419 398 755.957829419 398 780.700182699 380.889609723 c 0
 805.442535979 363.779219445 805.442535979 363.779219445 822.472135955 330.236067977 c 0
 836.769995828 301.640348231 836.769995828 301.640348231 843.637952666 266.794077481 c 0
 850.505909503 231.947806731 850.505909503 231.947806731 850 190.969136978 c 0
 850 156.625998155 850 156.625998155 841.444360357 99.7561581764 c 0
 833 43.6259981553 833 43.6259981553 833 23 c 0
 833 19.416178286 833 19.416178286 833.108746794 16.0506360006 c 0
 833.217493589 12.6850937152 833.217493589 12.6850937152 833.432669887 9.56570186635 c 0
 833.647846186 6.44631001754 833.647846186 6.44631001754 833.969418673 3.55215763037 c 2
 834.586325077 -2 l 1
 785.453877041 -2 l 1
 783.956319578 0.0591415116248 l 2
 777.715645143 8.64006886016 777.715645143 8.64006886016 771.129547774 9.0078204899 c 0
 767.270989871 8.75270922356 767.270989871 8.75270922356 747.779976638 1.32756132536 c 0
 725.804671674 -7.04398342294 725.804671674 -7.04398342294 703.709048981 -5.99181091375 c 0
 688.309787872 -4.92979290625 688.309787872 -4.92979290625 674.057504378 1.27151114814 c 0
 659.805220884 7.47281520254 659.805220884 7.47281520254 646.739803656 18.7090740184 c 0
 620.517885021 41.2599240447 620.517885021 41.2599240447 613.132914158 71.8548033314 c 0
 609 89.4196885043 609 89.4196885043 609 106 c 0
 609 180.31009942 609 180.31009942 678.030403507 209.59572515 c 0
 711.817651896 224.07597446 711.817651896 224.07597446 755.586898415 224.948335206 c 1
 754.587502007 237.338085539 754.587502007 237.338085539 753.747742226 247.457948021 c 0
 752.907982444 257.577810503 752.907982444 257.577810503 752.176897648 266.020871187 c 0
 751.445812852 274.463931872 751.445812852 274.463931872 750.844968382 280.96098061 c 0
 750.244123913 287.458029348 750.244123913 287.458029348 749.734338463 292.438016491 c 0
 749.224553014 297.418003634 749.224553014 297.418003634 748.814826237 300.786797115 c 0
 748.405099459 304.155590596 748.405099459 304.155590596 748.068030381 306.178005063 c 1
 753.55440102 307.09240017 753.55440102 307.09240017 727.762504004 335.839067922 c 0
 716.216566013 348.145687561 716.216566013 348.145687561 712.149055613 349.002191514 c 0
 677.023077893 348.077823679 677.023077893 348.077823679 658.378515459 313.585383176 c 0
 649.724091032 298.199739751 649.724091032 298.199739751 646.128191216 280.463002197 c 0
 642.5322914 262.726264643 642.5322914 262.726264643 643.987293499 242.35623525 c 2
 644.369881731 237 l 1
706.195265328 180.138930168 m 1
 662.195128468 167.032506422 662.195128468 167.032506422 652.857525084 127.814572209 c 0
 650 116.384471872 650 116.384471872 650 106 c 0
 650 95.8305036637 650 95.8305036637 651.884276401 86.8659316817 c 0
 653.768552802 77.9013596997 653.768552802 77.9013596997 657.496988979 70.1549606304 c 0
 661.225425155 62.4085615611 661.225425155 62.4085615611 666.833788365 55.7096832823 c 0
 683.187787691 36.1757396429 683.187787691 36.1757396429 707.64376475 37.9872934992 c 0
 720.866529769 38.9317767148 720.866529769 38.9317767148 732.643046618 43.6423834544 c 0
 739.515250806 46.3912651297 739.515250806 46.3912651297 744.05197333 47.6956325648 c 0
 748.588695853 49 748.588695853 49 752 49 c 0
 753.524711682 49 753.524711682 49 756.012984963 48.6754426155 c 1
 752 79.8720387663 752 79.8720387663 752 120 c 0
 752 135.252673078 752 135.252673078 754.720064475 187.774884228 c 1
 746.740622174 187.161080974 746.740622174 187.161080974 734.920718222 185.299327419 c 0
 723.100814271 183.437573864 723.100814271 183.437573864 706.195265328 180.138930168 c 1
EndSplineSet
EndChar
StartChar: v_ilu
Encoding: 3471 3471 111
Width: 805
GlyphClass: 2
Flags: W
LayerCount: 2
Back
Fore
SplineSet
111.598442521 60.0362620514 m 0
 110.258211212 56.8197069094 110.258211212 56.8197069094 110.062378344 53.858959085 c 0
 109.866545475 50.8982112605 109.866545475 50.8982112605 110.844169868 47.9470816091 c 0
 111.821794262 44.9959519577 111.821794262 44.9959519577 114.043680422 41.9408584884 c 0
 117.414070254 37.3065724682 117.414070254 37.3065724682 121.524785383 35.1532862341 c 0
 125.635500512 33 125.635500512 33 131 33 c 0
 145.462424595 33 145.462424595 33 150.270452082 46.6227445455 c 0
 153.451428735 56.1656745046 153.451428735 56.1656745046 147.431332644 64.5938090314 c 0
 144.330457204 68.9350346467 144.330457204 68.9350346467 140.362259259 70.9675173234 c 0
 136.394061314 73 136.394061314 73 131 73 c 0
 123.857044048 73 123.857044048 73 119.213922682 69.9151125058 c 0
 114.570801317 66.8302250116 114.570801317 66.8302250116 111.598442521 60.0362620514 c 0
567.514675843 300.37274088 m 1
 577.138859435 309.377873212 577.138859435 309.377873212 581.569429718 319.454443361 c 0
 586 329.531013509 586 329.531013509 586 342 c 0
 586 362.109477301 586 362.109477301 572.250810723 377.691891815 c 0
 558.593341915 393.170356464 558.593341915 393.170356464 534.571200592 395.018213489 c 0
 494.47695742 398.836712839 494.47695742 398.836712839 468.534568017 379.02616093 c 0
 443 359.527036263 443 359.527036263 443 327 c 0
 443 318.884610274 443 318.884610274 444.930233174 309.197699343 c 1
 481.894562185 310.95384597 481.894562185 310.95384597 497.255898025 309.99376248 c 0
 521.873344726 309.009064612 521.873344726 309.009064612 567.514675843 300.37274088 c 1
661 73 m 0
 654.236067977 71.527864045 l 1
 654.033207342 71.426433727 l 2
 643.825691705 67.4321884779 643.825691705 67.4321884779 640.915344904 61.6760911467 c 0
 638.004998104 55.9199938154 638.004998104 55.9199938154 640.66340942 46.824949618 c 0
 644.464197961 39.2233725364 644.464197961 39.2233725364 649.195139001 36.1116862682 c 0
 653.92608004 33 653.92608004 33 661 33 c 2
 667.763932023 34.472135955 l 1
 668.124184657 34.6522622723 l 1
 668.508625034 34.7723998902 l 2
 681 38.675954567 681 38.675954567 681 53 c 0
 681 56.9761329384 681 56.9761329384 679.456701427 60.3518288502 c 0
 677.913402854 63.7275247621 677.913402854 63.7275247621 674.580294356 66.8523139793 c 0
 671.16831455 70.051045047 671.16831455 70.051045047 667.826391842 71.5255225235 c 0
 664.484469135 73 664.484469135 73 661 73 c 0
702.074611893 95.3547008584 m 1
 728.652552363 190.225564349 728.652552363 190.225564349 723.008628134 277.70638989 c 0
 721.69562838 300.027385719 721.69562838 300.027385719 717.441337424 320.541852783 c 0
 713.187046468 341.056319847 713.187046468 341.056319847 706.005043934 359.762184754 c 0
 698.8230414 378.468049662 698.8230414 378.468049662 688.692307692 395.461538462 c 0
 657.218611646 448.871446904 657.218611646 448.871446904 615.24240266 447.005837616 c 0
 601 446.256237476 601 446.256237476 601 428 c 0
 601 414.595415617 601 414.595415617 609.125844563 397.933330301 c 1
 626 380.362043442 626 380.362043442 626 340 c 0
 626 305.356516639 626 305.356516639 601.305999934 284.13333225 c 1
 660.941992061 238.662853066 660.941992061 238.662853066 656.993012095 155.734273779 c 0
 656.253304978 143.159252792 656.253304978 143.159252792 653.850326548 131.718867238 c 0
 651.447348119 120.278481683 651.447348119 120.278481683 647.790085254 111.255545966 c 1
 654.654625153 113 654.654625153 113 661 113 c 0
 686.451169944 113 686.451169944 113 702.074611893 95.3547008584 c 1
216.150006389 320.128494762 m 0
 212.353750084 319.043850103 212.353750084 319.043850103 208.616975366 318.521925052 c 0
 204.880200649 318 204.880200649 318 201 318 c 0
 179.866345776 318 179.866345776 318 166.890058974 331.540473184 c 0
 154 344.990969505 154 344.990969505 154 363 c 0
 154 374.583490473 154 374.583490473 160.346280871 385.841748515 c 0
 166.692561742 397.100006556 166.692561742 397.100006556 178.124155452 407.253533888 c 0
 181.587824773 413.125535783 181.587824773 413.125535783 183.293912386 419.971532944 c 0
 185 426.817530104 185 426.817530104 185 435 c 0
 185 446.475062189 185 446.475062189 179.588420092 447.01622018 c 0
 136.683216277 449.814385646 136.683216277 449.814385646 103.270649009 395.399633238 c 0
 87.6145339765 369.469192716 87.6145339765 369.469192716 78.7857633037 339.795567805 c 0
 69.9569926308 310.121942895 69.9569926308 310.121942895 67.9933291796 276.739664224 c 0
 67 254.886422272 67 254.886422272 67 236 c 0
 67 164.197988315 67 164.197988315 93.0703178547 91.4444212885 c 1
 107.977981313 112 107.977981313 112 130 112 c 0
 131.796402451 112 131.796402451 112 133.857023133 111.843335579 c 0
 135.917643814 111.686671158 135.917643814 111.686671158 137.799837824 111.437037638 c 0
 139.682031833 111.187404118 139.682031833 111.187404118 141.515468074 110.854052074 c 1
 131.833467044 133.766884653 131.833467044 133.766884653 131.002343451 167.842951955 c 0
 128.919733847 221.990801659 128.919733847 221.990801659 168.464466094 261.535533906 c 0
 204.621895512 297.692963324 204.621895512 297.692963324 258.239714079 305.941858488 c 0
 270.996130853 307.904384146 270.996130853 307.904384146 290.323010943 308.901258971 c 0
 309.649891034 309.898133797 309.649891034 309.898133797 335.891985541 309.994901143 c 1
 337 316.898683542 337 316.898683542 337 323 c 0
 337 374.302743893 337 374.302743893 293.665930061 377.011123264 c 0
 268.761202532 378.790032374 268.761202532 378.790032374 259.315967739 362.475535913 c 0
 246.235562776 340.339465975 246.235562776 340.339465975 244.160251472 337.226499019 c 0
 244 337 l 2
 238.927894175 330.237192234 238.927894175 330.237192234 231.93786426 326.007639869 c 0
 224.947834345 321.778087503 224.947834345 321.778087503 216.150006389 320.128494762 c 0
274.598830399 435.964183048 m 0
 299.830148379 433.132096336 299.830148379 433.132096336 319.010073815 424.595883731 c 0
 338.189999251 416.059671125 338.189999251 416.059671125 351.062175887 402.014652288 c 0
 363.934352523 387.96963345 363.934352523 387.96963345 370.467176261 368.392265916 c 0
 377 348.814898382 377 348.814898382 377 324 c 0
 377 302.35855946 377 302.35855946 370.838086362 278.737890514 c 2
 369.862984489 275 l 1
 366 275 l 2
 282.413812651 275 282.413812651 275 270.796960203 273.063857925 c 0
 240.071886432 268.263065149 240.071886432 268.263065149 217.086665911 250.066432236 c 0
 204.315210151 240.133077756 204.315210151 240.133077756 198.157605076 228.959383573 c 0
 192 217.785689391 192 217.785689391 192 205 c 0
 192 195.962912018 192 195.962912018 195.653874063 186.828226861 c 0
 221.430475852 120 221.430475852 120 401 120 c 0
 571.365229638 120 571.365229638 120 594.270998818 190.626121639 c 0
 596.173178081 195.857114611 596.173178081 195.857114611 597.08658904 200.875207553 c 0
 598 205.893300494 598 205.893300494 598 211 c 0
 598 261.714309372 598 261.714309372 518.220187133 274.061185173 c 0
 499.608014434 276.999949284 499.608014434 276.999949284 473.655735961 277.494891308 c 0
 447.703457488 277.989833332 447.703457488 277.989833332 414.2979769 276.008886921 c 2
 410.294247704 275.769858312 l 1
 409.192380262 279.626394361 l 2
 403 301.299725277 403 301.299725277 403 322 c 0
 403 373.189156159 403 373.189156159 437.108599486 404.674017223 c 0
 471.008055764 435.965823018 471.008055764 435.965823018 529.956143725 437 c 0
 550.827162304 437 550.827162304 437 565.129047497 431.577484287 c 1
 564 437.787245519 564 437.787245519 564 443 c 0
 564 487.280114235 564 487.280114235 624.29361011 483.991371866 c 0
 659.871825297 481.898535678 659.871825297 481.898535678 687.7411812 458.714711466 c 0
 715.610537103 435.530887253 715.610537103 435.530887253 735.559779985 392.051768152 c 0
 766 323.053936117 766 323.053936117 766 243 c 0
 766 154.093327091 766 154.093327091 738.670456148 81.2145434852 c 0
 706.804552027 2.16286683026 706.804552027 2.16286683026 662.436410735 -2.9810616228 c 0
 634.960411858 -5.17914153296 634.960411858 -5.17914153296 617.30985594 14.1261540023 c 0
 610.541565411 21.5289717685 610.541565411 21.5289717685 607.067387489 30.4052273762 c 0
 603.593209567 39.2814829839 603.593209567 39.2814829839 603.205807692 49.6004602014 c 1
 533.51489474 -5 533.51489474 -5 401 -5 c 0
 260.661365726 -5 260.661365726 -5 189.734742812 49.7661265539 c 1
 189.206325232 38.9996183672 189.206325232 38.9996183672 185.53881486 30.6142002642 c 0
 181.871304487 22.2287821612 181.871304487 22.2287821612 174.635065763 14.5668823352 c 0
 165.418600899 4.80827247899 165.418600899 4.80827247899 154.038769073 0.368014983608 c 0
 142.658937247 -4.07224251178 142.658937247 -4.07224251178 129.560817728 -2.98073255179 c 0
 83.4380605283 1.30975649 83.4380605283 1.30975649 53.3265193759 80.2227608894 c 0
 26 152.081385915 26 152.081385915 26 240 c 0
 26 249.600493746 26 249.600493746 26.5089708733 259.019447578 c 0
 27.0179417467 268.438401411 27.0179417467 268.438401411 28.0250603024 277.502468412 c 0
 35.1203689809 355.550863876 35.1203689809 355.550863876 68.6924391075 413.538985004 c 0
 109.077874399 480.848043823 109.077874399 480.848043823 166.727677534 483.99257854 c 0
 195.504598928 485.562228797 195.504598928 485.562228797 211.252299464 475.547811736 c 0
 227 465.533394675 227 465.533394675 227 444 c 2
 225.973409605 433.489974 l 1
 248.204126092 439.369951346 248.204126092 439.369951346 274.598830399 435.964183048 c 0
EndSplineSet
EndChar
StartChar: v_iluu
Encoding: 3472 3472 112
Width: 1175
GlyphClass: 2
Flags: W
LayerCount: 2
Back
Fore
SplineSet
111.598442521 60.0362620514 m 0
 110.258211212 56.8197069094 110.258211212 56.8197069094 110.062378344 53.858959085 c 0
 109.866545475 50.8982112605 109.866545475 50.8982112605 110.844169868 47.9470816091 c 0
 111.821794262 44.9959519577 111.821794262 44.9959519577 114.043680422 41.9408584884 c 0
 117.414070254 37.3065724682 117.414070254 37.3065724682 121.524785383 35.1532862341 c 0
 125.635500512 33 125.635500512 33 131 33 c 0
 145.462424595 33 145.462424595 33 150.270452082 46.6227445455 c 0
 153.451428735 56.1656745046 153.451428735 56.1656745046 147.431332644 64.5938090314 c 0
 144.330457204 68.9350346467 144.330457204 68.9350346467 140.362259259 70.9675173234 c 0
 136.394061314 73 136.394061314 73 131 73 c 0
 123.857044048 73 123.857044048 73 119.213922682 69.9151125058 c 0
 114.570801317 66.8302250116 114.570801317 66.8302250116 111.598442521 60.0362620514 c 0
567.514675843 300.37274088 m 1
 577.138859435 309.377873212 577.138859435 309.377873212 581.569429718 319.454443361 c 0
 586 329.531013509 586 329.531013509 586 342 c 0
 586 362.109477301 586 362.109477301 572.250810723 377.691891815 c 0
 558.593341915 393.170356464 558.593341915 393.170356464 534.571200592 395.018213489 c 0
 494.47695742 398.836712839 494.47695742 398.836712839 468.534568017 379.02616093 c 0
 443 359.527036263 443 359.527036263 443 327 c 0
 443 318.884610274 443 318.884610274 444.930233174 309.197699343 c 1
 481.894562185 310.95384597 481.894562185 310.95384597 497.255898025 309.99376248 c 0
 521.873344726 309.009064612 521.873344726 309.009064612 567.514675843 300.37274088 c 1
661 73 m 0
 654.236067977 71.527864045 l 1
 654.033207342 71.426433727 l 2
 643.825691705 67.4321884779 643.825691705 67.4321884779 640.915344904 61.6760911467 c 0
 638.004998104 55.9199938154 638.004998104 55.9199938154 640.66340942 46.824949618 c 0
 644.464197961 39.2233725364 644.464197961 39.2233725364 649.195139001 36.1116862682 c 0
 653.92608004 33 653.92608004 33 661 33 c 2
 667.763932023 34.472135955 l 1
 668.124184657 34.6522622723 l 1
 668.508625034 34.7723998902 l 2
 681 38.675954567 681 38.675954567 681 53 c 0
 681 56.9761329384 681 56.9761329384 679.456701427 60.3518288502 c 0
 677.913402854 63.7275247621 677.913402854 63.7275247621 674.580294356 66.8523139793 c 0
 671.16831455 70.051045047 671.16831455 70.051045047 667.826391842 71.5255225235 c 0
 664.484469135 73 664.484469135 73 661 73 c 0
702.074611893 95.3547008584 m 1
 728.652552363 190.225564349 728.652552363 190.225564349 723.008628134 277.70638989 c 0
 721.69562838 300.027385719 721.69562838 300.027385719 717.441337424 320.541852783 c 0
 713.187046468 341.056319847 713.187046468 341.056319847 706.005043934 359.762184754 c 0
 698.8230414 378.468049662 698.8230414 378.468049662 688.692307692 395.461538462 c 0
 657.218611646 448.871446904 657.218611646 448.871446904 615.24240266 447.005837616 c 0
 601 446.256237476 601 446.256237476 601 428 c 0
 601 414.595415617 601 414.595415617 609.125844563 397.933330301 c 1
 626 380.362043442 626 380.362043442 626 340 c 0
 626 305.356516639 626 305.356516639 601.305999934 284.13333225 c 1
 660.941992061 238.662853066 660.941992061 238.662853066 656.993012095 155.734273779 c 0
 656.253304978 143.159252792 656.253304978 143.159252792 653.850326548 131.718867238 c 0
 651.447348119 120.278481683 651.447348119 120.278481683 647.790085254 111.255545966 c 1
 654.654625153 113 654.654625153 113 661 113 c 0
 686.451169944 113 686.451169944 113 702.074611893 95.3547008584 c 1
216.150006389 320.128494762 m 0
 212.353750084 319.043850103 212.353750084 319.043850103 208.616975366 318.521925052 c 0
 204.880200649 318 204.880200649 318 201 318 c 0
 179.866345776 318 179.866345776 318 166.890058974 331.540473184 c 0
 154 344.990969505 154 344.990969505 154 363 c 0
 154 374.583490473 154 374.583490473 160.346280871 385.841748515 c 0
 166.692561742 397.100006556 166.692561742 397.100006556 178.124155452 407.253533888 c 0
 181.587824773 413.125535783 181.587824773 413.125535783 183.293912386 419.971532944 c 0
 185 426.817530104 185 426.817530104 185 435 c 0
 185 446.475062189 185 446.475062189 179.588420092 447.01622018 c 0
 136.683216277 449.814385646 136.683216277 449.814385646 103.270649009 395.399633238 c 0
 87.6145339765 369.469192716 87.6145339765 369.469192716 78.7857633037 339.795567805 c 0
 69.9569926308 310.121942895 69.9569926308 310.121942895 67.9933291796 276.739664224 c 0
 67 254.886422272 67 254.886422272 67 236 c 0
 67 164.197988315 67 164.197988315 93.0703178547 91.4444212885 c 1
 107.977981313 112 107.977981313 112 130 112 c 0
 131.796402451 112 131.796402451 112 133.857023133 111.843335579 c 0
 135.917643814 111.686671158 135.917643814 111.686671158 137.799837824 111.437037638 c 0
 139.682031833 111.187404118 139.682031833 111.187404118 141.515468074 110.854052074 c 1
 131.833467044 133.766884653 131.833467044 133.766884653 131.002343451 167.842951955 c 0
 128.919733847 221.990801659 128.919733847 221.990801659 168.464466094 261.535533906 c 0
 204.621895512 297.692963324 204.621895512 297.692963324 258.239714079 305.941858488 c 0
 270.996130853 307.904384146 270.996130853 307.904384146 290.323010943 308.901258971 c 0
 309.649891034 309.898133797 309.649891034 309.898133797 335.891985541 309.994901143 c 1
 337 316.898683542 337 316.898683542 337 323 c 0
 337 374.302743893 337 374.302743893 293.665930061 377.011123264 c 0
 268.761202532 378.790032374 268.761202532 378.790032374 259.315967739 362.475535913 c 0
 246.235562776 340.339465975 246.235562776 340.339465975 244.160251472 337.226499019 c 0
 244 337 l 2
 238.927894175 330.237192234 238.927894175 330.237192234 231.93786426 326.007639869 c 0
 224.947834345 321.778087503 224.947834345 321.778087503 216.150006389 320.128494762 c 0
274.598830399 435.964183048 m 0
 299.830148379 433.132096336 299.830148379 433.132096336 319.010073815 424.595883731 c 0
 338.189999251 416.059671125 338.189999251 416.059671125 351.062175887 402.014652288 c 0
 363.934352523 387.96963345 363.934352523 387.96963345 370.467176261 368.392265916 c 0
 377 348.814898382 377 348.814898382 377 324 c 0
 377 302.35855946 377 302.35855946 370.838086362 278.737890514 c 2
 369.862984489 275 l 1
 366 275 l 2
 282.413812651 275 282.413812651 275 270.796960203 273.063857925 c 0
 240.071886432 268.263065149 240.071886432 268.263065149 217.086665911 250.066432236 c 0
 204.315210151 240.133077756 204.315210151 240.133077756 198.157605076 228.959383573 c 0
 192 217.785689391 192 217.785689391 192 205 c 0
 192 195.962912018 192 195.962912018 195.653874063 186.828226861 c 0
 221.430475852 120 221.430475852 120 401 120 c 0
 571.365229638 120 571.365229638 120 594.270998818 190.626121639 c 0
 596.173178081 195.857114611 596.173178081 195.857114611 597.08658904 200.875207553 c 0
 598 205.893300494 598 205.893300494 598 211 c 0
 598 261.714309372 598 261.714309372 518.220187133 274.061185173 c 0
 499.608014434 276.999949284 499.608014434 276.999949284 473.655735961 277.494891308 c 0
 447.703457488 277.989833332 447.703457488 277.989833332 414.2979769 276.008886921 c 2
 410.294247704 275.769858312 l 1
 409.192380262 279.626394361 l 2
 403 301.299725277 403 301.299725277 403 322 c 0
 403 373.189156159 403 373.189156159 437.108599486 404.674017223 c 0
 471.008055764 435.965823018 471.008055764 435.965823018 529.956143725 437 c 0
 550.827162304 437 550.827162304 437 565.129047497 431.577484287 c 1
 564 437.787245519 564 437.787245519 564 443 c 0
 564 487.280114235 564 487.280114235 624.29361011 483.991371866 c 0
 659.871825297 481.898535678 659.871825297 481.898535678 687.7411812 458.714711466 c 0
 715.610537103 435.530887253 715.610537103 435.530887253 735.559779985 392.051768152 c 0
 766 323.053936117 766 323.053936117 766 243 c 0
 766 154.093327091 766 154.093327091 738.670456148 81.2145434852 c 0
 706.804552027 2.16286683026 706.804552027 2.16286683026 662.436410735 -2.9810616228 c 0
 634.960411858 -5.17914153296 634.960411858 -5.17914153296 617.30985594 14.1261540023 c 0
 610.541565411 21.5289717685 610.541565411 21.5289717685 607.067387489 30.4052273762 c 0
 603.593209567 39.2814829839 603.593209567 39.2814829839 603.205807692 49.6004602014 c 1
 533.51489474 -5 533.51489474 -5 401 -5 c 0
 260.661365726 -5 260.661365726 -5 189.734742812 49.7661265539 c 1
 189.206325232 38.9996183672 189.206325232 38.9996183672 185.53881486 30.6142002642 c 0
 181.871304487 22.2287821612 181.871304487 22.2287821612 174.635065763 14.5668823352 c 0
 165.418600899 4.80827247899 165.418600899 4.80827247899 154.038769073 0.368014983608 c 0
 142.658937247 -4.07224251178 142.658937247 -4.07224251178 129.560817728 -2.98073255179 c 0
 83.4380605283 1.30975649 83.4380605283 1.30975649 53.3265193759 80.2227608894 c 0
 26 152.081385915 26 152.081385915 26 240 c 0
 26 249.600493746 26 249.600493746 26.5089708733 259.019447578 c 0
 27.0179417467 268.438401411 27.0179417467 268.438401411 28.0250603024 277.502468412 c 0
 35.1203689809 355.550863876 35.1203689809 355.550863876 68.6924391075 413.538985004 c 0
 109.077874399 480.848043823 109.077874399 480.848043823 166.727677534 483.99257854 c 0
 195.504598928 485.562228797 195.504598928 485.562228797 211.252299464 475.547811736 c 0
 227 465.533394675 227 465.533394675 227 444 c 2
 225.973409605 433.489974 l 1
 248.204126092 439.369951346 248.204126092 439.369951346 274.598830399 435.964183048 c 0
826.817789956 423 m 1
 808.937955914 423 l 1
 800.115138253 414.678611826 800.115138253 414.678611826 793.577842573 404.312323358 c 0
 787.040546894 393.94603489 787.040546894 393.94603489 782.676122901 381.272583392 c 0
 778.311698908 368.599131894 778.311698908 368.599131894 776.155849454 353.585043083 c 0
 774 338.570954272 774 338.570954272 774 321 c 0
 774 277.900996612 774 277.900996612 800.737046593 247.821819194 c 0
 807.416178015 240.307796345 807.416178015 240.307796345 814.915152146 234.650333902 c 0
 822.414126276 228.99287146 822.414126276 228.99287146 830.816710422 225.145287183 c 0
 839.219294568 221.297702906 839.219294568 221.297702906 848.528797529 219.267675006 c 0
 857.83830049 217.237647107 857.83830049 217.237647107 868.13153341 216.998269597 c 0
 904.524677348 216.040555283 904.524677348 216.040555283 932.694208481 235.138542491 c 0
 946.492840967 244.493547567 946.492840967 244.493547567 953.246420484 257.31512413 c 0
 960 270.136700692 960 270.136700692 960 287 c 0
 960 321.909830056 960 321.909830056 926.763932023 338.527864045 c 2
 924.178378068 339.820641022 l 1
 924.008628134 342.70638989 l 2
 921.807127708 380.131897128 921.807127708 380.131897128 946.846720973 391.51353043 c 0
 957.819660113 397 957.819660113 397 987 397 c 0
 1034.90467846 397 1034.90467846 397 1037.99956723 236.065783779 c 0
 1039.00749793 159.463050908 1039.00749793 159.463050908 1026.86390653 106.840821515 c 0
 1011.06925545 42.6092404665 1011.06925545 42.6092404665 977.821994937 37.0680303808 c 0
 974.620633435 36.5344701306 974.620633435 36.5344701306 971.413810805 36.2672350653 c 0
 968.206988175 36 968.206988175 36 965 36 c 0
 933.550197552 36 933.550197552 36 913.048900994 62.4358824035 c 0
 893 88.2884126327 893 88.2884126327 893 128 c 0
 893 139.502978789 893 139.502978789 895.010010405 152 c 1
 878.056771074 152 l 1
 875 136.025905999 875 136.025905999 875 121 c 0
 875 70.7826540584 875 70.7826540584 902.872215278 36.6632181145 c 0
 930.371745569 3 930.371745569 3 975 3 c 0
 1046.12814834 3 1046.12814834 3 1086.69366428 72.5408844755 c 0
 1123.01564254 133.404739942 1123.01564254 133.404739942 1124.000381 220.061723691 c 0
 1124.98562366 299.866379141 1124.98562366 299.866379141 1095.50245921 359.815480186 c 0
 1062.86997815 427 1062.86997815 427 1007 427 c 0
 952.926211715 427 952.926211715 427 933.32774398 409.268053002 c 0
 902.995903559 382.612799299 902.995903559 382.612799299 907.767761891 339.216096442 c 1
 925 320.004805777 925 320.004805777 925 299 c 0
 925 291.358777889 925 291.358777889 923.076397827 284.396335383 c 0
 921.152795653 277.433892876 921.152795653 277.433892876 917.347677805 271.273146212 c 0
 913.542559956 265.112399547 913.542559956 265.112399547 907.915785644 259.848642932 c 0
 890.974132854 244 890.974132854 244 868 244 c 0
 861.652656347 244 861.652656347 244 855.696976929 244.862182914 c 0
 849.74129751 245.724365829 849.74129751 245.724365829 844.19419942 247.450892934 c 0
 838.647101329 249.177420039 838.647101329 249.177420039 833.540445839 251.755001683 c 0
 828.43379035 254.332583327 828.43379035 254.332583327 823.766119678 257.778246603 c 0
 819.098449006 261.22390988 819.098449006 261.22390988 814.919999302 265.509499319 c 0
 804.458186665 276.239563563 804.458186665 276.239563563 799.229093332 290.451552253 c 0
 794 304.663540944 794 304.663540944 794 322 c 0
 794 390.963585996 794 390.963585996 826.817789956 423 c 1
EndSplineSet
EndChar
StartChar: v_e
Encoding: 3473 3473 113
Width: 595
GlyphClass: 2
Flags: W
LayerCount: 2
Back
Fore
SplineSet
11 320 m 1
 255.031907177 320 l 1
 254.175214638 342.654758248 254.175214638 342.654758248 240.043574993 360.942762495 c 0
 224.544800557 381 224.544800557 381 204 381 c 0
 197.02628851 381 197.02628851 381 190.969596493 378.40427485 c 0
 180.977839396 374.122093237 180.977839396 374.122093237 171.638943214 367.417668016 c 0
 162.300047032 360.713242796 162.300047032 360.713242796 153.646956606 351.579425124 c 0
 139.407488338 336.244613144 139.407488338 336.244613144 111.640230512 333.040698779 c 0
 95.3110378137 330.707956965 95.3110378137 330.707956965 83.5562526904 341.875002832 c 0
 72 352.853442888 72 352.853442888 72 369 c 0
 72 427.468259346 72 427.468259346 147.493683057 435.974589831 c 0
 158.773194914 437 158.773194914 437 172.956143725 437 c 0
 232.424996487 438.043313206 232.424996487 438.043313206 265.959570373 394.553162698 c 0
 282.480157281 373.128026552 282.480157281 373.128026552 290.984065965 346.456959131 c 0
 299.487974649 319.78589171 299.487974649 319.78589171 299.999349763 288.080634674 c 2
 300.081295483 283 l 1
 204 283 l 2
 160.653934368 283 160.653934368 283 126.981620007 257.98628076 c 0
 94.4469916593 233.817699702 94.4469916593 233.817699702 99.9319696192 201.821994937 c 0
 104.197953583 176.226091156 104.197953583 176.226091156 120.643004319 159.078452224 c 0
 137.088055055 141.930813293 137.088055055 141.930813293 166.517486485 132.764269077 c 0
 208.764417545 119.009454313 208.764417545 119.009454313 291.941864395 119.999662014 c 0
 376.448680177 120.982299407 376.448680177 120.982299407 431.709576134 158.148919696 c 0
 486.40616545 194.936006316 486.40616545 194.936006316 498.056177591 267.7485822 c 0
 500 281.355339059 500 281.355339059 500 295 c 0
 500 355.221514422 500 355.221514422 470.658745185 401.141300899 c 1
 446.081997755 356.901428418 446.081997755 356.901428418 386.212573583 354.004520797 c 0
 361.626935159 352.958323417 361.626935159 352.958323417 341.576437275 361.987718971 c 0
 321.525939391 371.017114525 321.525939391 371.017114525 306.579770878 389.896485278 c 0
 276.963630604 427.306346676 276.963630604 427.306346676 278.000659141 477.083716467 c 0
 279.026146455 558.097214267 279.026146455 558.097214267 321.464466094 600.535533906 c 2
 324.040244497 603.111312309 l 1
 327.281583238 601.449087314 l 2
 340.564284936 594.637445418 340.564284936 594.637445418 354.468198351 585.255264039 c 0
 368.372111765 575.873082661 368.372111765 575.873082661 382.839284225 563.981302804 c 0
 397.306456684 552.089522947 397.306456684 552.089522947 412.464130471 537.605523551 c 0
 463.973330362 488.116292283 463.973330362 488.116292283 497.316812103 430.52300564 c 0
 557.102006941 329.192166933 557.102006941 329.192166933 548.986481615 219.632575039 c 0
 541.839383449 122.636242783 541.839383449 122.636242783 471.855275077 59.2929622129 c 0
 436.932296718 27.6838431138 436.932296718 27.6838431138 393.904187844 11.596177807 c 0
 350.876078971 -4.49148749987 350.876078971 -4.49148749987 300.045869629 -4.99978959328 c 0
 189.746668903 -6.01170886601 189.746668903 -6.01170886601 122.580531756 30.6243659413 c 0
 34.8218755035 79.149740575 34.8218755035 79.149740575 41.0081433279 183.285248953 c 0
 43.0962884472 219.827788541 43.0962884472 219.827788541 67.5392950361 251.55169071 c 0
 83.2802714501 271.981468609 83.2802714501 271.981468609 102.148955545 284 c 1
 11 284 l 1
 11 320 l 1
445.557790168 437.371903103 m 1
 425.888618968 469.991736192 425.888618968 469.991736192 394.440384094 500.486994251 c 0
 389.252431125 505.980120924 389.252431125 505.980120924 380.59678457 513.900947734 c 0
 371.941138015 521.821774544 371.941138015 521.821774544 360.350234482 531.694979045 c 0
 348.759330949 541.568183545 348.759330949 541.568183545 334.753830261 552.953300233 c 1
 318 529.934069321 318 529.934069321 318 484 c 0
 318 413.972243697 318 413.972243697 370.055863486 401.887846816 c 0
 379.495097568 400 379.495097568 400 389 400 c 0
 398.12374499 400 398.12374499 400 405.787156193 401.521911074 c 0
 413.450567397 403.043822147 413.450567397 403.043822147 419.657376038 406.032349189 c 0
 425.86418468 409.020876232 425.86418468 409.020876232 430.794020206 413.550814754 c 0
 435.723855732 418.080753276 435.723855732 418.080753276 439.366371359 423.99083259 c 0
 443.008886987 429.900911903 443.008886987 429.900911903 445.557790168 437.371903103 c 1
EndSplineSet
EndChar
StartChar: v_ei
Encoding: 3475 3475 115
Width: 1165
GlyphClass: 2
Flags: W
LayerCount: 2
Back
Fore
SplineSet
589.475164099 201 m 1
 550.480757587 201 l 1
 550.025441412 205.496247232 l 2
 542.237470412 282.40246085 542.237470412 282.40246085 469.882971818 340.090507026 c 0
 397.250726393 398 397.250726393 398 301 398 c 0
 215.513819873 398 215.513819873 398 156.788447874 358.849752001 c 0
 95 317.335638586 95 317.335638586 95 252 c 0
 95 241.450849719 95 241.450849719 96.9289766416 230.84147819 c 0
 115.256914398 116.050710137 115.256914398 116.050710137 279.927543841 117.999474983 c 0
 414.252723171 119.946216712 414.252723171 119.946216712 432.213817766 180.446745875 c 0
 436 192.751838136 436 192.751838136 436 204 c 0
 436 213.375056233 436 213.375056233 433.741352039 221.940364512 c 0
 431.482704078 230.505672791 431.482704078 230.505672791 426.904950031 238.396840662 c 0
 422.327195984 246.288008533 422.327195984 246.288008533 415.386790714 253.54388677 c 0
 409.87632272 259.304830583 409.87632272 259.304830583 403.0866649 264.123991692 c 0
 396.29700708 268.943152802 396.29700708 268.943152802 388.684566857 272.596249578 c 0
 381.072126634 276.249346355 381.072126634 276.249346355 372.657235473 278.803736559 c 1
 384 261.365414365 384 261.365414365 384 242 c 0
 384 236.457371357 384 236.457371357 383.195737444 231.136898149 c 0
 382.391474887 225.81642494 382.391474887 225.81642494 380.797385853 220.769259466 c 0
 379.203296819 215.722093992 379.203296819 215.722093992 376.829666794 210.925411685 c 0
 374.45603677 206.128729379 374.45603677 206.128729379 371.314128612 201.614173409 c 0
 368.172220454 197.099617438 368.172220454 197.099617438 364.275704419 192.865172978 c 0
 360.379188385 188.630728518 360.379188385 188.630728518 355.73615411 184.688529604 c 0
 348.776920206 178.779746101 348.776920206 178.779746101 341.08704668 174.332794786 c 0
 333.397173154 169.885843471 333.397173154 169.885843471 325.039505524 166.926934449 c 0
 316.681837894 163.968025428 316.681837894 163.968025428 307.662683993 162.484012714 c 0
 298.643530093 161 298.643530093 161 289 161 c 0
 254.168460743 161 254.168460743 161 226.770288793 184.183068573 c 0
 199.071932064 207.620139651 199.071932064 207.620139651 198.002294104 241.848554367 c 0
 196.927697596 277.310239126 196.927697596 277.310239126 226.333811049 301.369786496 c 0
 235.91612362 309.209860418 235.91612362 309.209860418 246.881507649 314.684671215 c 0
 257.846891678 320.159482013 257.846891678 320.159482013 270.058822995 323.230994218 c 0
 282.270754312 326.302506424 282.270754312 326.302506424 295.719800153 326.992201082 c 0
 309.637106143 327.846060873 309.637106143 327.846060873 322.969626029 327.181964734 c 0
 336.302145915 326.517868595 336.302145915 326.517868595 349.010747682 324.355471094 c 0
 361.719349448 322.193073592 361.719349448 322.193073592 373.820725578 318.512951463 c 0
 385.922101708 314.832829335 385.922101708 314.832829335 397.377120187 309.654637147 c 0
 408.832138665 304.476444958 408.832138665 304.476444958 419.657491974 297.780759446 c 0
 430.482845284 291.085073934 430.482845284 291.085073934 440.63940141 282.891549664 c 0
 502.211832799 233.219672241 502.211832799 233.219672241 495.979216419 161.544583864 c 0
 480.559598635 -7.0432372335 480.559598635 -7.0432372335 263.950982748 -4.99975972513 c 0
 160.037342162 -3.98099854291 160.037342162 -3.98099854291 94.1252639439 56.3106699048 c 0
 28 116.79734545 28 116.79734545 28 212 c 0
 28 264.125521454 28 264.125521454 49.840321231 306.264207167 c 0
 71.6806424621 348.402892879 71.6806424621 348.402892879 115.059141512 380.043680422 c 0
 154.210023107 408.517048854 154.210023107 408.517048854 200.748807059 422.758524427 c 0
 247.287591011 437 247.287591011 437 301 437 c 0
 358.7552403 437 358.7552403 437 408.096082298 420.849670248 c 0
 457.436924297 404.699340496 457.436924297 404.699340496 498.108527664 372.416255324 c 0
 579.785612338 307.585069364 579.785612338 307.585069364 588.979466032 206.45267873 c 2
 589.475164099 201 l 1
251.535533906 271.464466094 m 2
 241 260.928932188 241 260.928932188 241 246 c 0
 241 226.42604592 241 226.42604592 255.594361133 214.927458361 c 0
 263.164124814 208.963402128 263.164124814 208.963402128 272.453629841 205.981701064 c 0
 281.743134869 203 281.743134869 203 293 203 c 0
 316.819652438 203 316.819652438 203 328.336032542 215.402255497 c 0
 340 227.963451221 340 227.963451221 340 244 c 0
 340 251.544704114 340 251.544704114 337.877273702 257.81018317 c 0
 335.754547403 264.075662226 335.754547403 264.075662226 331.390215199 269.293625985 c 0
 327.025882995 274.511589745 327.025882995 274.511589745 320.296212043 278.794107623 c 0
 313.94525269 282.876867207 313.94525269 282.876867207 306.156955529 284.938433604 c 0
 298.368658367 287 298.368658367 287 289 287 c 0
 276.423483186 287 276.423483186 287 267.26395034 283.202197131 c 0
 258.104417494 279.404394262 258.104417494 279.404394262 251.859651178 271.821463736 c 0
 251.535533906 271.464466094 l 2
592 321 m 1
 836.031907177 321 l 1
 835.175214638 343.654758248 835.175214638 343.654758248 821.043574993 361.942762495 c 0
 805.544800557 382 805.544800557 382 785 382 c 0
 778.02628851 382 778.02628851 382 771.969596493 379.40427485 c 0
 751.919216246 370.811254744 751.919216246 370.811254744 734.646956606 352.579425124 c 0
 720.407488338 337.244613144 720.407488338 337.244613144 692.640230512 334.040698779 c 0
 676.311037814 331.707956965 676.311037814 331.707956965 664.55625269 342.875002832 c 0
 658.855415215 348.290798433 658.855415215 348.290798433 655.927707608 355.170856215 c 0
 653 362.050913996 653 362.050913996 653 370 c 0
 653 399.097860834 653 399.097860834 672.316188986 415.959532088 c 0
 691.632377972 432.821203343 691.632377972 432.821203343 728.493683057 436.974589831 c 0
 739.773194914 438 739.773194914 438 753.956143725 438 c 0
 813.424996487 439.043313206 813.424996487 439.043313206 846.959570373 395.553162698 c 0
 863.480157281 374.128026552 863.480157281 374.128026552 871.984065965 347.456959131 c 0
 880.487974649 320.78589171 880.487974649 320.78589171 880.999349763 289.080634674 c 2
 881.081295483 284 l 1
 785 284 l 2
 741.653934368 284 741.653934368 284 707.981620007 258.98628076 c 0
 675.446991659 234.817699702 675.446991659 234.817699702 680.931969619 202.821994937 c 0
 685.197953583 177.226091156 685.197953583 177.226091156 701.643004319 160.078452224 c 0
 718.088055055 142.930813293 718.088055055 142.930813293 747.517486485 133.764269077 c 0
 789.764417545 120.009454313 789.764417545 120.009454313 872.941864395 120.999662014 c 0
 915.311234493 121.492329108 915.311234493 121.492329108 950.221764179 131.046848064 c 0
 985.132293865 140.60136702 985.132293865 140.60136702 1012.70957613 159.148919696 c 0
 1067.40616545 195.936006316 1067.40616545 195.936006316 1079.05617759 268.7485822 c 0
 1081 282.355339059 1081 282.355339059 1081 296 c 0
 1081 311.249724914 1081 311.249724914 1079.14509335 325.507412151 c 0
 1077.2901867 339.765099388 1077.2901867 339.765099388 1073.59254309 353.00067339 c 0
 1069.89489948 366.236247392 1069.89489948 366.236247392 1064.42361789 378.481449272 c 0
 1058.9523363 390.726651152 1058.9523363 390.726651152 1051.65874518 402.141300899 c 1
 1039.35746085 379.998124637 1039.35746085 379.998124637 1018.11375101 368.218842094 c 0
 996.870041176 356.439559551 996.870041176 356.439559551 967.212573583 355.004520797 c 0
 961.073086546 354.743266029 961.073086546 354.743266029 955.203011208 355.113671922 c 0
 949.332935869 355.484077816 949.332935869 355.484077816 943.753462891 356.482128177 c 0
 938.173989912 357.480178539 938.173989912 357.480178539 932.877570156 359.107151894 c 0
 927.581150399 360.734125248 927.581150399 360.734125248 922.588944969 362.981805463 c 0
 917.59673954 365.229485678 917.59673954 365.229485678 912.901230827 368.103631214 c 0
 908.205722113 370.97777675 908.205722113 370.97777675 903.828039694 374.465691538 c 0
 899.450357274 377.953606326 899.450357274 377.953606326 895.383015065 382.065528763 c 0
 891.315672856 386.177451201 891.315672856 386.177451201 887.579770878 390.896485278 c 0
 857.963630604 428.306346676 857.963630604 428.306346676 859.000659141 478.083716467 c 0
 860.026146455 559.097214267 860.026146455 559.097214267 902.464466094 601.535533906 c 2
 905.040244497 604.111312309 l 1
 908.281583238 602.449087314 l 2
 918.247828514 597.338192301 918.247828514 597.338192301 928.554809394 590.787732765 c 0
 938.861790273 584.23727323 938.861790273 584.23727323 949.505713425 576.251220432 c 0
 960.149636576 568.265167633 960.149636576 568.265167633 971.124923631 558.864773935 c 0
 982.100210685 549.464380236 982.100210685 549.464380236 993.464130471 538.605523551 c 0
 1044.97333036 489.116292283 1044.97333036 489.116292283 1078.3168121 431.52300564 c 0
 1138.10200694 330.192166933 1138.10200694 330.192166933 1129.98648162 220.632575039 c 0
 1122.83938345 123.636242783 1122.83938345 123.636242783 1052.85527508 60.2929622129 c 0
 982.174778339 -2.62518988324 982.174778339 -2.62518988324 881.045869629 -3.99978959328 c 0
 770.746668903 -5.01170886601 770.746668903 -5.01170886601 703.580531756 31.6243659413 c 0
 615.821875503 80.149740575 615.821875503 80.149740575 622.008143328 184.285248953 c 0
 622.53023552 193.421862309 622.53023552 193.421862309 624.463545454 202.28471279 c 0
 626.396855388 211.14756327 626.396855388 211.14756327 629.724109921 219.686931974 c 0
 633.051364454 228.226300678 633.051364454 228.226300678 637.756837427 236.445420558 c 0
 642.4623104 244.664540438 642.4623104 244.664540438 648.539295036 252.55169071 c 0
 652.48962346 257.678712707 652.48962346 257.678712707 656.720903944 262.345782098 c 0
 660.952184428 267.012851489 660.952184428 267.012851489 665.310263871 271.071021021 c 0
 669.668343314 275.129190552 669.668343314 275.129190552 674.134939693 278.61634103 c 0
 678.601536071 282.103491509 678.601536071 282.103491509 683.148955545 285 c 2
 592 285 l 1
 592 321 l 1
1026.55779017 438.371903103 m 1
 1016.43486933 455.160001829 1016.43486933 455.160001829 1003.97588523 470.528823116 c 0
 991.516901125 485.897644404 991.516901125 485.897644404 975.440384094 501.486994251 c 0
 959.390819355 518.480651034 959.390819355 518.480651034 915.753830261 553.953300233 c 1
 907.377454927 542.44442644 907.377454927 542.44442644 903.188727464 525.368677408 c 0
 899 508.292928375 899 508.292928375 899 485 c 0
 899 414.972243697 899 414.972243697 951.055863486 402.887846816 c 0
 960.495097568 401 960.495097568 401 970 401 c 0
 1013.80749236 401 1013.80749236 401 1026.55779017 438.371903103 c 1
EndSplineSet
EndChar
StartChar: ga
Encoding: 3484 3484 123
Width: 636
GlyphClass: 2
Flags: W
LayerCount: 2
Back
Fore
SplineSet
229 404 m 0
 167.118209628 404 167.118209628 404 122.59179152 358.021633476 c 0
 78.0312372621 312.008017666 78.0312372621 312.008017666 78.9994347728 249.07517947 c 0
 82.8827026871 121.730796212 82.8827026871 121.730796212 210.129826344 116.998314228 c 0
 283.67628489 115.088016603 283.67628489 115.088016603 302.399768149 160.960550588 c 0
 306 169.061072252 306 169.061072252 306 180 c 0
 306 200.307332862 306 200.307332862 294.028210835 215.962749462 c 0
 282.529136894 231 282.529136894 231 265 231 c 0
 259.098557543 231 259.098557543 231 252.29187237 229.094128152 c 1
 250.311117284 219.440350938 250.311117284 219.440350938 249.383486718 214.133065307 c 0
 248.455856152 208.825779676 248.455856152 208.825779676 247.969418673 204.44784237 c 2
 247.475213966 200 l 1
 211.46255511 200 l 1
 212.025945913 205.508710077 l 2
 221.162398696 294.84291506 221.162398696 294.84291506 268.965097666 360.953030658 c 0
 330.645098409 444.22103166 330.645098409 444.22103166 426.42103449 435.982241459 c 0
 499.663002377 429.792779384 499.663002377 429.792779384 545.017785967 368.976137753 c 0
 585.895427631 313.791321506 585.895427631 313.791321506 590.990262892 234.311891431 c 0
 594.045472301 185.428540895 594.045472301 185.428540895 580.736955728 143.457854957 c 0
 567.428439156 101.48716902 567.428439156 101.48716902 537.785296714 66.7331399501 c 0
 474.27185056 -6 474.27185056 -6 369 -6 c 0
 353.688711259 -6 353.688711259 -6 337.379826327 -3.96138938357 c 2
 333 -3.41391109269 l 1
 333 32.3993864655 l 1
 338.383482494 31.9852724275 l 2
 351.192024052 31 351.192024052 31 363 31 c 0
 429.890793133 31 429.890793133 31 466.418852059 68.4893236346 c 0
 503 106.033133363 503 106.033133363 503 168 c 0
 503 225.769803214 503 225.769803214 481.563915994 266.693236317 c 0
 456.589779127 314.720422599 456.589779127 314.720422599 408.737890514 327.161913638 c 0
 386.35855946 333 386.35855946 333 365 333 c 0
 351.12937259 333 351.12937259 333 338.67231598 330.595272208 c 0
 326.215259371 328.190544416 326.215259371 328.190544416 315.199274576 323.416880135 c 0
 304.183289782 318.643215853 304.183289782 318.643215853 294.468244743 311.476379349 c 0
 268.656459234 292.434898236 268.656459234 292.434898236 259.754583931 264.693075199 c 1
 264.089896738 265 264.089896738 265 268 265 c 0
 288.22341418 265 288.22341418 265 304.870761951 255.605356488 c 0
 321.518109723 246.210712977 321.518109723 246.210712977 334.109997657 227.847543072 c 0
 355.921797417 196.68782913 355.921797417 196.68782913 357.992510762 155.273562234 c 0
 360.041059032 117.887556306 360.041059032 117.887556306 349.9410409 87.587885519 c 0
 339.841022768 57.2882147324 339.841022768 57.2882147324 317.575936012 34.505335261 c 0
 272.96955239 -11.13840612 272.96955239 -11.13840612 193.66293071 -5.98862549143 c 0
 117.319130512 -0.830260613191 117.319130512 -0.830260613191 71.9502893923 62.0674509392 c 0
 29 121.379755338 29 121.379755338 29 204 c 0
 29 313.009551623 29 313.009551623 88.3906799096 374.960174632 c 0
 147.86687613 437 147.86687613 437 223 437 c 0
 226.589023766 437 226.589023766 437 230.178389918 436.871792616 c 0
 233.76775607 436.743585232 233.76775607 436.743585232 237.356304432 436.487244455 c 0
 240.944852794 436.230903678 240.944852794 436.230903678 244.53258331 435.84652507 c 0
 248.120313826 435.462146462 248.120313826 435.462146462 251.707106781 434.949747468 c 2
 256 434.336477008 l 1
 256 401.008936415 l 1
 250.105572809 402.08065045 l 2
 239.549150281 404 239.549150281 404 229 404 c 0
EndSplineSet
EndChar
StartChar: gha
Encoding: 3485 3485 125
Width: 677
GlyphClass: 2
Flags: W
LayerCount: 2
Back
Fore
SplineSet
560.855502434 296.9148673 m 1
 593.546819105 278.325687232 593.546819105 278.325687232 611.211488826 248.681468398 c 0
 628.876158547 219.037249564 628.876158547 219.037249564 631.968811028 178.633630655 c 0
 633.116392765 172.008954267 633.116392765 172.008954267 633.558196382 166.729001259 c 0
 634 161.449048252 634 161.449048252 634 155 c 0
 634 133.344600799 634 133.344600799 628.459909753 113.543007108 c 0
 622.919819505 93.7414134173 622.919819505 93.7414134173 611.906332168 75.9400344114 c 0
 600.892844831 58.1386554054 600.892844831 58.1386554054 584.459526816 42.3900589744 c 0
 559.790504787 18.7489128636 559.790504787 18.7489128636 529.588223706 6.87445643179 c 0
 499.385942625 -5 499.385942625 -5 464 -5 c 0
 427.35855946 -5 427.35855946 -5 380.737890514 7.16191363802 c 2
 378.542520646 7.73461882112 l 1
 377.527864045 9.7639320225 l 2
 375.258536549 14.3025870146 375.258536549 14.3025870146 374.129268274 19.3841435028 c 0
 373 24.4656999909 373 24.4656999909 373 30 c 0
 373 33.5164299561 373 33.5164299561 373.832306413 38.5374321191 c 0
 374.664612826 43.5584342821 374.664612826 43.5584342821 376.219818555 49.8221159136 c 0
 377.775024284 56.0857975451 377.775024284 56.0857975451 380.2 64.4 c 0
 383.608537399 76.086413941 383.608537399 76.086413941 385.3042687 85.7792256061 c 0
 387 95.4720372712 387 95.4720372712 387 103 c 0
 387 108.693071927 387 108.693071927 386.295004161 114.096725498 c 0
 385.590008322 119.500379069 385.590008322 119.500379069 384.170307854 124.705947449 c 0
 379.569127662 142.190432179 379.569127662 142.190432179 365.28693869 154.169042284 c 0
 351.180796798 166 351.180796798 166 334 166 c 0
 326.943436121 166 326.943436121 166 320.788593211 164.86116334 c 0
 314.633750301 163.72232668 314.633750301 163.72232668 309.338642817 161.434888761 c 0
 304.043535334 159.147450842 304.043535334 159.147450842 299.577392357 155.758151663 c 0
 295.11124938 152.368852483 295.11124938 152.368852483 291.356866393 147.818085226 c 0
 283.680577757 138.51349294 283.680577757 138.51349294 279.840288878 126.875898572 c 0
 276 115.238304204 276 115.238304204 276 101 c 0
 276 88.5610283454 276 88.5610283454 280.875664279 67.1081055179 c 0
 286 44.5610283454 286 44.5610283454 286 33 c 0
 286 21.1191251116 286 21.1191251116 281.698967117 9.29128468457 c 2
 280.780434596 6.76532025013 l 1
 278.166864762 6.1380634901 l 2
 227.59160022 -6 227.59160022 -6 199 -6 c 0
 132.766273548 -6 132.766273548 -6 88.289855188 43.6480949131 c 0
 46 90.0637896316 46 90.0637896316 46 154 c 0
 46 167.413812651 46 167.413812651 48.0647750064 179.80246269 c 0
 59.283094335 250.564169224 59.283094335 250.564169224 117.845760979 280 c 1
 0 280 l 1
 0 313 l 1
 276.564809601 313 l 1
 272.945859321 346.355427899 272.945859321 346.355427899 257.48385864 361.404142058 c 0
 242.021857959 376.452856216 242.021857959 376.452856216 213.039060116 376 c 0
 190.243481467 376 190.243481467 376 179.065689412 350.961745798 c 0
 174.457298698 340.638950599 174.457298698 340.638950599 166.649617168 333.917562885 c 0
 158.841935637 327.196175172 158.841935637 327.196175172 148.322533975 324.248435642 c 0
 137.803132312 321.300696111 137.803132312 321.300696111 124.70638989 322.008628134 c 0
 106.102967181 323.102947117 106.102967181 323.102947117 95.6072366927 333.305924426 c 0
 85.1115062041 343.508901735 85.1115062041 343.508901735 84.0086281341 361.70638989 c 0
 83.2905583504 373.913576214 83.2905583504 373.913576214 86.6674591934 384.663934525 c 0
 90.0443600364 395.414292837 90.0443600364 395.414292837 97.3510640777 404.435725008 c 0
 104.657768119 413.45715718 104.657768119 413.45715718 115.772720569 420.690697663 c 0
 148.742479797 442.147207637 148.742479797 442.147207637 201.510144327 436.973907193 c 0
 323.200066689 424.492889515 323.200066689 424.492889515 316.995280792 281.782813879 c 2
 316.775948739 276.738176672 l 1
 311.733711785 277.007095977 l 2
 286.903116234 278.331394406 286.903116234 278.331394406 267.3247073 278.882164593 c 0
 247.746298365 279.432934779 247.746298365 279.432934779 233.836408549 279.214871869 c 0
 219.926518733 278.996808958 219.926518733 278.996808958 211.528820232 278.027843747 c 0
 156.256890076 272.647390369 156.256890076 272.647390369 130.68174406 251.055989839 c 0
 105.106598043 229.46458931 105.106598043 229.46458931 106.993438317 191.25607376 c 0
 110.750160049 118 110.750160049 118 208 118 c 0
 222.646373297 118 222.646373297 118 237.382114555 123.182586471 c 1
 236.23935788 139.796510438 236.23935788 139.796510438 252.879975281 163.832957795 c 0
 282.432766465 207.106687743 282.432766465 207.106687743 335.158054971 204.997676202 c 0
 357.64035477 204.474832021 357.64035477 204.474832021 375.551840632 195.119362254 c 0
 393.463326494 185.763892487 393.463326494 185.763892487 406.032335492 167.957796406 c 0
 421.546938952 147.594879365 421.546938952 147.594879365 425.547680496 120.916948781 c 1
 439.066616192 118 439.066616192 118 481 118 c 0
 495.214674378 118 495.214674378 118 507.520837766 120.303719277 c 0
 519.827001155 122.607438554 519.827001155 122.607438554 530.110288498 127.128429076 c 0
 540.393575842 131.649419598 540.393575842 131.649419598 548.885366091 138.411400723 c 0
 561.458149844 148.42306186 561.458149844 148.42306186 567.729074922 162.940088465 c 0
 574 177.45711507 574 177.45711507 574 197 c 0
 574 234.700325388 574 234.700325388 547.746043133 257.203716988 c 0
 534.360122357 268.677363367 534.360122357 268.677363367 517.598860761 275.382721829 c 0
 500.837599165 282.088080292 500.837599165 282.088080292 480.558725043 284.019401636 c 0
 460.509133726 285.659275644 460.509133726 285.659275644 439.776896831 285.22198217 c 0
 419.044659937 284.784688695 419.044659937 284.784688695 397.585155471 282.254462369 c 0
 376.125651004 279.724236043 376.125651004 279.724236043 354.022688194 275.105706501 c 2
 348.298275869 273.909560642 l 1
 348.006238306 279.750311915 l 2
 344.926929246 341.336493114 344.926929246 341.336493114 371.801459533 383.715560104 c 0
 387.980822875 408.245562591 387.980822875 408.245562591 412.56611826 421.584967395 c 0
 437.151413645 434.924372199 437.151413645 434.924372199 469.709792392 436.991570849 c 0
 559.685048634 442.222690398 559.685048634 442.222690398 581.827174224 366.306831231 c 0
 584 357.615528128 584 357.615528128 584 349 c 0
 584 329.653639817 584 329.653639817 574.323944733 312.989322413 c 0
 572.838536766 310.431119803 572.838536766 310.431119803 571.148135121 308.037442464 c 0
 569.457733476 305.643765125 569.457733476 305.643765125 567.732565543 303.62238419 c 0
 566.00739761 301.601003255 566.00739761 301.601003255 564.27408894 299.910538496 c 0
 562.54078027 298.220073737 562.54078027 298.220073737 560.855502434 296.9148673 c 1
387.745999872 316.66186398 m 1
 411.005021102 322 411.005021102 322 445 322 c 0
 493.678555591 322 493.678555591 322 523.529030043 311.851567043 c 1
 535 325.701701139 535 325.701701139 535 341 c 0
 535 357.82723849 535 357.82723849 521.588408748 370.344723659 c 0
 507.750034031 383.260540061 507.750034031 383.260540061 487.413269096 386.03373528 c 0
 477.750621894 387 477.750621894 387 469 387 c 0
 397.434908279 387 397.434908279 387 387.745999872 316.66186398 c 1
EndSplineSet
EndChar
StartChar: knaasi
Encoding: 3486 3486 126
Width: 647
GlyphClass: 2
Flags: W
LayerCount: 2
Back
Fore
SplineSet
174.094723287 268.001790838 m 1
 184.039037829 267.941031279 184.039037829 267.941031279 197.071415782 266.41059731 c 0
 210.103793736 264.880163342 210.103793736 264.880163342 225.929458341 261.912851228 c 0
 244.218005894 258.452855745 244.218005894 258.452855745 256.929015868 256.459937152 c 0
 269.640025843 254.467018559 269.640025843 254.467018559 276.362678479 253.986829085 c 0
 326.902336361 250.311217602 326.902336361 250.311217602 334.090501086 288.947602997 c 0
 336 298.495097568 336 298.495097568 336 308 c 0
 336 352.289222525 336 352.289222525 295.279044475 378.805193565 c 0
 265.426697915 398.16887782 265.426697915 398.16887782 227.155564462 401.446919229 c 1
 246 380.861926221 246 380.861926221 246 346 c 0
 246 312.714641828 246 312.714641828 218.271883722 288.719156588 c 0
 215.101950161 285.975944852 215.101950161 285.975944852 211.728404258 283.556034533 c 0
 208.354858356 281.136124214 208.354858356 281.136124214 204.819132325 279.064665052 c 0
 201.283406295 276.993205891 201.283406295 276.993205891 197.575392896 275.257052971 c 0
 193.867379496 273.520900052 193.867379496 273.520900052 190.020209546 272.137032045 c 0
 186.173039596 270.753164038 186.173039596 270.753164038 182.185460675 269.717151836 c 0
 178.197881754 268.681139635 178.197881754 268.681139635 174.094723287 268.001790838 c 1
155.323687778 266.892527055 m 1
 154.661603701 266.916441618 154.661603701 266.916441618 153.952522879 266.947614118 c 0
 153.243442058 266.978786619 153.243442058 266.978786619 152.737205834 267.006910853 c 0
 112.821177751 269.107754437 112.821177751 269.107754437 88.9644660941 292.964466094 c 0
 77.0675591345 304.861373054 77.0675591345 304.861373054 71.0337795672 319.208449435 c 0
 65 333.555525817 65 333.555525817 65 350 c 0
 65 370.361541462 65 370.361541462 75.6903289242 388.535100633 c 0
 107.223011339 442.140660738 107.223011339 442.140660738 213.224492484 436.99495777 c 0
 304.298051019 432.901764128 304.298051019 432.901764128 346.713833802 386.347856195 c 0
 381.140363102 347.748414253 381.140363102 347.748414253 376.988675251 290.662706305 c 0
 375.938455925 273.859197094 375.938455925 273.859197094 370.559728848 260.643340399 c 0
 365.18100177 247.427483703 365.18100177 247.427483703 355.66552524 238.056640861 c 0
 346.150048709 228.685798019 346.150048709 228.685798019 332.53014915 223.134870429 c 0
 318.910249591 217.583942839 318.910249591 217.583942839 301.423999152 216.018009964 c 0
 277.601684063 213.976791832 277.601684063 213.976791832 256.081130784 215.769896684 c 0
 234.560577505 217.563001535 234.560577505 217.563001535 215.600731641 223.199712467 c 0
 195.299725277 229 195.299725277 229 174 229 c 0
 115.746343747 229 115.746343747 229 104.793963455 191.579367334 c 0
 102 182.266155818 102 182.266155818 102 173 c 0
 102 118 102 118 198 118 c 0
 234.667456587 118 234.667456587 118 264.011652713 134.836833843 c 0
 292 150.89572163 292 150.89572163 292 172 c 2
 292 196 l 1
 333 196 l 1
 333 172 l 2
 333 162.147539369 333 162.147539369 339.942487497 152.850071824 c 0
 346.884974994 143.55260428 346.884974994 143.55260428 361.562287547 134.793562917 c 0
 391.378528111 117 391.378528111 117 427 117 c 0
 542.224603133 117 542.224603133 117 550.005312933 286.230438143 c 0
 554.910697976 392.186755078 554.910697976 392.186755078 482.776763719 472.662708943 c 0
 410.767118687 553 410.767118687 553 305 553 c 0
 281.595846367 553 281.595846367 553 259.738154533 549.479383803 c 0
 237.8804627 545.958767606 237.8804627 545.958767606 217.522003896 538.90691115 c 0
 197.163545092 531.855054693 197.163545092 531.855054693 178.300681393 521.257392457 c 0
 159.437817694 510.65973022 159.437817694 510.65973022 142.049125903 496.515210715 c 0
 124.660434112 482.37069121 124.660434112 482.37069121 108.716470731 464.655176342 c 2
 107.226812024 463 l 1
 62.7531970734 463 l 1
 69.0588300983 471.076878257 l 2
 159.560214617 587 159.560214617 587 308 587 c 0
 325.129900557 587 325.129900557 587 341.563472646 585.185356207 c 0
 357.997044735 583.370712415 357.997044735 583.370712415 373.708076415 579.745812444 c 0
 389.419108094 576.120912472 389.419108094 576.120912472 404.414538942 570.690997699 c 0
 419.40996979 565.261082925 419.40996979 565.261082925 433.673479847 558.027388305 c 0
 447.936989904 550.793693684 447.936989904 550.793693684 461.464967301 541.764823428 c 0
 474.992944697 532.735953173 474.992944697 532.735953173 487.779620921 521.909779402 c 0
 500.566297145 511.083605632 500.566297145 511.083605632 512.598168346 498.471885217 c 0
 594.884599215 414.153690622 594.884599215 414.153690622 601.990433976 290.309141928 c 0
 609.068559333 176.04797545 609.068559333 176.04797545 571.54584831 94.9177894548 c 0
 526.222314949 -5 526.222314949 -5 431 -5 c 0
 385.60097685 -5 385.60097685 -5 356.461761424 12.6916665087 c 0
 336.442676414 24.1311436574 336.442676414 24.1311436574 313.072256692 51.1837195421 c 1
 289.644244902 23.4565915948 289.644244902 23.4565915948 261.493611664 9.47684667379 c 0
 233.342978425 -4.50289824724 233.342978425 -4.50289824724 200.079355083 -4.99937023742 c 0
 134.961912623 -6.03298043519 134.961912623 -6.03298043519 89.9644660941 38.9644660941 c 0
 45 83.9289321881 45 83.9289321881 45 144 c 0
 45 172.051363894 45 172.051363894 56.4011054283 197.96296714 c 0
 62.6880694098 213.156463429 62.6880694098 213.156463429 74.0018800837 225.78459807 c 0
 85.3156907576 238.41273271 85.3156907576 238.41273271 101.38718971 248.263006262 c 0
 113.544200895 255.714077633 113.544200895 255.714077633 127.099925571 260.388556021 c 0
 140.655650248 265.063034409 140.655650248 265.063034409 155.323687778 266.892527055 c 1
110 351 m 0
 110 331.12263599 110 331.12263599 122.972972568 318.597007303 c 0
 136.01987299 306 136.01987299 306 154 306 c 0
 173.98012701 306 173.98012701 306 187.027027432 318.597007303 c 0
 200 331.12263599 200 331.12263599 200 350 c 0
 200 368.87736401 200 368.87736401 187.027027432 381.402992697 c 0
 173.98012701 394 173.98012701 394 156 394 c 0
 146.378743538 394 146.378743538 394 138.314867727 390.86408214 c 0
 130.250991917 387.728164279 130.250991917 387.728164279 123.411591252 381.344723659 c 0
 116.607952502 374.994660826 116.607952502 374.994660826 113.303976251 367.505737975 c 0
 110 360.016815125 110 360.016815125 110 351 c 0
EndSplineSet
EndChar
StartChar: nga
Encoding: 3487 3487 128
Width: 749
GlyphClass: 2
Flags: W
LayerCount: 2
Back
Fore
SplineSet
229.691002101 399.816650052 m 1
 153.196461608 401.235325028 153.196461608 401.235325028 101.757201125 342.700994134 c 0
 84.5114607367 323.060012025 84.5114607367 323.060012025 75.7557303684 292.662530132 c 0
 67 262.26504824 67 262.26504824 67 221 c 0
 67 103.175665974 67 103.175665974 138.408018276 36.6586078546 c 2
 140 35.1756659743 l 1
 140 -8.09016994375 l 1
 132.763932023 -4.472135955 l 2
 77.1488136443 23.3354232341 77.1488136443 23.3354232341 47.421058956 90.9916925246 c 0
 22 148.951706944 22 148.951706944 22 221 c 0
 22 253.502166909 22 253.502166909 27.0981867601 280.522044406 c 0
 32.1963735202 307.541921904 32.1963735202 307.541921904 42.4972418182 329.173745329 c 0
 85.6256700124 418.511203732 85.6256700124 418.511203732 179.162926502 433.929432823 c 0
 232.726923155 443.02520584 232.726923155 443.02520584 367.2979769 434.991113079 c 2
 372 434.710395282 l 1
 372 401.008936415 l 1
 366.105572809 402.08065045 l 2
 360.823855625 403.040962665 360.823855625 403.040962665 355.549153056 403.520481332 c 0
 350.274450486 404 350.274450486 404 345 404 c 0
 283.134330052 404 283.134330052 404 239.110732042 358.041298781 c 0
 195.125018666 312.122147455 195.125018666 312.122147455 198.991607813 249.290073817 c 0
 205.744437846 125.809753204 205.744437846 125.809753204 323.173779188 120.99707528 c 0
 356.958868356 120.031787018 356.958868356 120.031787018 385.848981761 133.513839941 c 0
 420 150.127848814 420 150.127848814 420 179 c 0
 420 213 420 213 385 213 c 0
 376.208977318 213 376.208977318 213 365.219541432 209.229115137 c 1
 362 195.927325536 362 195.927325536 362 192 c 2
 362 187 l 1
 327.575204672 187 l 1
 328.016576921 192.406810047 l 2
 336.129208786 291.786550394 336.129208786 291.786550394 384.941389709 359.920219599 c 0
 445.59619785 444.220122439 445.59619785 444.220122439 543.42103449 435.982241459 c 0
 567.752541492 433.926057769 567.752541492 433.926057769 589.116615905 425.753170035 c 0
 610.480690319 417.5802823 610.480690319 417.5802823 628.720166734 403.374032205 c 0
 646.95964315 389.167782111 646.95964315 389.167782111 661.995258643 369.006388608 c 0
 675.96945845 350.60134496 675.96945845 350.60134496 685.750602461 329.429968196 c 0
 695.531746473 308.258591433 695.531746473 308.258591433 701.085102684 284.468366374 c 0
 706.638458895 260.678141314 706.638458895 260.678141314 707.993232082 234.260064171 c 0
 710.538720736 185.38668201 710.538720736 185.38668201 696.979517264 143.432162371 c 0
 683.420313792 101.477642731 683.420313792 101.477642731 653.785296714 66.7331399501 c 0
 590.27185056 -6 590.27185056 -6 485 -6 c 0
 469.688711259 -6 469.688711259 -6 453.379826327 -3.96138938357 c 2
 449 -3.41391109269 l 1
 449 32.3993864655 l 1
 454.383482494 31.9852724275 l 2
 467.192024052 31 467.192024052 31 480 31 c 0
 551.05059224 31 551.05059224 31 593.115633928 69.6804981035 c 0
 635 108.19485771 635 108.19485771 635 174 c 0
 635 226.486121811 635 226.486121811 607.867206243 267.185312447 c 0
 592.41230518 289.401732725 592.41230518 289.401732725 572.060283863 302.567206324 c 0
 551.708262546 315.732679924 551.708262546 315.732679924 526.090979309 320.082784625 c 0
 511.504902432 323 511.504902432 323 497 323 c 0
 472.71274787 323 472.71274787 323 451.875901666 316.616545336 c 0
 431.039055462 310.233090672 431.039055462 310.233090672 413.43756193 297.453924135 c 0
 397.759875223 286.07149406 397.759875223 286.07149406 387.594060824 272.813314373 c 0
 377.428246425 259.555134687 377.428246425 259.555134687 372.833281089 245.175865056 c 1
 379.701072293 246 379.701072293 246 386 246 c 0
 404.98638385 246 404.98638385 246 420.815293819 238.759738614 c 0
 436.644203788 231.519477227 436.644203788 231.519477227 448.750431662 217.307818419 c 0
 453.161028873 212.47716433 453.161028873 212.47716433 456.832281542 207.01697778 c 0
 460.50353421 201.556791229 460.50353421 201.556791229 463.402829849 195.53186136 c 0
 466.302125488 189.506931491 466.302125488 189.506931491 468.450671109 182.908318059 c 0
 470.599216729 176.309704627 470.599216729 176.309704627 471.981105915 169.184157106 c 0
 473.362995101 162.058609585 473.362995101 162.058609585 473.982728791 154.415227399 c 0
 480.175310824 80.1042430117 480.175310824 80.1042430117 434.535533906 34.4644660941 c 0
 388.934911125 -11.1361566872 388.934911125 -11.1361566872 309.66293071 -5.98862549143 c 0
 233.319130512 -0.830260613191 233.319130512 -0.830260613191 187.950289392 62.0674509392 c 0
 145 121.379755338 145 121.379755338 145 204 c 0
 145 307.881780613 145 307.881780613 203.207692566 374.258973889 c 0
 208.905719373 381.025380723 208.905719373 381.025380723 215.894889167 387.737986705 c 0
 222.884058961 394.450592687 222.884058961 394.450592687 229.691002101 399.816650052 c 1
EndSplineSet
EndChar
StartChar: Ja
Encoding: 3489 3489 131
Width: 598
GlyphClass: 2
Flags: W
LayerCount: 2
Back
Fore
SplineSet
324.900980486 292 m 1
 329 292 l 1
 329 292 329 292 332.074599907 291.893292064 c 2
 333.850123959 289.487796942 l 1
 324.900980486 292 l 1
322.97890551 281.292385457 m 1
 312.840356322 280.475858006 312.840356322 280.475858006 292.35623525 279.012706501 c 2
 288.484160652 278.736129744 l 1
 287.25658351 282.41886117 l 2
 281 301.188611699 281 301.188611699 281 322 c 0
 281 363.602325267 281 363.602325267 304.431332644 396.406190969 c 0
 327.192322786 428.271577167 327.192322786 428.271577167 364.463863594 435.45571271 c 1
 386.286506909 485.485889756 386.286506909 485.485889756 436.260375482 542.31891676 c 0
 508.752336857 624 508.752336857 624 544 624 c 0
 573 624 573 624 573 597 c 0
 573 583.169048105 573 583.169048105 560.51916035 575.680544315 c 0
 545.594618852 567.223304133 545.594618852 567.223304133 524.050530577 553.112387899 c 0
 502.506442303 539.001471666 502.506442303 539.001471666 474.093699457 519.062704757 c 0
 423.42395869 474.615563732 423.42395869 474.615563732 406.645417378 437.502813528 c 1
 412.329515329 437.772318172 412.329515329 437.772318172 418.030723223 437.886159086 c 0
 423.731931117 438 423.731931117 438 431.036229982 438 c 0
 503.460220378 436.950376951 503.460220378 436.950376951 530.666728031 365.794895397 c 0
 536 351.928388277 536 351.928388277 536 331 c 0
 536 309.316508945 536 309.316508945 532.512384638 292.219377583 c 0
 529.024769277 275.122246222 529.024769277 275.122246222 522.009988374 262.328123441 c 1
 533.930032788 246.026228381 533.930032788 246.026228381 541.359874626 228.899308893 c 0
 548.789716465 211.772389405 548.789716465 211.772389405 551.894041274 193.639942897 c 0
 554.998366083 175.507496389 554.998366083 175.507496389 553.991766333 155.71103464 c 0
 548.812493245 75.9502290701 548.812493245 75.9502290701 472.445008552 33.6385145783 c 0
 404.319206532 -5 404.319206532 -5 298 -5 c 0
 181.697797249 -5 181.697797249 -5 112.543394065 33.6451076613 c 0
 72.5501207702 56.2054156739 72.5501207702 56.2054156739 51.3057525452 89.8847182697 c 0
 30.0613843202 123.564020866 30.0613843202 123.564020866 28.0062175419 167.7501066 c 0
 24.8838570527 226.034169063 24.8838570527 226.034169063 67.5612767604 266.62976342 c 0
 106.756457669 303.76204007 106.756457669 303.76204007 165.351310278 310.957899162 c 0
 181.975930032 313.266874128 181.975930032 313.266874128 199.58288092 314.090084936 c 0
 217.189831809 314.913295744 217.189831809 314.913295744 233.369402406 314.232904851 c 1
 234.787814568 342.70621566 234.787814568 342.70621566 223.187921081 362.468997156 c 0
 211.137115064 383 211.137115064 383 187 383 c 0
 173.192475598 383 173.192475598 383 164.884546061 378.098404982 c 0
 156.576616523 373.196809964 156.576616523 373.196809964 152.644466459 363.147982024 c 0
 145.724385009 346.113935378 145.724385009 346.113935378 134.256783293 335.740832525 c 0
 122.789181576 325.367729673 122.789181576 325.367729673 106.917858115 322.084007577 c 0
 100.413812651 321 100.413812651 321 95 321 c 0
 52 321 52 321 52 364 c 0
 52 372.02628851 52 372.02628851 55.3865321773 379.928196923 c 0
 78.6380075048 437 78.6380075048 437 150 437 c 0
 204.900996612 437 204.900996612 437 237.821819194 407.737046593 c 0
 271 378.245330322 271 378.245330322 271 323 c 0
 271 313.740924195 271 313.740924195 269.976321922 303.760178237 c 0
 268.952643845 293.779432278 268.952643845 293.779432278 266.911692832 283.064439461 c 2
 266.015887424 278.361461069 l 1
 261.278465535 279.052335095 l 2
 237.685583512 282.495457516 237.685583512 282.495457516 213.297921765 282.249359119 c 0
 188.910260017 282.003260722 188.910260017 282.003260722 163.796162194 278.063794396 c 0
 134.212695613 273.292267529 134.212695613 273.292267529 111.292523039 253.237116526 c 0
 100.007184481 243.362445288 100.007184481 243.362445288 94.5035922404 231.896394899 c 0
 89 220.430344511 89 220.430344511 89 207 c 0
 89 194.02628851 89 194.02628851 94.5780355907 181.010872132 c 0
 111.544682016 143.307213409 111.544682016 143.307213409 169.132567473 129.870040135 c 0
 211.573740055 120 211.573740055 120 300 120 c 0
 473.821785474 120 473.821785474 120 502.460203077 181.095290887 c 0
 508 193.098184219 508 193.098184219 508 205 c 2
 505.714596657 220.286492386 l 1
 487.152930402 182.339680678 487.152930402 182.339680678 459.446682438 166.639473498 c 0
 449.799025689 161.279664194 449.799025689 161.279664194 438.184611866 158.639832097 c 0
 426.570198043 156 426.570198043 156 413 156 c 0
 408.533801017 156 408.533801017 156 404.236369392 156.322911947 c 0
 399.938937767 156.645823893 399.938937767 156.645823893 395.741019425 157.300812311 c 0
 391.543101083 157.955800728 391.543101083 157.955800728 387.44803101 158.950508824 c 0
 383.352960937 159.945216921 383.352960937 159.945216921 379.331050227 161.285853824 c 0
 344.99077223 174.163458073 344.99077223 174.163458073 330.25105512 219.43544634 c 0
 319.308527234 252.263029998 319.308527234 252.263029998 322.97890551 281.292385457 c 1
347.055639415 392.699160445 m 1
 318 367.950186951 318 367.950186951 318 323 c 0
 318 317.714448539 318 317.714448539 318.466657903 312.284247482 c 1
 320.888608631 312.607174245 320.888608631 312.607174245 322.605572809 312.91934955 c 2
 326.83699326 313.628558977 l 1
 330.005987298 329.012584579 330.005987298 329.012584579 336.12279499 356.101304357 c 0
 338.349664798 365.963156364 338.349664798 365.963156364 341.211272458 375.48197855 c 0
 344.072880118 385.000800737 344.072880118 385.000800737 347.055639415 392.699160445 c 1
391.078756579 400.4652475 m 1
 379.982277094 382.046965508 379.982277094 382.046965508 373.304187313 360.12146087 c 0
 366.626097532 338.195956232 366.626097532 338.195956232 364.420834723 313.985351672 c 1
 415.233000458 313.625746819 415.233000458 313.625746819 441.084652289 307.880935301 c 0
 451.506497786 305.564969635 451.506497786 305.564969635 461.105623047 302.482158539 c 0
 470.704748308 299.399347443 470.704748308 299.399347443 478.812700483 295.829195348 c 0
 486.920652658 292.259043252 486.920652658 292.259043252 493.547847975 288.260589292 c 1
 498 311.605847987 498 311.605847987 498 325 c 0
 498 333.039777283 498 333.039777283 496.942838444 340.297023525 c 0
 495.885676889 347.554269768 495.885676889 347.554269768 493.790201952 354.006951905 c 0
 491.694727016 360.459634041 491.694727016 360.459634041 488.545916937 366.179919451 c 0
 485.397106857 371.90020486 485.397106857 371.90020486 481.23909862 376.860070499 c 0
 477.081090384 381.819936138 477.081090384 381.819936138 471.873573415 386.097539362 c 0
 442.334996472 409.174552599 442.334996472 409.174552599 391.078756579 400.4652475 c 1
362.575236546 281.982583546 m 1
 362 274.312762933 362 274.312762933 362 267 c 0
 362 256.284640515 362 256.284640515 363.170908209 247.161178621 c 0
 364.341816418 238.037716727 364.341816418 238.037716727 366.682269061 230.528696284 c 0
 369.022721704 223.019675841 369.022721704 223.019675841 372.473709915 217.011442624 c 0
 375.924698126 211.003209406 375.924698126 211.003209406 380.545196385 206.455904979 c 0
 385.165694644 201.908600552 385.165694644 201.908600552 390.83233328 198.775133136 c 0
 396.498971916 195.641665721 396.498971916 195.641665721 403.331063663 193.819774588 c 0
 406.569990589 192.894366895 406.569990589 192.894366895 409.697395282 192.447183448 c 0
 412.824799974 192 412.824799974 192 416 192 c 0
 453.487029468 192 453.487029468 192 478.255259323 253.060330063 c 1
 463.336594349 269.057621519 463.336594349 269.057621519 428.98697198 276.103697902 c 0
 402.079767781 281.670705668 402.079767781 281.670705668 362.575236546 281.982583546 c 1
EndSplineSet
EndChar
StartChar: ja
Encoding: 3490 3490 132
Width: 598
GlyphClass: 2
Flags: W
LayerCount: 2
Back
Fore
SplineSet
93.7502590156 192.56631413 m 0
 106.397036213 157.436377471 106.397036213 157.436377471 157.730756552 139.218188736 c 0
 209.064476891 121 209.064476891 121 300 121 c 0
 467.181020795 121 467.181020795 121 487.176180894 194.315587029 c 0
 487.25658351 194.58113883 l 2
 488.634496539 198.714877918 488.634496539 198.714877918 489.31724827 202.811350558 c 0
 490 206.907823198 490 206.907823198 490 211 c 0
 490 238.509843746 490 238.509843746 472.179409762 255.408590951 c 0
 454.358819523 272.307338156 454.358819523 272.307338156 417.112672361 279.079364913 c 0
 356.987965767 289.921525118 356.987965767 289.921525118 300.86399739 280.075214877 c 2
 296.453733715 279.301484407 l 1
 295.2 283.6 l 2
 288 308.285714286 288 308.285714286 288 331 c 0
 288 413.332826074 288 413.332826074 374.193572269 437.162813701 c 1
 393.636655016 489.790466013 393.636655016 489.790466013 436.11244464 542.144346247 c 0
 492.123709389 611.39463721 492.123709389 611.39463721 533.674217585 622.821026964 c 0
 533.915347711 622.880935301 l 2
 543.451138857 625 543.451138857 625 552 625 c 0
 594 625 594 625 594 591 c 0
 594 586.049444276 594 586.049444276 592.766441429 581.351596344 c 0
 591.532882859 576.653748412 591.532882859 576.653748412 589.134384912 572.349390092 c 0
 586.735886965 568.045031773 586.735886965 568.045031773 583.207678896 564.14543338 c 0
 571.588831991 552.358392528 571.588831991 552.358392528 533.924565282 536.385204295 c 0
 528.842632098 534.286144937 528.842632098 534.286144937 524.143999974 532.305976821 c 0
 519.44536785 530.325808705 519.44536785 530.325808705 515.209672626 528.498929699 c 0
 510.973977401 526.672050693 510.973977401 526.672050693 507.132523296 524.970606049 c 0
 503.291069192 523.269161404 503.291069192 523.269161404 499.90519312 521.720231572 c 0
 496.519317047 520.171301739 496.519317047 520.171301739 493.539842083 518.754837216 c 0
 490.560367118 517.338372692 490.560367118 517.338372692 488.02911132 516.073648681 c 0
 485.497855522 514.808924671 485.497855522 514.808924671 483.385160819 513.683696916 c 0
 481.272466116 512.558469161 481.272466116 512.558469161 479.600631713 511.584207621 c 0
 477.92879731 510.609946081 477.92879731 510.609946081 476.686464062 509.781723916 c 0
 430.698508469 481.828260712 430.698508469 481.828260712 413.168828055 438 c 1
 429.932444767 438 l 2
 442.725373442 438.345754829 442.725373442 438.345754829 454.394938083 436.061044572 c 0
 466.064502725 433.776334314 466.064502725 433.776334314 476.564955735 428.835927081 c 0
 487.065408745 423.895519848 487.065408745 423.895519848 496.186321799 416.353226362 c 0
 523.927009192 393.413811786 523.927009192 393.413811786 524.998438281 359.128080931 c 0
 525.315119819 343.294004063 525.315119819 343.294004063 520.946517813 330.14625471 c 0
 516.577915807 316.998505357 516.577915807 316.998505357 507.730585446 306.759859246 c 0
 498.883255086 296.521213135 498.883255086 296.521213135 485.603359736 289.063890832 c 1
 514.625569117 273.603461536 514.625569117 273.603461536 533.808153188 241.037679275 c 0
 556.059544981 203.262060651 556.059544981 203.262060651 553.996209409 155.805342491 c 0
 552.446309608 116.024580937 552.446309608 116.024580937 532.163460749 85.3371529656 c 0
 511.88061189 54.6497249944 511.88061189 54.6497249944 473.432678169 33.6315212264 c 0
 405.319206532 -5 405.319206532 -5 298 -5 c 0
 181.701238837 -5 181.701238837 -5 110.586097454 34.6212930563 c 0
 30.6460650123 79.9985092025 30.6460650123 79.9985092025 28.0007692899 167.912294198 c 0
 26.9629106467 227.070236865 26.9629106467 227.070236865 70.5554304306 269.624839511 c 0
 111.793410168 307.769970768 111.793410168 307.769970768 171.424357929 314.966809291 c 0
 196.693538116 317.774495978 196.693538116 317.774495978 230.529298843 316.237198707 c 0
 230.781431208 319.171102592 230.781431208 319.171102592 230.890715604 321.702338678 c 0
 231 324.233574763 231 324.233574763 231 327 c 0
 231 353.001324311 231 353.001324311 220.61308997 365.818143256 c 0
 210.226179941 378.6349622 210.226179941 378.6349622 188.744625943 380.006125221 c 0
 165.743473927 380.890784914 165.743473927 380.890784914 153.266409168 360.392749953 c 0
 141.83560304 341.68779447 141.83560304 341.68779447 135.200921998 336.158893602 c 0
 114.841043506 324.708407532 114.841043506 324.708407532 108.178994246 323.140866529 c 0
 103.960724132 322.086299001 103.960724132 322.086299001 100.157011734 321.543149501 c 0
 96.3532993364 321 96.3532993364 321 93 321 c 0
 52 321 52 321 52 361 c 0
 52 370.906672909 52 370.906672909 55.3568820336 379.858358332 c 0
 79.6949886701 437 79.6949886701 437 154 437 c 0
 205.898130045 437 205.898130045 437 238.318072993 408.240373192 c 0
 271 379.248341169 271 379.248341169 271 326 c 0
 271 322.29106017 271 322.29106017 270.835270554 318.502738415 c 0
 270.670541107 314.714416659 270.670541107 314.714416659 270.342144546 310.856085556 c 0
 270.013747986 306.997754453 270.013747986 306.997754453 269.521429756 303.059788061 c 0
 269.029111527 299.121821669 269.029111527 299.121821669 268.374746774 295.114317105 c 0
 267.720382022 291.10681254 267.720382022 291.10681254 266.902903378 287.019419324 c 2
 266.011950295 282.564653906 l 1
 261.49243156 283.025829287 l 2
 213.23227942 287.950334608 213.23227942 287.950334608 162.99985596 278.100839812 c 0
 152.423048947 275.857274688 152.423048947 275.857274688 143.095076855 272.2308078 c 0
 133.767104762 268.604340913 133.767104762 268.604340913 125.738825527 263.636832253 c 0
 117.710546293 258.669323593 117.710546293 258.669323593 110.905519712 252.339066309 c 0
 100.817060727 242.954453299 100.817060727 242.954453299 95.9085303633 232.45278898 c 0
 91 221.95112466 91 221.95112466 91 210 c 0
 91 207.258271039 91 207.258271039 91.294226259 204.453022673 c 0
 91.588452518 201.647774306 91.588452518 201.647774306 92.2014839807 198.666616838 c 0
 92.8145154433 195.685459371 92.8145154433 195.685459371 93.7502590156 192.56631413 c 0
356.148640893 342.789062726 m 0
 350.32642038 365.246198988 350.32642038 365.246198988 358.425503968 393.685026587 c 1
 328 370.346286094 328 370.346286094 328 334 c 0
 328 325.644226792 328 325.644226792 330.02233805 314.352839346 c 1
 341.366107539 315.203622058 341.366107539 315.203622058 358.772961695 315.994842701 c 0
 359 316 l 2
 363.399289238 316 363.399289238 316 369.164003501 315.610970203 c 1
 367.085742134 318.130074891 367.085742134 318.130074891 365.393762792 320.63053008 c 0
 363.701783451 323.130985268 363.701783451 323.130985268 362.343291547 325.652132363 c 0
 360.984799642 328.173279459 360.984799642 328.173279459 359.861039623 330.935439229 c 0
 358.737279604 333.697599 358.737279604 333.697599 357.846672786 336.561195292 c 0
 356.956065967 339.424791584 356.956065967 339.424791584 356.148640893 342.789062726 c 0
393 359 m 0
 393 348.943581394 393 348.943581394 396.443113315 340.83548877 c 0
 399.88622663 332.727396145 399.88622663 332.727396145 406.915785644 326.151357068 c 0
 414.018362021 319.507011424 414.018362021 319.507011424 422.208181643 316.253505712 c 0
 430.398001265 313 430.398001265 313 440 313 c 0
 458.032736016 313 458.032736016 313 471.09290736 325.159469872 c 0
 484 337.176418192 484 337.176418192 484 355 c 0
 484 359.535899129 484 359.535899129 483.197745853 363.764666225 c 0
 482.395491707 367.993433322 482.395491707 367.993433322 480.76533805 371.991547241 c 0
 479.135184393 375.989661161 479.135184393 375.989661161 476.661821676 379.751863675 c 0
 474.188458959 383.51406619 474.188458959 383.51406619 470.848642932 387.084214356 c 0
 464.29324232 394.091711562 464.29324232 394.091711562 455.936101425 397.545855781 c 0
 447.578960531 401 447.578960531 401 437 401 c 0
 418.967263984 401 418.967263984 401 405.90709264 388.840530128 c 0
 393 376.823581808 393 376.823581808 393 359 c 0
EndSplineSet
EndChar
StartChar: kdha
Encoding: 3491 3491 134
Width: 1079
GlyphClass: 2
Flags: W
LayerCount: 2
Back
Fore
SplineSet
180.74543981 262.766953781 m 1
 153.461907617 239.209825699 153.461907617 239.209825699 132.140441761 208.196784453 c 0
 121.544297453 192.302567991 121.544297453 192.302567991 91.8359606274 134.259904918 c 1
 112.826110926 140.661759125 112.826110926 140.661759125 136.58113883 132.74341649 c 0
 186.598622052 116.070922083 186.598622052 116.070922083 208.633629401 117.987009679 c 0
 224.862771828 118.960758224 224.862771828 118.960758224 236.838076681 122.109015306 c 0
 248.813381533 125.257272388 248.813381533 125.257272388 256.0006779 130.046647933 c 0
 263.187974266 134.836023477 263.187974266 134.836023477 266.581060418 141.339438602 c 0
 274.93425366 157.117692504 274.93425366 157.117692504 274.006910853 174.737205834 c 2
 273.729921687 180 l 1
 314 180 l 1
 314 175 l 2
 314 172.291400698 314 172.291400698 314.672281423 167.519062401 c 0
 315.344562847 162.746724104 315.344562847 162.746724104 316.642655283 156.343450738 c 0
 317.94074772 149.940177371 317.94074772 149.940177371 319.704069228 142.797834695 c 0
 334.49320161 115.386016684 334.49320161 115.386016684 398.472178067 121.972087789 c 0
 458 128.482943313 458 128.482943313 458 181 c 0
 458 218.526095578 458 218.526095578 422.002101879 245.998175723 c 0
 389.000109995 270.264346226 389.000109995 270.264346226 342.258396247 278.05463185 c 0
 335.089459089 279.010490138 335.089459089 279.010490138 325.934937235 279.505245069 c 0
 316.780415381 280 316.780415381 280 306 280 c 0
 262.110203523 280 262.110203523 280 230.619456818 275.583196847 c 0
 199.128710113 271.166393695 199.128710113 271.166393695 180.74543981 262.766953781 c 1
478.206042109 247.647668084 m 1
 500.779815936 350.02649412 500.779815936 350.02649412 584.857231635 387.371032723 c 1
 554.158037902 394.071358241 l 2
 534.326561351 397.541866638 534.326561351 397.541866638 515.555491397 399.270933319 c 0
 496.784421443 401 496.784421443 401 479 401 c 0
 430.604233961 401 430.604233961 401 378.184780901 388.142398306 c 0
 337.885055674 378.313197031 337.885055674 378.313197031 288.513102287 349.677464067 c 0
 282.077324014 345.935732513 282.077324014 345.935732513 275.825084847 342.040916459 c 0
 269.57284568 338.146100406 269.57284568 338.146100406 263.789138059 334.28791376 c 0
 258.005430437 330.429727113 258.005430437 330.429727113 252.567741101 326.54659097 c 0
 247.130051765 322.663454828 247.130051765 322.663454828 242.223374602 318.889386378 c 0
 237.316697438 315.115317929 237.316697438 315.115317929 232.91851774 311.444434985 c 1
 270.154127024 318 270.154127024 318 304 318 c 0
 361.427174313 318 361.427174313 318 405.35177668 300.172619524 c 0
 449.276379046 282.345239047 449.276379046 282.345239047 478.206042109 247.647668084 c 1
105.796331541 56.2878609406 m 0
 98.2195140987 67.2321528014 98.2195140987 67.2321528014 89.6267606108 68.0133122094 c 0
 60.2167659407 69.7433118959 60.2167659407 69.7433118959 50.9362056036 12.2038378059 c 2
 49.9885334631 6.328270535 l 1
 14.3436074945 18.6668987549 l 1
 15.0742732659 22.858612917 l 2
 34.2614488495 132.932409686 34.2614488495 132.932409686 102.876355741 232.827641778 c 0
 126.76936964 267.67162038 126.76936964 267.67162038 189.060840982 330.130726263 c 1
 190.156736459 382.671677357 190.156736459 382.671677357 162.345544149 386.04273097 c 0
 157.755973254 386.698383955 157.755973254 386.698383955 153.875668294 386.704182354 c 0
 149.995363334 386.709980752 149.995363334 386.709980752 146.715253957 386.068652131 c 0
 143.43514458 385.42732351 143.43514458 385.42732351 140.776409618 384.087095634 c 0
 138.117674657 382.746867758 138.117674657 382.746867758 136.007581042 380.749056186 c 0
 133.897487427 378.751244615 133.897487427 378.751244615 132.318454223 376.002916588 c 0
 130.73942102 373.25458856 130.73942102 373.25458856 129.657474927 369.838220162 c 0
 128.575528833 366.421851764 128.575528833 366.421851764 127.936751633 362.205922241 c 0
 123.773210632 337.745118861 123.773210632 337.745118861 118.117009374 322.28204656 c 0
 112.460808115 306.818974259 112.460808115 306.818974259 104.373743858 299.309557449 c 0
 92.9186800262 289 92.9186800262 289 72 289 c 0
 44.6581252701 289 44.6581252701 289 33.158893602 302.799078002 c 0
 22 316.189750324 22 316.189750324 22 336 c 0
 22 364.690785846 22 364.690785846 44.0261609304 393.534568017 c 0
 65.9758177182 422.278166191 65.9758177182 422.278166191 98.5268284667 432.778492239 c 0
 116.279954853 438 116.279954853 438 136 438 c 0
 157.283184229 438 157.283184229 438 174.561936846 432.196828368 c 0
 191.840689464 426.393656737 191.840689464 426.393656737 204.840626868 414.720243558 c 0
 227.559293886 394.319807868 227.559293886 394.319807868 230.591832952 356.196459608 c 1
 244.659732886 368.619341437 244.659732886 368.619341437 261.721800871 379.452729116 c 0
 278.783868856 390.286116795 278.783868856 390.286116795 298.922423134 399.698631041 c 0
 319.060977412 409.111145288 319.060977412 409.111145288 343.348247876 417.719291782 c 0
 404.150271357 439 404.150271357 439 469 439 c 0
 495.267087599 439 495.267087599 439 523.530324907 435.971796003 c 0
 599.145069246 427.906223273 599.145069246 427.906223273 667.725328223 402.692892767 c 2
 671 401.48896932 l 1
 671 367.550420835 l 1
 665.570558289 368.018476155 l 2
 637.670985147 370.423611771 637.670985147 370.423611771 612.897898047 360.609994031 c 0
 588.124810946 350.79637629 588.124810946 350.79637629 566.05480069 328.483838448 c 0
 522.229243724 284.176681956 522.229243724 284.176681956 528.972632228 222.522844213 c 0
 534.324270437 169.492974682 534.324270437 169.492974682 559.839865905 143.746487341 c 0
 585.355461373 118 585.355461373 118 632 118 c 0
 671.531490568 118 671.531490568 118 698.32300008 135.223113258 c 0
 728 153.771238208 728 153.771238208 728 185 c 2
 728 223 l 1
 769 223 l 1
 769 185 l 2
 769 169.172211236 769 169.172211236 775.598180951 157.114010482 c 0
 782.196361903 145.055809727 782.196361903 145.055809727 795.740131287 136.182305648 c 0
 809.602469432 127.100084104 809.602469432 127.100084104 826.126629608 122.550042052 c 0
 842.650789784 118 842.650789784 118 862 118 c 0
 900.073814759 118 900.073814759 118 926.508200343 135.984914221 c 0
 952.942585927 153.969828442 952.942585927 153.969828442 968.16466113 190.980162351 c 0
 983.386736333 227.990496259 983.386736333 227.990496259 987.009399406 284.306440387 c 0
 990.45245035 340.378984338 990.45245035 340.378984338 974.059505598 387.722976621 c 0
 957.666560846 435.066968904 957.666560846 435.066968904 921.340134301 474.093332557 c 0
 897.122071917 500.111386064 897.122071917 500.111386064 868.751278522 517.411117212 c 0
 840.380485126 534.71084836 840.380485126 534.71084836 807.715126957 543.35542418 c 0
 775.049768788 552 775.049768788 552 738 552 c 0
 678.990525511 552 678.990525511 552 630.282653932 530.216041907 c 0
 581.574782352 508.432083814 581.574782352 508.432083814 542.73936377 464.680789462 c 2
 541.247427057 463 l 1
 499.928469824 463 l 1
 506.017134173 471.022710672 l 2
 592.517755538 585 592.517755538 585 744 585 c 0
 865.141139897 585 865.141139897 585 948.598916894 497.471111929 c 0
 1029.8846194 414.153266859 1029.8846194 414.153266859 1036.99308915 290.262794166 c 0
 1043.05742209 175.040468306 1043.05742209 175.040468306 1006.56054969 94.9501094464 c 0
 962.252769218 -5 962.252769218 -5 867 -5 c 0
 830.492407287 -5 830.492407287 -5 800.738355297 9.05825284188 c 0
 770.984303306 23.1165056838 770.984303306 23.1165056838 747.929392427 51.0167857632 c 1
 701.413936876 -4.00915920356 701.413936876 -4.00915920356 634.097720502 -4.99910356201 c 0
 554.599678236 -6.93808020263 554.599678236 -6.93808020263 508.374643387 65.913538577 c 1
 496.592401888 34.6488024605 496.592401888 34.6488024605 469.335508665 15.8817612247 c 0
 436.881865943 -5.70004501085 436.881865943 -5.70004501085 397 -6 c 0
 330.168506612 -6 330.168506612 -6 296.363109668 51.7977001175 c 1
 267.120059266 -3.48984085838 267.120059266 -3.48984085838 207.13745141 -5.99815535503 c 0
 162.014650218 -7.0475228246 162.014650218 -7.0475228246 120.486841995 33.4420901935 c 0
 118.029221981 35.8997102074 118.029221981 35.8997102074 105.796331541 56.2878609406 c 0
EndSplineSet
Ligature2: "Ligature Substitution lookup 11 subtable" ka al uni200D dha
EndChar
StartChar: gna
Encoding: 3493 3493 137
Width: 842
GlyphClass: 2
Flags: W
LayerCount: 2
Back
Fore
SplineSet
356.788354589 245.19010781 m 1
 359.708639984 245.543109341 359.708639984 245.543109341 361.669994578 245.715325932 c 0
 363.631349172 245.887542522 363.631349172 245.887542522 365.188257789 245.943771261 c 0
 366.745166406 246 366.745166406 246 369 246 c 0
 400.668223499 246 400.668223499 246 422.707130625 227.066181361 c 1
 439.268820288 271.927457244 439.268820288 271.927457244 488.480644872 300.318894504 c 0
 525.648254293 322 525.648254293 322 637 322 c 2
 725.665766665 322 l 1
 723.3524198 330.258236371 723.3524198 330.258236371 719.348215041 337.933839636 c 0
 715.344010281 345.609442901 715.344010281 345.609442901 709.556093967 352.820819897 c 0
 703.768177653 360.032196894 703.768177653 360.032196894 696.182564148 366.759061699 c 0
 683.79207529 377.746853705 683.79207529 377.746853705 668.597296868 381.574728155 c 0
 653.402518446 385.402602604 653.402518446 385.402602604 634.902395051 382.082067636 c 0
 621.201356634 379.513122933 621.201356634 379.513122933 609.847282787 359.529952962 c 0
 596.125694507 335.379957589 596.125694507 335.379957589 571.727770247 332.052967917 c 0
 561.37194497 330.417837611 561.37194497 330.417837611 552.567009728 332.58440404 c 0
 543.762074486 334.750970469 543.762074486 334.750970469 537.12865318 340.80757253 c 0
 530.642734879 346.729497935 530.642734879 346.729497935 527.32136744 354.382986208 c 0
 524 362.03647448 524 362.03647448 524 371 c 2
 526.357616546 383.856953382 l 2
 527.951861896 387.842566757 527.951861896 387.842566757 532.338024575 395.680801916 c 1
 520.994120902 398 520.994120902 398 510 398 c 0
 455.223570523 398 455.223570523 398 410.724996622 348.664624588 c 0
 398.451264261 334.856675681 398.451264261 334.856675681 388.333178768 318.656806019 c 0
 378.215093276 302.456936356 378.215093276 302.456936356 370.348391626 284.108411505 c 0
 362.481689977 265.759886655 362.481689977 265.759886655 356.788354589 245.19010781 c 1
442.743299357 69.2273410142 m 1
 402.938599489 -13.7940304042 402.938599489 -13.7940304042 293.66293071 -5.98862549143 c 0
 217.295646677 -0.828673867606 217.295646677 -0.828673867606 171.94827034 63.0699018805 c 0
 129 121.356840199 129 121.356840199 129 204 c 0
 129 312.996375907 129 312.996375907 187.375002832 374.44374731 c 0
 190.848437929 378.09999478 190.848437929 378.09999478 194.860472898 381.86642575 c 0
 198.872507868 385.632856721 198.872507868 385.632856721 202.985326786 389.128153155 c 0
 207.098145704 392.623449589 207.098145704 392.623449589 211.259547386 395.853164179 c 0
 215.420949069 399.08287877 215.420949069 399.08287877 219.396304286 401.859558178 c 1
 147.902253974 402.744020656 147.902253974 402.744020656 98.8041896291 345.75519597 c 0
 80.5178719934 324.100346138 80.5178719934 324.100346138 71.2589359967 292.182526868 c 0
 62 260.264707598 62 260.264707598 62 218 c 0
 62 99.2743247796 62 99.2743247796 138.285676002 32.7688636495 c 2
 140 31.2743247796 l 1
 140 -8.09016994375 l 1
 132.763932023 -4.472135955 l 2
 77.1488136443 23.3354232341 77.1488136443 23.3354232341 47.421058956 90.9916925246 c 0
 22 148.951706944 22 148.951706944 22 221 c 0
 22 299.446752106 22 299.446752106 58.7863732198 357.691843037 c 0
 102.068746486 424.67646833 102.068746486 424.67646833 177.390543492 433.962717276 c 0
 234.823075635 441.015835259 234.823075635 441.015835259 351.258275427 434.993324925 c 2
 356 434.748063309 l 1
 356 400.900980486 l 1
 350.019419324 402.097096622 l 2
 345.270110569 403.046958373 345.270110569 403.046958373 340.266638483 403.523479186 c 0
 335.263166397 404 335.263166397 404 330 404 c 0
 268.147343341 404 268.147343341 404 222.625911471 356.057215371 c 0
 177.132427706 308.143865448 177.132427706 308.143865448 180.988241597 249.342703621 c 0
 189.678888747 122.845506218 189.678888747 122.845506218 304.146995258 118.997838772 c 0
 401 116.149220986 401 116.149220986 401 176 c 0
 401 213 401 213 368 213 c 0
 365.144870857 213 365.144870857 213 361.893496089 212.532071482 c 0
 358.64212132 212.064142965 358.64212132 212.064142965 355.468745881 211.245194581 c 0
 352.295370442 210.426246197 352.295370442 210.426246197 349.238252867 209.30642291 c 0
 347.545288246 202.31180592 347.545288246 202.31180592 346.772644123 198.064984985 c 0
 346 193.818164049 346 193.818164049 346 192 c 2
 346 187 l 1
 310.626172715 187 l 1
 311.012968817 192.359888848 l 2
 318.117327475 290.806001669 318.117327475 290.806001669 369.968749721 360.957925885 c 0
 430.617067107 444.220870093 430.617067107 444.220870093 527.415227399 435.982728791 c 0
 550.405482647 434.066874187 550.405482647 434.066874187 566.894541816 427.47125052 c 1
 599.027855261 441.915541254 599.027855261 441.915541254 651.581140847 435.966112697 c 0
 749.225193701 424.53968098 749.225193701 424.53968098 773.911692832 294.935560539 c 2
 775.042275792 289 l 1
 661 289 l 2
 637.780018372 289 637.780018372 289 619.673187212 283.04420817 c 0
 601.566356052 277.088416339 601.566356052 277.088416339 588.346788584 265.2852311 c 0
 546.034127549 226.819175614 546.034127549 226.819175614 546.999202997 164.089271482 c 0
 547.963155845 110.107911967 547.963155845 110.107911967 584.535533906 73.5355339059 c 0
 602.868715799 55.2023520132 602.868715799 55.2023520132 625.142794386 46.1011760066 c 0
 647.416872973 37 647.416872973 37 674 37 c 0
 718.716855586 37 718.716855586 37 769.221554586 95.2746526921 c 2
 772.190663276 98.7005473339 l 1
 805.368154456 75.1998244147 l 1
 800.081541308 71.062474995 l 2
 792.736279504 65.3140092354 792.736279504 65.3140092354 785.889740709 57.9340264669 c 0
 779.043201914 50.5540436984 779.043201914 50.5540436984 772.647789369 41.4542531648 c 0
 766.252376824 32.3544626313 766.252376824 32.3544626313 760.398532568 21.6224148282 c 0
 740.593324979 -15.0172192116 740.593324979 -15.0172192116 730.726864908 -43.6299534166 c 0
 721 -71.8378616502 721 -71.8378616502 721 -101 c 0
 721 -112.897031067 721 -112.897031067 722.816201335 -123.12251944 c 0
 724.63240267 -133.348007813 724.63240267 -133.348007813 728.160815604 -141.737199203 c 0
 731.689228538 -150.126390594 731.689228538 -150.126390594 736.945899065 -156.929140688 c 0
 765.03473096 -192.766615864 765.03473096 -192.766615864 800.657429975 -205.282699302 c 2
 804 -206.457115797 l 1
 804 -242.172881767 l 1
 799.894427191 -242.91934955 l 2
 777.450849719 -247 777.450849719 -247 744.930568946 -247 c 0
 707.674621142 -245.965112561 707.674621142 -245.965112561 693.650331754 -238.413572121 c 0
 664.104290906 -222.863024307 664.104290906 -222.863024307 649.052145453 -198.831283863 c 0
 634 -174.799543419 634 -174.799543419 634 -143 c 0
 634 -85.7831087092 634 -85.7831087092 697.399091839 2.61113031299 c 1
 673.718949248 -1.8038115261 673.718949248 -1.8038115261 653.351752086 -3.90190576305 c 0
 632.984554925 -6 632.984554925 -6 614 -6 c 0
 580.338697117 -6 580.338697117 -6 553.716652812 1.16747346694 c 0
 534.051738734 6.31780810623 534.051738734 6.31780810623 517.244454762 13.1720342748 c 0
 500.437170789 20.0262604433 500.437170789 20.0262604433 486.558596997 28.5459750978 c 0
 472.680023205 37.0656897524 472.680023205 37.0656897524 461.716846982 47.2430903047 c 0
 450.75367076 57.4204908569 450.75367076 57.4204908569 442.743299357 69.2273410142 c 1
EndSplineSet
EndChar
StartChar: ta
Encoding: 3495 3495 139
Width: 603
GlyphClass: 2
Flags: W
LayerCount: 2
Back
Fore
SplineSet
232 360 m 0
 213.093609953 360 213.093609953 360 195.780051428 356.864691203 c 0
 178.466492904 353.729382407 178.466492904 353.729382407 162.733088524 347.472697995 c 0
 146.999684145 341.216013583 146.999684145 341.216013583 132.733960226 331.813604637 c 0
 84 300.279865667 84 300.279865667 84 248 c 0
 84 232.811388301 84 232.811388301 88.7612801852 218.527547745 c 0
 120.657857658 115.105311696 120.657857658 115.105311696 293.847786318 119.997682562 c 0
 486.385770341 125.861783599 486.385770341 125.861783599 501.017271209 302.415227399 c 0
 508.843991545 396.335871434 508.843991545 396.335871434 445.217075424 470.730419514 c 0
 377.728454493 548 377.728454493 548 277 548 c 0
 214.049229543 548 214.049229543 548 173.977504563 530.407535375 c 0
 130.10606117 511.884037053 130.10606117 511.884037053 93.8960672516 466.866206776 c 2
 92.3949878883 465 l 1
 47.4341543425 465 l 1
 52.8946772427 472.854176774 l 2
 127.360851439 579.963057468 127.360851439 579.963057468 270.918709933 581.999339149 c 0
 284.806523249 582.225157252 284.806523249 582.225157252 298.213452344 581.264612908 c 0
 311.620381438 580.304068565 311.620381438 580.304068565 324.530585617 578.15887486 c 0
 337.440789796 576.013681155 337.440789796 576.013681155 349.860108822 572.686821947 c 0
 362.279427848 569.359962739 362.279427848 569.359962739 374.197000043 564.851262856 c 0
 386.114572237 560.342562973 386.114572237 560.342562973 397.530926413 554.657020414 c 0
 408.947280589 548.971477855 408.947280589 548.971477855 419.856866018 542.106903308 c 0
 430.766451447 535.242328761 430.766451447 535.242328761 441.164485992 527.205734365 c 0
 451.562520537 519.169139968 451.562520537 519.169139968 461.448764418 509.956322271 c 0
 471.3350083 500.743504574 471.3350083 500.743504574 480.699700367 490.36336397 c 0
 562 400.933034374 562 400.933034374 562 275 c 0
 562 255.74573917 562 255.74573917 560.076324971 237.497654246 c 0
 558.152649942 219.249569322 558.152649942 219.249569322 554.307706759 202.017502707 c 0
 550.462763576 184.785436092 550.462763576 184.785436092 544.690175229 168.574670787 c 0
 538.917586882 152.363905482 538.917586882 152.363905482 531.227602089 137.196112704 c 0
 523.537617296 122.028319927 523.537617296 122.028319927 513.915494415 107.896165276 c 0
 504.293371534 93.7640106257 504.293371534 93.7640106257 492.757201125 80.7009941339 c 0
 456.067894307 38.9159502577 456.067894307 38.9159502577 407.039911069 17.4660606872 c 0
 358.011927831 -3.98382888336 358.011927831 -3.98382888336 297.084021748 -4.99929398475 c 0
 176.393726989 -7.02770230001 176.393726989 -7.02770230001 106.533002841 44.4754592987 c 0
 36.2057952722 96.3225247324 36.2057952722 96.3225247324 28.0177585407 194.57896551 c 0
 21.8462053842 267.609011196 21.8462053842 267.609011196 70.1330394752 326.169639774 c 0
 121.495637208 388.832009008 121.495637208 388.832009008 206.639494939 394.986986675 c 0
 291.368789467 401.111995918 291.368789467 401.111995918 323.804240726 379.139593452 c 2
 326 377.652143622 l 1
 326 336.153368389 l 1
 318.049917053 341.963044389 l 2
 293.367767269 360 293.367767269 360 232 360 c 0
EndSplineSet
EndChar
StartChar: Na
Encoding: 3499 3499 145
Width: 963
GlyphClass: 2
Flags: W
LayerCount: 2
Back
Fore
SplineSet
18.8214637357 181.859651178 m 2
 36.1082226085 196.095805544 36.1082226085 196.095805544 86.4051093288 226.273937576 c 0
 113.59248086 242.780556006 113.59248086 242.780556006 165.68895096 271.768207736 c 1
 165 279.664645662 165 279.664645662 165 286 c 0
 165 323.150867904 165 323.150867904 180.621405159 352.569664527 c 0
 196.242810317 381.98846115 196.242810317 381.98846115 227.202681566 403.14437317 c 0
 279.486121811 438 279.486121811 438 356 438 c 0
 391.468988638 438 391.468988638 438 419.461757568 431.137070083 c 0
 447.454526497 424.274140167 447.454526497 424.274140167 467.467165258 410.773051373 c 1
 552.2455157 451.388884585 552.2455157 451.388884585 669.315582268 492.707731609 c 0
 779.13243495 532 779.13243495 532 828 532 c 0
 868 532 868 532 868 498 c 0
 868 464.900980486 868 464.900980486 828.927980471 457.086576581 c 0
 813.895958141 454.414217055 813.895958141 454.414217055 792.553649744 450.52372429 c 0
 771.211341347 446.633231524 771.211341347 446.633231524 743.575323984 441.527763977 c 0
 715.93930662 436.422296431 715.93930662 436.422296431 681.956149258 430.092100451 c 0
 625.981349912 418.7073955 625.981349912 418.7073955 510.002931593 387.09872198 c 1
 537.879632119 367.003163136 537.879632119 367.003163136 563.191619494 327.725941346 c 0
 566.230622992 323.095078873 566.230622992 323.095078873 568.852991036 318.202353163 c 0
 571.475359079 313.309627452 571.475359079 313.309627452 573.651618627 308.219508707 c 0
 575.827878176 303.129389961 575.827878176 303.129389961 577.59100654 297.823889445 c 0
 579.354134905 292.51838893 579.354134905 292.51838893 580.693566131 287.009907821 c 0
 582.032997356 281.501426713 582.032997356 281.501426713 582.961541197 275.82751657 c 0
 583.890085038 270.153606427 583.890085038 270.153606427 584.416082623 264.274599402 c 1
 610.748136341 294.588969886 610.748136341 294.588969886 650.475108302 290.97742698 c 0
 686.794694652 287.345468345 686.794694652 287.345468345 708.975189863 261.156449903 c 1
 720.464730024 294.898922079 720.464730024 294.898922079 753.625205942 312.400284368 c 0
 783.839125466 329.070033072 783.839125466 329.070033072 822.28256656 326.992009229 c 0
 841.041540231 325.93018053 841.041540231 325.93018053 856.481221363 317.554827234 c 0
 871.920902495 309.179473937 871.920902495 309.179473937 883.680643462 293.955894184 c 0
 895.440384429 278.732314432 895.440384429 278.732314432 903.671871039 256.781683471 c 0
 913.371458427 231.766958103 913.371458427 231.766958103 917.442725723 201.740423543 c 0
 921.513993019 171.713888982 921.513993019 171.713888982 919.996004794 136.800159808 c 0
 917.939838582 85.3960045283 917.939838582 85.3960045283 891.174791023 45.2484331893 c 0
 860.888011933 -0.703921292624 860.888011933 -0.703921292624 814.537409215 -5.97103523783 c 0
 775.89359097 -10.1487453183 775.89359097 -10.1487453183 742.967890727 9.18857069753 c 0
 738.112747089 12.0400042628 738.112747089 12.0400042628 733.597632113 15.3519725426 c 0
 729.082517138 18.6639408223 729.082517138 18.6639408223 725.069169299 22.2956091174 c 0
 721.05582146 25.9272774125 721.05582146 25.9272774125 717.454006177 29.897288924 c 0
 713.852190893 33.8673004356 713.852190893 33.8673004356 710.757588025 38.0854398899 c 0
 707.662985158 42.3035793441 707.662985158 42.3035793441 705.055822646 46.7344958886 c 0
 702.448660133 51.165412433 702.448660133 51.165412433 700.358559224 55.7695102192 c 1
 674.156955724 30.0647918924 674.156955724 30.0647918924 633.900019994 31.0009997001 c 0
 584.167450877 31.9956510824 584.167450877 31.9956510824 556.033759273 92.6709242522 c 1
 539.241376702 68.5923264577 539.241376702 68.5923264577 520.892564188 50.8578573684 c 0
 502.543751674 33.1233882792 502.543751674 33.1233882792 482.43440737 21.6323343912 c 0
 434.511627721 -3.78498826414 434.511627721 -3.78498826414 365.061723691 -4.99961900408 c 0
 282.360823693 -6.02061776949 282.360823693 -6.02061776949 233 31 c 0
 200.321599138 55.5088006467 200.321599138 55.5088006467 152.828106062 126.243790334 c 0
 140.219174589 145.642146446 140.219174589 145.642146446 134.799078002 150.158893602 c 0
 134.300299633 150.63663603 l 2
 125.147810829 160.704373714 125.147810829 160.704373714 109.313554171 166.292934888 c 0
 88.8867658096 173.720857928 88.8867658096 173.720857928 71.4712746374 168.221229137 c 0
 61.8509537514 165.335132871 61.8509537514 165.335132871 53.0287308316 160.805211437 c 0
 44.2065079117 156.275290003 44.2065079117 156.275290003 36.0372505379 150.028210835 c 2
 31.0634972917 146.22475247 l 1
 15.8517548968 179.414008605 l 1
 18.8214637357 181.859651178 l 2
206.143193649 295.345420231 m 1
 240.862370117 313.417824407 240.862370117 313.417824407 310.872836899 347.525487711 c 0
 368.274783473 373.535744752 368.274783473 373.535744752 421.477696108 394.170776242 c 1
 407.05039394 399.276627281 407.05039394 399.276627281 391.689854666 401.63831364 c 0
 376.329315392 404 376.329315392 404 358 404 c 0
 300.384798349 404 300.384798349 404 261.551009567 380.699726731 c 0
 250.873799397 374.365788495 250.873799397 374.365788495 242.226784164 367.027290384 c 0
 233.579768931 359.688792274 233.579768931 359.688792274 227.106036632 351.558044969 c 0
 220.632304333 343.427297664 220.632304333 343.427297664 216.134122138 334.385735376 c 0
 211.635939943 325.344173087 211.635939943 325.344173087 209.164722754 315.616945499 c 0
 206.693505566 305.889717911 206.693505566 305.889717911 206.143193649 295.345420231 c 1
387.466338986 341.843676907 m 1
 399.880093348 337.431326911 399.880093348 337.431326911 410.240590746 330.260135407 c 0
 420.601088144 323.088943903 420.601088144 323.088943903 428.841106398 313.200921998 c 0
 450 287.810249676 450 287.810249676 450 255 c 0
 450 213.591426545 450 213.591426545 413.616560013 184.590133802 c 0
 404.683181729 177.469325025 404.683181729 177.469325025 394.908594801 171.987293474 c 0
 385.134007872 166.505261922 385.134007872 166.505261922 374.571228486 162.684045894 c 0
 364.0084491 158.862829865 364.0084491 158.862829865 352.663055913 156.691231486 c 0
 341.317662726 154.519633106 341.317662726 154.519633106 329.217186121 154.004719208 c 0
 214.229094765 149.005236975 214.229094765 149.005236975 174.600526946 235.03362672 c 1
 162.272470548 228.379932729 162.272470548 228.379932729 147.931682345 220.460650347 c 0
 133.590894142 212.541367966 133.590894142 212.541367966 115.712003861 202.525878503 c 1
 136.784212086 197.465230071 136.784212086 197.465230071 156.620487128 185.258291584 c 0
 156.906190969 185.068667356 l 2
 177.86037274 170.101394662 177.86037274 170.101394662 199.816684123 155.131136714 c 0
 264.542351304 111 264.542351304 111 338 111 c 0
 358.675288318 111 358.675288318 111 381.320444533 113.953716028 c 0
 509.819691331 132.449819734 509.819691331 132.449819734 529.111865997 225.052258128 c 0
 530.090375975 229.455553031 530.090375975 229.455553031 530.820735345 233.770321015 c 0
 531.551094716 238.085088999 531.551094716 238.085088999 532.035081724 242.322921925 c 0
 532.519068732 246.560754851 532.519068732 246.560754851 532.759534366 250.722320372 c 0
 533 254.883885893 533 254.883885893 533 259 c 0
 533 298.258226746 533 298.258226746 515.775194787 326.323550212 c 0
 498.550389575 354.388873679 498.550389575 354.388873679 463.562239718 372.619100238 c 1
 456.44571329 370.29168279 456.44571329 370.29168279 446.930970346 366.629827267 c 0
 437.416227402 362.967971744 437.416227402 362.967971744 424.014080558 357.422255808 c 0
 421.694297866 356.339690552 421.694297866 356.339690552 418.7688886 355.036725819 c 0
 415.843479335 353.733761086 415.843479335 353.733761086 412.405558606 352.250748934 c 0
 408.967637877 350.767736782 408.967637877 350.767736782 405.017569251 349.103139286 c 0
 401.067500625 347.438541789 401.067500625 347.438541789 396.673336486 345.621177233 c 0
 392.279172347 343.803812676 392.279172347 343.803812676 387.466338986 341.843676907 c 1
211.144315782 255.539077592 m 1
 221.27014488 228.787731802 221.27014488 228.787731802 245.790550906 212.148884855 c 0
 255.273157547 205.827147094 255.273157547 205.827147094 265.409452078 201.194874381 c 0
 275.545746609 196.562601669 275.545746609 196.562601669 286.182513932 193.591771216 c 1
 264.326571585 210.636917905 264.326571585 210.636917905 258.11098793 238.952354556 c 0
 253.48576272 260.536738869 253.48576272 260.536738869 261.424561917 281.418616044 c 1
 211.144315782 255.539077592 l 1
585.999606797 205.080024143 m 1
 585.897280077 196.38225295 585.897280077 196.38225295 584.912923008 187.166332614 c 0
 583.928565939 177.950412279 583.928565939 177.950412279 582.232206614 168.808419114 c 0
 580.53584729 159.666425949 580.53584729 159.666425949 578.019849029 149.465196636 c 0
 579.215785392 118.355319556 579.215785392 118.355319556 595.045041349 96.9392673788 c 0
 613.39692317 71.2466328287 613.39692317 71.2466328287 642.539008947 73.9787033703 c 0
 692.100271516 78.5677091637 692.100271516 78.5677091637 694.001155802 164.107502026 c 0
 695.893194581 252.087305262 695.893194581 252.087305262 642.897394906 253.001025946 c 0
 630.159951857 253.304298399 630.159951857 253.304298399 619.62736623 248.106013238 c 0
 609.094780602 242.907728077 609.094780602 242.907728077 600.700172018 232.166941433 c 0
 592.305563435 221.426154789 592.305563435 221.426154789 585.999606797 205.080024143 c 1
732.162326709 206.296209193 m 1
 735.24774358 196.331830119 735.24774358 196.331830119 736.375542751 185.907709063 c 0
 737.503341922 175.483588006 737.503341922 175.483588006 736.994454021 162.761390487 c 0
 735.01806431 127.186375685 735.01806431 127.186375685 726.262640016 101.885774601 c 1
 730.28669513 89.3407158627 730.28669513 89.3407158627 736.891530169 80.2974679147 c 0
 743.496365208 71.2542199667 743.496365208 71.2542199667 753.295708341 64.6453606441 c 0
 773.143605316 51.2595696612 773.143605316 51.2595696612 795.124169016 54.9229969446 c 0
 828 61.1427487524 828 61.1427487524 828 153 c 0
 828 167.78248582 828 167.78248582 826.902229324 181.258557792 c 0
 825.804458648 194.734629764 825.804458648 194.734629764 823.634091264 206.781700656 c 0
 821.463723879 218.828771548 821.463723879 218.828771548 818.223320411 229.522102996 c 0
 807.286062874 264.156751861 807.286062874 264.156751861 787.760004853 265.005710905 c 0
 779.398504398 265.445789876 779.398504398 265.445789876 771.143123359 261.764883507 c 0
 762.88774232 258.083977138 762.88774232 258.083977138 754.485391966 249.915025406 c 0
 746.314024925 241.970640782 746.314024925 241.970640782 740.741663651 231.035028746 c 0
 735.169302377 220.099416709 735.169302377 220.099416709 732.162326709 206.296209193 c 1
297 258 m 0
 297 245.456864675 297 245.456864675 301.299950849 235.498883889 c 0
 305.599901698 225.540903104 305.599901698 225.540903104 314.333974297 217.726206568 c 0
 323.209562864 209.784890482 323.209562864 209.784890482 333.054967086 205.892445241 c 0
 342.900371309 202 342.900371309 202 354 202 c 0
 362.338052893 202 362.338052893 202 369.727807987 204.107443878 c 0
 377.117563081 206.214887755 377.117563081 206.214887755 383.747910383 210.516428982 c 0
 390.378257685 214.817970209 390.378257685 214.817970209 396.322029107 221.38740178 c 0
 410 235.9772374 410 235.9772374 410 257 c 0
 410 283.614639959 410 283.614639959 390.771495554 299.18057213 c 0
 375.109477301 313 375.109477301 313 353 313 c 0
 326.286256653 313 326.286256653 313 311.781815862 296.229240335 c 0
 297 279.137765745 297 279.137765745 297 258 c 0
EndSplineSet
EndChar
StartChar: nDa
Encoding: 3500 3500 147
Width: 731
GlyphClass: 2
Flags: W
LayerCount: 2
Back
Fore
SplineSet
164.259676933 392.98347867 m 1
 157.615280416 390.756992238 157.615280416 390.756992238 150.901842482 388.370373638 c 0
 137.759688752 382.268659406 137.759688752 382.268659406 124.593286924 371.536909602 c 0
 111.426885097 360.805159798 111.426885097 360.805159798 98.8077352713 345.759250391 c 0
 62 303.139767445 62 303.139767445 62 218 c 0
 62 99.2743247796 62 99.2743247796 138.285676002 32.7688636495 c 2
 140 31.2743247796 l 1
 140 -8.09016994375 l 1
 132.763932023 -4.472135955 l 2
 77.1488136443 23.3354232341 77.1488136443 23.3354232341 47.421058956 90.9916925246 c 0
 22 148.951706944 22 148.951706944 22 221 c 0
 22 286.12970335 22 286.12970335 42.4856974059 329.149667902 c 0
 62.9680021687 372.162507904 62.9680021687 372.162507904 99.3367818855 401.872215278 c 0
 135.998112501 431.820907893 135.998112501 431.820907893 176.518572424 435.976852501 c 0
 198.598290132 437.984099565 198.598290132 437.984099565 235.202984368 435.080037107 c 0
 241.785714286 437 241.785714286 437 259.956143725 437 c 0
 269.771101614 437.172192244 269.771101614 437.172192244 278.966264568 436.056247517 c 0
 288.161427522 434.94030279 288.161427522 434.94030279 296.691661016 432.548220907 c 0
 305.221894509 430.156139024 305.221894509 430.156139024 313.093288561 426.48175529 c 0
 320.964682613 422.807371557 320.964682613 422.807371557 328.128464771 417.87572613 c 0
 335.292246928 412.944080703 335.292246928 412.944080703 341.758387666 406.735099189 c 0
 348.224528404 400.526117676 348.224528404 400.526117676 353.940617341 393.077880575 c 0
 369.972394931 372.908870059 369.972394931 372.908870059 378.230489777 346.58385941 c 0
 386.488584623 320.258848761 386.488584623 320.258848761 386.999370237 288.079355083 c 2
 387.079994921 283 l 1
 287 283 l 2
 280.807610731 283 280.807610731 283 274.819949646 282.266201438 c 0
 268.832288561 281.532402875 268.832288561 281.532402875 263.017381106 280.057579767 c 0
 257.202473652 278.582756659 257.202473652 278.582756659 251.573718501 276.361687512 c 0
 245.94496335 274.140618366 245.94496335 274.140618366 240.482581328 271.167741164 c 0
 235.020199307 268.194863962 235.020199307 268.194863962 229.724580683 264.463182316 c 0
 224.42896206 260.731500669 224.42896206 260.731500669 219.292523039 256.237116526 c 0
 189.139293088 229.853040319 189.139293088 229.853040319 190.992800874 199.270161849 c 0
 194.767570486 120 194.767570486 120 286 120 c 0
 305.352354501 120 305.352354501 120 322.012373251 124.554598451 c 0
 338.672392001 129.109196902 338.672392001 129.109196902 352.7926121 138.203575949 c 0
 366.582734367 147.085349613 366.582734367 147.085349613 373.291367184 159.138742325 c 0
 380 171.192135037 380 171.192135037 380 187 c 2
 380 219 l 1
 421 219 l 1
 421 187 l 2
 421 155.675918792 421 155.675918792 448.773500981 137.160251472 c 0
 474.513878189 120 474.513878189 120 512 120 c 0
 635.117013593 120 635.117013593 120 639.000841468 284.091727679 c 0
 639.984591422 337.706100224 639.984591422 337.706100224 623.067604108 384.291339811 c 0
 606.150616793 430.876579398 606.150616793 430.876579398 571.263818736 470.677010984 c 0
 498.777218892 551 498.777218892 551 394 551 c 0
 376.116848069 551 376.116848069 551 359.356738321 549.240895923 c 0
 342.596628573 547.481791846 342.596628573 547.481791846 326.954059942 543.966007567 c 0
 311.31149131 540.450223288 311.31149131 540.450223288 296.769326176 535.17103256 c 0
 282.227161042 529.891841831 282.227161042 529.891841831 268.787136603 522.859880445 c 0
 255.347112164 515.827919058 255.347112164 515.827919058 242.984369985 507.027701389 c 0
 230.621627806 498.227483719 230.621627806 498.227483719 219.345625901 487.678404934 c 0
 208.069623996 477.12932615 208.069623996 477.12932615 197.848265665 464.80768871 c 2
 196.348705712 463 l 1
 151.035063044 463 l 1
 156.99157704 470.988736418 l 2
 243.491203395 587 243.491203395 587 396 587 c 0
 528.350989844 587 528.350989844 587 611.851270118 486.188686011 c 0
 690 391.801259011 690 391.801259011 690 258 c 0
 690 231.266193767 690 231.266193767 687.663243634 206.833158999 c 0
 685.326487267 182.40012423 685.326487267 182.40012423 680.642435586 160.218290143 c 0
 675.958383904 138.036456055 675.958383904 138.036456055 668.8994287 118.13343777 c 0
 661.840473496 98.2304194848 661.840473496 98.2304194848 652.417644252 80.6581163002 c 0
 637.401561346 52.3323235451 637.401561346 52.3323235451 617.515754839 33.2880753725 c 0
 597.629948332 14.2438271999 597.629948332 14.2438271999 572.930699342 4.62191359995 c 0
 548.231450352 -5 548.231450352 -5 519 -5 c 0
 495.582260732 -5 495.582260732 -5 474.343129669 1.47694682506 c 0
 453.103998605 7.95389365013 453.103998605 7.95389365013 434.795369383 20.4169368642 c 0
 416.486740161 32.8799800783 416.486740161 32.8799800783 400.971427554 51.1562641124 c 1
 385.042385114 32.6640939345 385.042385114 32.6640939345 367.244818948 20.3036733121 c 0
 349.447252782 7.94325268975 349.447252782 7.94325268975 329.697513794 1.63761042208 c 0
 309.947774806 -4.66803184559 309.947774806 -4.66803184559 288.075748881 -4.99942617777 c 0
 219.846795507 -6.03319819859 219.846795507 -6.03319819859 174.331909626 43.1021899691 c 0
 129 92.0400469514 129 92.0400469514 129 158 c 0
 129 161.381304901 129 161.381304901 129.125853184 164.740317376 c 0
 129.251706367 168.099329852 129.251706367 168.099329852 129.503599452 171.438532834 c 0
 129.755492537 174.777735815 129.755492537 174.777735815 130.133496445 178.095749336 c 0
 130.511500353 181.413762858 130.511500353 181.413762858 131.015825013 184.712511111 c 0
 131.520149673 188.011259364 131.520149673 188.011259364 132.150841248 191.289958371 c 0
 132.781532823 194.568657377 132.781532823 194.568657377 133.538826 197.828635343 c 0
 134.296119177 201.088613308 134.296119177 201.088613308 135.180036909 204.329644991 c 0
 139.354984725 219.463830822 139.354984725 219.463830822 147.65296459 233.72446991 c 0
 155.950944455 247.985108998 155.950944455 247.985108998 168.356099412 261.424026868 c 0
 174.619843786 267.972486895 174.619843786 267.972486895 180.893046954 273.427756342 c 0
 187.166250122 278.88302579 187.166250122 278.88302579 193.060621475 283 c 1
 98 283 l 1
 98 320 l 1
 343.654677316 320 l 1
 341.178965861 343.178848499 341.178965861 343.178848499 325.748205026 360.694847285 c 0
 308.741284777 380 308.741284777 380 288 380 c 0
 280.906672909 380 280.906672909 380 273.830146816 377.346302715 c 0
 258.256942615 370.933806868 258.256942615 370.933806868 245.064585109 352.087581859 c 0
 240.874128103 346.373322305 240.874128103 346.373322305 235.061320272 342.343514277 c 0
 229.248512442 338.31370625 229.248512442 338.31370625 222.107976731 336.021830963 c 0
 214.96744102 333.729955677 214.96744102 333.729955677 206.354471448 333.012208213 c 0
 187.430636389 331.899041445 187.430636389 331.899041445 172.951446196 343.036880054 c 0
 158 354.537992513 158 354.537992513 158 373 c 0
 158 380.098184219 158 380.098184219 161.460203077 387.595290887 c 0
 162.489855927 389.826205396 162.489855927 389.826205396 164.259676933 392.98347867 c 1
EndSplineSet
EndChar
StartChar: tha
Encoding: 3501 3501 148
Width: 704
GlyphClass: 2
Flags: W
LayerCount: 2
Back
Fore
SplineSet
117.717141985 61.224572638 m 0
 98.5827893008 76.7142867155 98.5827893008 76.7142867155 81.8372331841 74.0702515392 c 0
 63.1551572349 70.6735104575 63.1551572349 70.6735104575 48.8792157017 6.90763827575 c 2
 47.150344512 -0.814653038277 l 1
 15.5515250437 23.9148578499 l 1
 16.0770113646 26.8741755521 l 2
 35.24819845 134.838229138 35.24819845 134.838229138 93.7698037744 227.665603101 c 0
 105.033613309 245.540779102 105.033613309 245.540779102 115.671342112 260.916380177 c 0
 126.309070916 276.291981253 126.309070916 276.291981253 136.039786596 288.794060296 c 0
 145.770502276 301.29613934 145.770502276 301.29613934 154.623193283 311.029098489 c 0
 163.47588429 320.762057638 163.47588429 320.762057638 171.330513362 327.58559926 c 0
 171.920364369 331.714556308 171.920364369 331.714556308 172.289393705 335.360643502 c 0
 172.658423041 339.006730697 172.658423041 339.006730697 172.829211521 342.32822627 c 0
 173 345.649721843 173 345.649721843 173 349 c 0
 173 362.07824618 173 362.07824618 170.467053034 370.040629625 c 0
 167.934106068 378.00301307 167.934106068 378.00301307 163.470602399 381.134412956 c 0
 159.00709873 384.265812842 159.00709873 384.265812842 152.199840192 384.003995206 c 0
 131.144045605 383.161763423 131.144045605 383.161763423 125.905972282 356.534890699 c 0
 119.996758939 326.496389535 119.996758939 326.496389535 118.724765351 323.333142324 c 0
 114.984212643 312.161358234 114.984212643 312.161358234 109.352034636 305.323154771 c 0
 103.719856629 298.484951308 103.719856629 298.484951308 95.0727353138 294.449628027 c 0
 91.6921016565 292.94712418 91.6921016565 292.94712418 88.1001308763 291.955893307 c 0
 84.5081600961 290.964662435 84.5081600961 290.964662435 80.7543247748 290.482331218 c 0
 77.0004894536 290 77.0004894536 290 73 290 c 0
 60.7586644143 290 60.7586644143 290 51.8890605051 295.322575204 c 0
 43.0194565959 300.645150407 43.0194565959 300.645150407 38.4174049097 310.999766701 c 0
 35.2049469447 318.495501953 35.2049469447 318.495501953 33.6024734723 326.238751683 c 0
 32 333.982001413 32 333.982001413 32 342 c 0
 32 379.04473071 32 379.04473071 60.932759197 408.503540074 c 0
 89.9024966239 438 89.9024966239 438 126 438 c 0
 135.541760185 438 135.541760185 438 143.953947893 437.031532961 c 0
 152.366135601 436.063065922 152.366135601 436.063065922 159.787849985 434.091397987 c 0
 167.209564369 432.119730053 167.209564369 432.119730053 173.555193004 429.073677126 c 0
 179.90082164 426.027624199 179.90082164 426.027624199 185.098221443 421.924413828 c 0
 185.36336397 421.699700367 l 2
 206.182428213 402.773278328 206.182428213 402.773278328 211.064241005 360.124207375 c 1
 250.577482623 397.541605688 250.577482623 397.541605688 311.338981354 418.716067367 c 0
 371.136696846 440 371.136696846 440 435 440 c 0
 527.059854788 440 527.059854788 440 594.021961948 373.549053963 c 0
 660.844254971 307.236854781 660.844254971 307.236854781 667.985272428 213.383482494 c 0
 674.094141883 133.968179576 674.094141883 133.968179576 641.445679052 70.7117828409 c 0
 605.171365339 0.235973341402 605.171365339 0.235973341402 539.37913412 -4.98563231088 c 0
 482.608889695 -9.11437735998 482.608889695 -9.11437735998 452.161335221 11.8839360704 c 2
 449.473332069 13.7377313478 l 1
 456.471840136 50.1299732971 l 1
 462.664066348 46.2311642004 l 2
 475.626490231 38.0696380524 475.626490231 38.0696380524 488.680170555 34.0348190262 c 0
 501.733850879 30 501.733850879 30 515 30 c 0
 533.615080175 30 533.615080175 30 547.478382289 38.3179812682 c 0
 589 61.9098095131 589 61.9098095131 589 131 c 0
 589 154.462795408 589 154.462795408 584.119617675 176.912554104 c 0
 579.997914372 194.969540004 579.997914372 194.969540004 573.774310921 211.424775206 c 0
 567.550707471 227.880010409 567.550707471 227.880010409 559.218927063 242.752528575 c 0
 550.887146655 257.62504674 550.887146655 257.62504674 540.436026664 270.925901984 c 0
 529.984906673 284.226757229 529.984906673 284.226757229 517.419032523 295.962171904 c 0
 504.853158374 307.697586579 504.853158374 307.697586579 490.150505205 317.89142611 c 0
 459.784479236 338.951734443 459.784479236 338.951734443 424.295824045 349.475867221 c 0
 388.807168853 360 388.807168853 360 348 360 c 0
 268.480363199 360 268.480363199 360 217.738476986 317.0830215 c 1
 247.538151615 325 247.538151615 325 285 325 c 0
 315.570041389 325 315.570041389 325 340.933184254 319.363678656 c 0
 366.29632712 313.727357311 366.29632712 313.727357311 386.475761982 302.344086363 c 0
 420.373958161 282.826943109 420.373958161 282.826943109 440.313918671 255.375108724 c 0
 460.25387918 227.92327434 460.25387918 227.92327434 465.946945631 192.729772643 c 0
 468 177.331864876 468 177.331864876 468 162 c 0
 468 126.584875924 468 126.584875924 455.963544433 97.205816182 c 0
 443.927088867 67.8267564403 443.927088867 67.8267564403 419.956995043 44.8876343936 c 0
 371.34893097 -0.568046682731 371.34893097 -0.568046682731 299.331572267 -5.98903284017 c 0
 201.337896419 -12.1136375806 201.337896419 -12.1136375806 147.813678201 32.1467736384 c 0
 147.464466094 32.4644660941 l 2
 139.978145883 39.9507863055 139.978145883 39.9507863055 132.573575034 47.1101437777 c 0
 125.169004186 54.2695012499 125.169004186 54.2695012499 117.717141985 61.224572638 c 0
162.346032076 262.167000381 m 1
 147.451533241 243.059316618 147.451533241 243.059316618 126.257356326 208.377936211 c 0
 108.479495916 179.735827773 108.479495916 179.735827773 100.614008698 160.072109726 c 0
 99.2134806632 156.859133647 99.2134806632 156.859133647 97.8384775931 153.70104953 c 0
 96.4634745231 150.542965412 96.4634745231 150.542965412 95.2329109534 147.713170859 c 0
 94.0023473837 144.883376305 94.0023473837 144.883376305 92.8572331646 142.247047175 c 0
 91.7121189456 139.610718046 91.7121189456 139.610718046 90.7186282686 137.320042797 c 0
 89.7251375916 135.029367548 89.7251375916 135.029367548 88.8805366746 133.078811796 c 0
 88.0359357576 131.128256044 88.0359357576 131.128256044 87.3536584473 129.548799098 c 1
 108.889598002 139 108.889598002 139 138 139 c 0
 146.007684663 139 146.007684663 139 153.683719802 138.188650404 c 0
 161.359754941 137.377300808 161.359754941 137.377300808 168.702873199 135.754165637 c 0
 176.045991458 134.131030466 176.045991458 134.131030466 183.052662612 131.688123981 c 0
 190.059333766 129.245217495 190.059333766 129.245217495 196.700786085 125.989603614 c 0
 221.159577457 114 221.159577457 114 262 114 c 0
 285.854309681 114 285.854309681 114 306.580413627 120.026136148 c 0
 327.306517572 126.052272295 327.306517572 126.052272295 345.257649883 138.181415749 c 0
 359.38875905 147.173939764 359.38875905 147.173939764 368.658807046 157.987393902 c 0
 377.928855043 168.80084804 377.928855043 168.80084804 382.464427521 181.479374973 c 0
 387 194.157901906 387 194.157901906 387 209 c 0
 387 215.940798421 387 215.940798421 385.393893782 222.592441703 c 0
 383.787787564 229.244084985 383.787787564 229.244084985 380.512336544 235.794987025 c 0
 371.603491595 254.249022991 371.603491595 254.249022991 357.565758625 266.466963144 c 0
 343.528025655 278.684903297 343.528025655 278.684903297 323.915916738 284.842451648 c 0
 304.303807821 291 304.303807821 291 279 291 c 0
 212.423185814 291 212.423185814 291 162.346032076 262.167000381 c 1
EndSplineSet
EndChar
StartChar: nda
Encoding: 3507 3507 157
Width: 526
GlyphClass: 2
Flags: W
LayerCount: 2
Back
Fore
SplineSet
97.0098201995 157.682495453 m 0
 91.845436676 254.772905696 91.845436676 254.772905696 169.480644872 300.318894504 c 0
 206.648254293 322 206.648254293 322 319 322 c 2
 406.386636304 322 l 1
 402.629487995 330.547512403 402.629487995 330.547512403 400.490851281 335.051657362 c 0
 398.352214567 339.555802322 398.352214567 339.555802322 396.658784289 342.519305308 c 0
 396.527864045 342.763932023 l 2
 387.995601294 359.828457525 387.995601294 359.828457525 376.747380167 369.201975131 c 0
 365.038106124 379.506136289 365.038106124 379.506136289 350.700946992 383.20936651 c 0
 336.363787859 386.91259673 336.363787859 386.91259673 318.861029336 384.074311564 c 0
 305.201356634 381.513122933 305.201356634 381.513122933 293.847282787 361.529952962 c 0
 280.125694507 337.379957589 280.125694507 337.379957589 255.727770247 334.052967917 c 0
 245.420494749 332.425503365 245.420494749 332.425503365 236.448292888 334.420753153 c 0
 227.476091027 336.416002941 227.476091027 336.416002941 220.376524762 342.095655953 c 0
 213.337902435 347.726553815 213.337902435 347.726553815 209.668951217 355.064635515 c 0
 206 362.402717215 206 362.402717215 206 371 c 0
 206 377.962912018 206 377.962912018 208.357616546 383.856953382 c 0
 209.984591661 387.924391172 209.984591661 387.924391172 214.0460897 395.622346756 c 1
 202.789267073 400 202.789267073 400 189 400 c 0
 139.352250693 400 139.352250693 400 92.8501078045 343.809910676 c 0
 83.6474224374 332.70322144 83.6474224374 332.70322144 77.4774589132 318.362860888 c 0
 71.3074953891 304.022500336 71.3074953891 304.022500336 68.1537476946 286.127809552 c 0
 65 268.233118768 65 268.233118768 65 247 c 0
 65 171.462204122 65 171.462204122 100.867244187 127.147420931 c 1
 98.2003685585 141.610092607 98.2003685585 141.610092607 97.0098201995 157.682495453 c 0
122.817253882 68.9601851966 m 1
 75.7936732939 91.2096621593 75.7936732939 91.2096621593 50.5105312262 143.79859766 c 0
 38.770210818 167.279238476 38.770210818 167.279238476 32.885105409 193.380512065 c 0
 27 219.481785654 27 219.481785654 27 248 c 0
 27 294.053936117 27 294.053936117 42.414714114 328.993954776 c 0
 60.8944018232 372.113226097 60.8944018232 372.113226097 97.8633523106 401.893769545 c 0
 116.361023348 416.794671214 116.361023348 416.794671214 136.057961457 425.347549491 c 0
 155.754899566 433.900427767 155.754899566 433.900427767 176.482527772 435.973190588 c 0
 194.661682905 437.938504656 194.661682905 437.938504656 211.474940554 434.97542866 c 0
 228.288198203 432.012352664 228.288198203 432.012352664 241.960328096 424.733766683 c 1
 275.500606046 442.857023605 275.500606046 442.857023605 333.581140847 435.966112697 c 0
 358.036249871 433.104344619 358.036249871 433.104344619 377.997846483 422.679764541 c 0
 397.959443096 412.255184462 397.959443096 412.255184462 413.212337765 394.482254733 c 0
 428.465232435 376.709325004 428.465232435 376.709325004 439.143348816 351.809290312 c 0
 449.821465198 326.90925562 449.821465198 326.90925562 455.911692832 294.935560539 c 2
 457.042275792 289 l 1
 346 289 l 2
 297.666666667 289 297.666666667 289 271.018691181 269.014018385 c 0
 258.755813913 259.636524005 258.755813913 259.636524005 249.90686577 248.616201193 c 0
 241.057917628 237.595878381 241.057917628 237.595878381 235.550762821 224.7992767 c 0
 230.043608015 212.002675019 230.043608015 212.002675019 227.909951838 197.414014046 c 0
 225.776295661 182.825353073 225.776295661 182.825353073 226.988034463 166.345705359 c 0
 233.720149026 69.2109095202 233.720149026 69.2109095202 337.835559926 49.9302778722 c 0
 350.382366095 48 350.382366095 48 362 48 c 0
 409.73550775 48 409.73550775 48 451.241871555 95.297949452 c 2
 454.274525071 98.7537639241 l 1
 486.199868755 75.1567707664 l 1
 481.123475238 71.0956559528 l 2
 476.690988153 67.5496662847 476.690988153 67.5496662847 467.657990898 56.7723816513 c 0
 458.624993644 45.9950970179 458.624993644 45.9950970179 446.015490141 29.0207653791 c 0
 423.458592531 -1.38200966079 423.458592531 -1.38200966079 408.714048177 -42.6667338513 c 0
 402 -61.8497286432 402 -61.8497286432 402 -87 c 0
 402 -131.349851192 402 -131.349851192 421.00173968 -157.00219976 c 0
 433.110429263 -172.985670009 433.110429263 -172.985670009 448.3593765 -185.087505012 c 0
 463.608323738 -197.189340015 463.608323738 -197.189340015 482.0418303 -205.435908741 c 2
 485 -206.759300448 l 1
 485 -242.137513887 l 1
 480.935560539 -242.911692832 l 2
 470.100481059 -244.975517495 470.100481059 -244.975517495 456.677611187 -245.987758747 c 0
 443.254741315 -247 443.254741315 -247 426.930568946 -247 c 0
 389.754312534 -245.967326211 389.754312534 -245.967326211 374.717352327 -238.448846107 c 0
 354.975110864 -228.058192706 354.975110864 -228.058192706 341.686137123 -213.795211274 c 0
 328.397163382 -199.532229843 328.397163382 -199.532229843 321.698581691 -181.529926091 c 0
 315 -163.527622338 315 -163.527622338 315 -142 c 0
 315 -137.880345992 315 -137.880345992 315.230830041 -133.622181357 c 0
 315.461660083 -129.364016722 315.461660083 -129.364016722 315.917829701 -125.025327528 c 0
 316.373999319 -120.686638333 316.373999319 -120.686638333 317.052815777 -116.274331354 c 0
 322.812807736 -74.994388982 322.812807736 -74.994388982 379.329341856 2.63699800677 c 1
 332.330612442 -6 332.330612442 -6 296 -6 c 0
 262.338697117 -6 262.338697117 -6 235.675958309 1.17842967911 c 0
 160.215178605 22.3074479962 160.215178605 22.3074479962 122.817253882 68.9601851966 c 1
EndSplineSet
EndChar
StartChar: bha
Encoding: 3511 3511 163
Width: 670
GlyphClass: 2
Flags: W
LayerCount: 2
Back
Fore
SplineSet
254.649983593 276.012266194 m 2
 226.821069047 277.965172478 226.821069047 277.965172478 201.687960559 272.622908928 c 0
 176.554852072 267.280645377 176.554852072 267.280645377 153.940158457 254.635870453 c 0
 131.594050518 242.141272465 131.594050518 242.141272465 120.797025259 226.815500974 c 0
 110 211.489729483 110 211.489729483 110 193 c 0
 110 120 110 120 226 120 c 0
 260.524617894 120 260.524617894 120 283.519298096 130.19899918 c 0
 306.513978298 140.39799836 306.513978298 140.39799836 318.750959444 160.636082562 c 0
 321.942309262 165.651060848 321.942309262 165.651060848 323.471154631 170.670728759 c 0
 325 175.69039667 325 175.69039667 325 181 c 0
 325 193.977263271 325 193.977263271 320.61343279 198.906085497 c 0
 316.22686558 203.834907724 316.22686558 203.834907724 306.373936902 203.013830334 c 0
 303.825973686 202.84396612 303.825973686 202.84396612 301.360608896 202.211690138 c 0
 298.895244106 201.579414155 298.895244106 201.579414155 296.416306477 200.435156257 c 0
 293.937368847 199.290898358 293.937368847 199.290898358 291.513229148 197.636217952 c 0
 289.089089448 195.981537546 289.089089448 195.981537546 286.643208959 193.748951882 c 0
 284.197328469 191.516366218 284.197328469 191.516366218 281.778445414 188.725347308 c 2
 280.283144414 187 l 1
 249.624570853 187 l 1
 250.01307602 192.361371303 l 2
 255.095797561 262.502928567 255.095797561 262.502928567 293.666352101 329.493891715 c 0
 356.126685586 438.031520394 356.126685586 438.031520394 451.062495118 436.999609421 c 0
 462.81689851 436.852679378 462.81689851 436.852679378 473.914773583 435.28344644 c 0
 485.012648656 433.714213502 485.012648656 433.714213502 495.421397601 430.729468063 c 0
 505.830146545 427.744722624 505.830146545 427.744722624 515.559415311 423.352084371 c 0
 525.288684076 418.959446118 525.288684076 418.959446118 534.31792667 413.160849143 c 0
 543.347169263 407.362252167 543.347169263 407.362252167 551.673176365 400.170496212 c 0
 559.999183467 392.978740258 559.999183467 392.978740258 567.614264353 384.390579359 c 0
 575.22934524 375.802418461 575.22934524 375.802418461 582.118238775 365.835508665 c 0
 624.982361729 303.580472947 624.982361729 303.580472947 625.999637142 214.060236592 c 0
 626.509972716 171.702383968 626.509972716 171.702383968 613.050165152 134.784142131 c 0
 599.590357588 97.8659002938 599.590357588 97.8659002938 572.259063529 66.7031164131 c 0
 516.657477254 4.5540639307 516.657477254 4.5540639307 432.518272883 -4.97311052223 c 0
 401.88327176 -8.03661063455 401.88327176 -8.03661063455 367.272530048 -2.94679567682 c 2
 363 -2.31848243454 l 1
 363 34.9803543184 l 1
 368.885764992 33.9209166199 l 2
 393.440920195 29.5176091094 393.440920195 29.5176091094 415.778819154 30.4891237791 c 0
 438.116718114 31.4606384487 438.116718114 31.4606384487 458.547057879 37.7843150428 c 0
 481.172098766 44.5236889239 481.172098766 44.5236889239 497.559962771 58.2998411817 c 0
 513.947826776 72.0759934395 513.947826776 72.0759934395 524.551153893 93.2826476734 c 0
 543.893986886 130.034030361 543.893986886 130.034030361 540.015923607 175.601273889 c 0
 536.111772867 224.403158139 536.111772867 224.403158139 512.714347591 262.423974214 c 0
 499.601531091 284.764328251 499.601531091 284.764328251 482.974411541 298.06576505 c 0
 466.347291991 311.36720185 466.347291991 311.36720185 445.797233158 316.146285299 c 0
 427.353117296 321 427.353117296 321 408 321 c 0
 315.344308137 321 315.344308137 321 297.603666413 239.203814554 c 1
 308.552711256 242.383591711 308.552711256 242.383591711 317.948026536 241.703595576 c 0
 327.343341816 241.023599442 327.343341816 241.023599442 337.915075114 236.618710568 c 0
 381.789278289 218.426967788 381.789278289 218.426967788 385.99055935 153.307111345 c 0
 390.13642616 85.9367756809 390.13642616 85.9367756809 342.891400514 42.3259827769 c 0
 333.530330396 33.6849949756 333.530330396 33.6849949756 323.221536363 26.5988936957 c 0
 312.91274233 19.5127924159 312.91274233 19.5127924159 301.697562732 14.0022483064 c 0
 290.482383134 8.49170419703 290.482383134 8.49170419703 278.350877375 4.54069530238 c 0
 266.219371615 0.58968640773 266.219371615 0.58968640773 253.20297353 -1.79222258828 c 0
 240.186575446 -4.17413158429 240.186575446 -4.17413158429 226.285248953 -4.99185667212 c 0
 154.392773565 -9.09999812287 154.392773565 -9.09999812287 100.91089224 33.0684083059 c 0
 42.8948022282 78.6524790297 42.8948022282 78.6524790297 46.0037771742 151.195227768 c 0
 48.7563005058 229.183388831 48.7563005058 229.183388831 118.812357319 271 c 1
 1 271 l 1
 1 308 l 1
 218.035779715 308 l 1
 213.916170472 328.655263009 213.916170472 328.655263009 205.606430769 343.612794475 c 0
 190.380958909 372.272506212 190.380958909 372.272506212 159.084652289 365.119064699 c 0
 150.950489302 363.311472924 150.950489302 363.311472924 144.233439344 358.833329386 c 0
 137.516389385 354.355185847 137.516389385 354.355185847 132 347 c 0
 118.814573771 329.419431694 118.814573771 329.419431694 99.7882283871 326.061841333 c 0
 77.2338373005 322.839785463 77.2338373005 322.839785463 63.7663977753 331.002766708 c 0
 50.2989582502 339.165747952 50.2989582502 339.165747952 48.0400767994 358.366240284 c 0
 43.6761014767 390.005061373 43.6761014767 390.005061373 71.7281162778 414.280843412 c 0
 99.1922884316 438.047915468 99.1922884316 438.047915468 140.099980006 436.9990003 c 0
 192.496117964 435.951077541 192.496117964 435.951077541 225.959570373 392.553162698 c 0
 242.508761087 371.090930991 242.508761087 371.090930991 250.998980555 343.175920418 c 0
 259.489200023 315.260909844 259.489200023 315.260909844 259.999443176 281.074618555 c 2
 260.080688765 275.631164077 l 1
 254.649983593 276.012266194 l 2
EndSplineSet
EndChar
